<?xml version="1.0" encoding="UTF-8" standalone="no"?>
<!-- Created with Inkscape (http://www.inkscape.org/) -->

<svg
   version="1.1"
   id="svg1"
   width="681.87225"
   height="404.35452"
   viewBox="0 0 681.87225 404.35454"
   sodipodi:docname="Captura de tela 2026-06-28 161011.png"
   inkscape:export-filename="PROCESSAMENTO-  UPLOAD DE FOTOS\Frame-08-processing-photo.svg"
   inkscape:export-xdpi="96"
   inkscape:export-ydpi="96"
   xmlns:inkscape="http://www.inkscape.org/namespaces/inkscape"
   xmlns:sodipodi="http://sodipodi.sourceforge.net/DTD/sodipodi-0.dtd"
   xmlns:xlink="http://www.w3.org/1999/xlink"
   xmlns="http://www.w3.org/2000/svg"
   xmlns:svg="http://www.w3.org/2000/svg">
  <defs
     id="defs1">
    <linearGradient
       id="linearGradient31"
       inkscape:collect="always">
      <stop
         style="stop-color:#111189;stop-opacity:1;"
         offset="0"
         id="stop31" />
      <stop
         style="stop-color:#3434dc;stop-opacity:1;"
         offset="1"
         id="stop32" />
    </linearGradient>
    <linearGradient
       id="linearGradient18"
       inkscape:collect="always">
      <stop
         style="stop-color:#290b06;stop-opacity:1;"
         offset="0"
         id="stop18" />
      <stop
         style="stop-color:#290b06;stop-opacity:0;"
         offset="1"
         id="stop19" />
    </linearGradient>
    <filter
       inkscape:collect="always"
       style="color-interpolation-filters:sRGB"
       id="filter3"
       x="-0.0030099861"
       y="-0.016205575"
       width="1.0098368"
       height="1.0262147">
      <feGaussianBlur
         inkscape:collect="always"
         stdDeviation="0.12858632"
         id="feGaussianBlur3" />
    </filter>
    <filter
       inkscape:collect="always"
       style="color-interpolation-filters:sRGB"
       id="filter6"
       x="-0.18299236"
       y="-0.054467734"
       width="1.4622308"
       height="1.0859443">
      <feGaussianBlur
         inkscape:collect="always"
         stdDeviation="0.68931141"
         id="feGaussianBlur6" />
    </filter>
    <filter
       inkscape:collect="always"
       style="color-interpolation-filters:sRGB"
       id="filter18"
       x="-0.0048599998"
       width="1.00972"
       y="-inf"
       height="inf">
      <feGaussianBlur
         inkscape:collect="always"
         stdDeviation="0.13659144"
         id="feGaussianBlur18" />
    </filter>
    <filter
       inkscape:collect="always"
       style="color-interpolation-filters:sRGB"
       id="filter21"
       x="-0.040589846"
       y="-0.55852854"
       width="1.0811797"
       height="2.1170571">
      <feGaussianBlur
         inkscape:collect="always"
         stdDeviation="1.5558697"
         id="feGaussianBlur21" />
    </filter>
    <linearGradient
       inkscape:collect="always"
       xlink:href="#linearGradient31"
       id="linearGradient407"
       gradientUnits="userSpaceOnUse"
       gradientTransform="translate(0,3378)"
       x1="110.90979"
       y1="-4.3273821"
       x2="659.17407"
       y2="135.20836" />
    <linearGradient
       inkscape:collect="always"
       xlink:href="#linearGradient18"
       id="linearGradient408"
       gradientUnits="userSpaceOnUse"
       gradientTransform="matrix(1,0,0,0.362069,-7.1002699,134.59907)"
       x1="138.76398"
       y1="238.78516"
       x2="139.07268"
       y2="203.74687" />
    <linearGradient
       inkscape:collect="always"
       xlink:href="#linearGradient18"
       id="linearGradient409"
       gradientUnits="userSpaceOnUse"
       gradientTransform="matrix(1,0,0,0.362069,-7.1002699,134.59907)"
       x1="138.76398"
       y1="238.78516"
       x2="139.07268"
       y2="203.74687" />
  </defs>
  <sodipodi:namedview
     id="namedview1"
     pagecolor="#ffffff"
     bordercolor="#000000"
     borderopacity="0.25"
     inkscape:showpageshadow="2"
     inkscape:pageopacity="0.0"
     inkscape:pagecheckerboard="0"
     inkscape:deskcolor="#d1d1d1"
     inkscape:zoom="1.1452703"
     inkscape:cx="437.01475"
     inkscape:cy="-42.348083"
     inkscape:window-width="1920"
     inkscape:window-height="991"
     inkscape:window-x="-9"
     inkscape:window-y="-9"
     inkscape:window-maximized="1"
     inkscape:current-layer="g1"
     showguides="true">
    <inkscape:page
       x="0"
       y="0"
       width="681.87225"
       height="404.35455"
       id="page2"
       margin="0"
       bleed="0" />
  </sodipodi:namedview>
  <g
     inkscape:groupmode="layer"
     inkscape:label="Image"
     id="g1"
     transform="translate(-19.817268,-3419.3311)">
    <rect
       style="opacity:1;fill:#b4b4b4;fill-opacity:1;stroke:#030100;stroke-width:1.40001;stroke-linecap:round;stroke-linejoin:round;stroke-dasharray:none;stroke-dashoffset:0;stroke-opacity:1"
       id="rect365"
       width="674.07672"
       height="398.51968"
       x="22.702065"
       y="-3821.0508"
       rx="0.35443252"
       ry="0.019769993"
       transform="scale(1,-1)" />
    <path
       style="opacity:0.660482;mix-blend-mode:normal;fill:none;fill-opacity:1;stroke:#030100;stroke-width:2.4671;stroke-linejoin:bevel;stroke-dasharray:none;stroke-opacity:1;filter:url(#filter6)"
       d="m 329.31748,107.79667 c 0,0 9.41557,-1.85225 9.56993,1.08047 0.15435,2.93272 0.77176,51.39978 0.77176,51.39978"
       id="path365"
       sodipodi:nodetypes="csc"
       transform="matrix(0.77095714,0,0,0.93978796,-98.151152,3486.4479)" />
    <path
       id="path366"
       style="opacity:0.526902;mix-blend-mode:normal;fill:url(#linearGradient409);fill-opacity:1;stroke:none;stroke-width:2.00452;stroke-linecap:round;stroke-linejoin:round;stroke-dasharray:none;stroke-dashoffset:0;stroke-opacity:1;filter:url(#filter21)"
       d="m 84.430069,216.2502 c -0.255574,-2.6e-4 -0.466788,0.009 -0.462673,0.0191 l 2.599198,6.20728 c 0.07844,0.18734 3.183783,0.30014 3.439357,0.3 l 85.496809,-0.0446 c 0.25557,-1.3e-4 0.46376,-0.009 0.46013,-0.0191 l -2.344,-6.62188 c 0,0 -2.51305,0.24851 -2.76862,0.24825 z"
       transform="matrix(0.79668013,0,0,0.61228157,23.068399,3502.9833)"
       sodipodi:nodetypes="sssssscss" />
    <path
       id="path367"
       style="fill:#dcc33f;fill-opacity:1;stroke:#000000;stroke-width:0.400001;stroke-linejoin:bevel"
       d="m 94.484892,3573.7253 c -0.4885,0 -0.88238,0.4698 -0.88238,1.0525 v 11.2577 h -0.67309 c -1.11881,0 -2.01925,1.0741 -2.01925,2.4086 v 46.9724 c 0,1.3345 0.90044,2.4085 2.01925,2.4085 h 68.326068 c 1.11881,0 2.01925,-1.074 2.01925,-2.4085 v -46.9724 c 0,-1.3345 -0.90044,-2.4086 -2.01925,-2.4086 h -40.38941 v -11.2577 c 0,-0.5827 -0.39388,-1.0525 -0.8824,-1.0525 z" />
    <path
       style="opacity:0.808905;fill:none;fill-opacity:1;stroke:#ffffff;stroke-width:0.4;stroke-linejoin:bevel;stroke-opacity:1"
       d="m 120.75405,3586.4618 h 40.64241"
       id="path368" />
    <path
       style="opacity:0.808905;fill:none;fill-opacity:1;stroke:#ffffff;stroke-width:0.9;stroke-linejoin:bevel;stroke-dasharray:none;stroke-opacity:1"
       d="M 94.204812,3574.3956 H 119.84933"
       id="path369" />
    <rect
       style="fill:#dcc33f;fill-opacity:1;stroke:#000000;stroke-width:0.81406;stroke-linejoin:bevel;stroke-dasharray:none"
       id="rect370"
       width="69.020042"
       height="43.794064"
       x="-885.90955"
       y="3722.5125"
       transform="matrix(1,0,0.25945258,0.96575585,0,0)"
       ry="0.89749879"
       rx="0.59500045" />
    <path
       style="opacity:0.660482;mix-blend-mode:normal;fill:none;fill-opacity:1;stroke:#030100;stroke-width:2.4671;stroke-linejoin:bevel;stroke-dasharray:none;stroke-opacity:1;filter:url(#filter6)"
       d="m 329.31748,107.79667 c 0,0 9.41557,-1.85225 9.56993,1.08047 0.15435,2.93272 0.77176,51.39978 0.77176,51.39978"
       id="path371"
       sodipodi:nodetypes="csc"
       transform="matrix(0.77095714,0,0,0.93978796,339.54462,3484.4479)" />
    <path
       id="path372"
       style="fill:#dcc33f;fill-opacity:1;stroke:#000000;stroke-width:0.8;stroke-linejoin:bevel;stroke-dasharray:none"
       d="m 532.18066,3571.7253 c -0.48852,0 -0.8824,0.4698 -0.8824,1.0525 v 11.2577 h -0.67308 c -1.1188,0 -2.01923,1.0741 -2.01923,2.4086 v 46.9724 c 0,1.3345 0.90043,2.4085 2.01923,2.4085 h 68.32607 c 1.11881,0 2.01926,-1.074 2.01926,-2.4085 v -46.9724 c 0,-1.3345 -0.90045,-2.4086 -2.01926,-2.4086 h -40.38942 v -11.2577 c 0,-0.5827 -0.39388,-1.0525 -0.88238,-1.0525 z" />
    <path
       style="opacity:0.808905;fill:none;fill-opacity:1;stroke:#ffffff;stroke-width:0.4;stroke-linejoin:bevel;stroke-opacity:1"
       d="m 558.44982,3584.4618 h 40.6424"
       id="path373" />
    <path
       id="path374"
       style="opacity:1;fill:#ffffff;fill-opacity:1;stroke:#030100;stroke-width:1.1;stroke-linejoin:bevel;stroke-dasharray:none;stroke-opacity:1"
       d="m 573.46245,3591.0702 c -0.0537,7e-4 -0.10846,0.016 -0.16099,0.044 l -25.59646,14.0215 c -0.21102,0.1156 -0.32779,2.9717 -0.2632,3.2504 1.25266,5.4064 4.19607,9.6744 6.7374,17.31 1.02637,2.5479 3.89989,5.3583 5.11924,5.9687 l 7.47103,-1.5324 16.6086,-9.0995 c 0.21102,-0.1156 0.30998,-0.4231 0.2203,-0.6892 -9.29196,-11.1705 -10.43201,-20.2925 -9.75439,-28.9578 -0.0672,-0.1996 -0.22016,-0.318 -0.38149,-0.3157 z"
       sodipodi:nodetypes="sccsccccccss" />
    <rect
       style="fill:#dcc33f;fill-opacity:1;stroke:#000000;stroke-width:0.700069;stroke-linejoin:bevel;stroke-dasharray:none"
       id="rect374"
       width="69.020042"
       height="42.302788"
       x="457.30807"
       y="3593.7532"
       transform="matrix(1,0,0.0199439,0.9998011,0,0)"
       ry="0.86693716"
       rx="0.59500045" />
    <path
       style="opacity:0.90167;mix-blend-mode:normal;fill:none;fill-opacity:1;stroke:#ffffff;stroke-width:0.831358;stroke-linejoin:bevel;stroke-dasharray:none;stroke-opacity:1;filter:url(#filter3)"
       d="m 232.60802,110.5761 c 0,0 84.81576,-0.048 85.78761,-0.10915 0.97185,-0.0612 1.65556,0.69791 1.85546,1.30974 4.66383,14.27472 14.96286,43.37506 14.96286,43.37506"
       id="path375"
       sodipodi:nodetypes="czsc"
       transform="matrix(0.77095714,0,-0.22870486,0.91958476,375.36996,3492.3243)" />
    <path
       style="opacity:0.808905;fill:none;fill-opacity:1;stroke:#ffffff;stroke-width:0.9;stroke-linejoin:bevel;stroke-dasharray:none;stroke-opacity:1"
       d="m 531.90058,3572.3956 h 25.64451"
       id="path376" />
    <path
       style="opacity:0.90167;fill:#b4b4b4;fill-opacity:1;stroke:#030100;stroke-width:0;stroke-linecap:round;stroke-linejoin:round;stroke-dasharray:none;stroke-dashoffset:0;stroke-opacity:1;filter:url(#filter18)"
       d="M 91.840447,3643.6427 H 159.29301"
       id="path384" />
    <path
       id="path385"
       style="opacity:0.526902;mix-blend-mode:normal;fill:url(#linearGradient408);fill-opacity:1;stroke:none;stroke-width:2.00452;stroke-linecap:round;stroke-linejoin:round;stroke-dasharray:none;stroke-dashoffset:0;stroke-opacity:1;filter:url(#filter21)"
       d="m 84.430069,216.2502 c -0.255574,-2.6e-4 -0.466788,0.009 -0.462673,0.0191 l 2.599198,6.20728 c 0.07844,0.18734 3.183783,0.30014 3.439357,0.3 l 85.496809,-0.0446 c 0.25557,-1.3e-4 0.46376,-0.009 0.46013,-0.0191 l -2.344,-6.62188 c 0,0 -2.51305,0.24851 -2.76862,0.24825 z"
       transform="matrix(0.79668013,0,-0.15227717,0.61228157,494.72305,3500.9833)"
       sodipodi:nodetypes="sssssscss" />
    <rect
       style="opacity:1;fill:#aeaeae;fill-opacity:1;stroke:#030100;stroke-width:0.800001;stroke-linecap:round;stroke-linejoin:round;stroke-dasharray:none;stroke-dashoffset:0;stroke-opacity:1"
       id="rect385"
       width="608.17194"
       height="32.686935"
       x="55.921883"
       y="3719.4062"
       rx="0.57046831"
       ry="0.0026661025" />
    <rect
       style="opacity:1;fill:url(#linearGradient407);fill-opacity:1;stroke:#030100;stroke-width:0.800001;stroke-linecap:round;stroke-linejoin:round;stroke-dasharray:none;stroke-dashoffset:0;stroke-opacity:1"
       id="rect386"
       width="653.22485"
       height="44.453865"
       x="33.340397"
       y="3429.8628"
       rx="0.61272812"
       ry="0.0036258695" />
    <path
       style="opacity:0.332096;fill:#ffffff;fill-opacity:1;stroke:#ffffff;stroke-width:3.2;stroke-linecap:round;stroke-linejoin:round;stroke-dasharray:none;stroke-dashoffset:0;stroke-opacity:1"
       d="M 54.766618,3753.3632 H 662.70079"
       id="path386" />
    <path
       id="text386"
       style="font-style:normal;font-variant:normal;font-weight:bold;font-stretch:normal;font-size:21.5678px;font-family:'Yu Gothic';-inkscape-font-specification:'Yu Gothic Bold';text-align:center;letter-spacing:0.480781px;word-spacing:-3.45983px;writing-mode:lr-tb;direction:ltr;text-anchor:middle;opacity:0.888683;fill:#ffffff;fill-opacity:1;stroke:none;stroke-width:3.2;stroke-linecap:round;stroke-linejoin:round;stroke-dasharray:none;stroke-dashoffset:0;stroke-opacity:1"
       d="m 114.20917,3611.2898 c -2.02198,0 -3.66491,0.6597 -4.92865,1.9796 -1.50244,1.5656 -2.25282,3.8053 -2.25282,6.7189 0,2.5345 0.57408,4.5648 1.72549,6.0883 1.2848,1.7061 3.09757,2.559 5.43548,2.559 2.02901,0 3.67423,-0.665 4.93797,-1.9919 1.49542,-1.5586 2.24351,-3.7949 2.24351,-6.7086 0,-2.5415 -0.57595,-4.5731 -1.72736,-6.0966 -1.2848,-1.699 -3.0957,-2.5487 -5.43362,-2.5487 z m 96.08531,0 c -2.02198,0 -3.66491,0.6597 -4.92865,1.9796 -1.50244,1.5656 -2.25283,3.8053 -2.25283,6.7189 0,2.5345 0.57409,4.5648 1.72549,6.0883 1.2848,1.7061 3.09757,2.559 5.43549,2.559 2.029,0 3.67422,-0.665 4.93796,-1.9919 1.49543,-1.5586 2.24352,-3.7949 2.24352,-6.7086 0,-2.5415 -0.57595,-4.5731 -1.72736,-6.0966 -1.2848,-1.699 -3.09571,-2.5487 -5.43362,-2.5487 z m 37.28628,0 c -2.02198,0 -3.66491,0.6597 -4.92865,1.9796 -1.50244,1.5656 -2.25469,3.8053 -2.25469,6.7189 0,2.5345 0.57595,4.5648 1.72735,6.0883 1.2848,1.7061 3.09757,2.559 5.43549,2.559 2.029,0 3.67422,-0.665 4.93796,-1.9919 1.49543,-1.5586 2.24352,-3.7949 2.24352,-6.7086 0,-2.5415 -0.57595,-4.5731 -1.72736,-6.0966 -1.2848,-1.699 -3.09571,-2.5487 -5.43362,-2.5487 z m 31.23774,0 c -2.02198,0 -3.66491,0.6597 -4.92865,1.9796 -1.50244,1.5656 -2.25283,3.8053 -2.25283,6.7189 0,2.5345 0.57595,4.5648 1.72736,6.0883 1.2848,1.7061 3.0957,2.559 5.43362,2.559 2.029,0 3.67609,-0.665 4.93983,-1.9919 1.49542,-1.5586 2.24165,-3.7949 2.24165,-6.7086 0,-2.5415 -0.57409,-4.5731 -1.7255,-6.0966 -1.2848,-1.699 -3.09757,-2.5487 -5.43548,-2.5487 z m -215.979052,0.2845 v 16.7338 h 11.215698 v -2.3052 h -8.310685 v -5.3923 h 6.151025 v -2.3072 h -6.151025 v -4.4219 h 8.141117 v -2.3072 z m 13.297096,0 4.854111,8.1519 -5.202563,8.5819 h 3.042903 l 3.128619,-5.3698 c 0.224664,-0.4353 0.409715,-0.781 0.557151,-1.0338 0.07723,0.1194 0.168606,0.2783 0.273917,0.4749 0.147436,0.2808 0.249429,0.4676 0.305595,0.5589 l 3.108122,5.3698 h 3.348497 l -5.245421,-8.6985 4.980821,-8.0353 h -3.0634 l -2.739172,4.6963 c -0.414226,0.7582 -0.641736,1.1756 -0.683861,1.2529 -0.08425,-0.1405 -0.188538,-0.3284 -0.314912,-0.5671 -0.161478,-0.2949 -0.282405,-0.5094 -0.359633,-0.6428 l -2.694451,-4.7393 z m 16.392174,0 v 16.7338 h 2.906876 v -7.0239 h 2.823024 c 1.853482,0 3.309492,-0.38 4.369632,-1.1383 1.18651,-0.8565 1.77953,-2.1152 1.77953,-3.7791 0,-3.1945 -1.9895,-4.7925 -5.970277,-4.7925 z m 32.407942,0 v 16.7338 h 2.84352 v -7.4764 h 2.37023 l 0.75653,-0.023 3.39136,7.4989 h 3.12861 l -3.86465,-7.9288 c 0.99695,-0.3019 1.77918,-0.7865 2.34786,-1.4535 0.64591,-0.7512 0.96896,-1.6863 0.96896,-2.8026 0,-3.033 -1.97659,-4.5489 -5.92928,-4.5489 z m 14.2232,0 v 2.3482 h 4.93983 v 14.3856 h 2.93855 v -14.3856 h 4.98082 v -2.3482 z m 18.77358,0 -5.12803,16.7338 h 2.75967 l 1.44225,-4.9174 h 5.13921 l 1.42176,4.9174 h 3.04291 l -5.15971,-16.7338 z m 11.65545,0 v 16.7338 h 2.67396 v -8.109 c 0,-2.1764 -0.0489,-4.1918 -0.14721,-6.0453 h 0.29441 c 0.73718,1.8254 1.53835,3.669 2.4019,5.5295 l 4.05472,8.6248 h 3.55906 v -16.7338 h -2.67395 v 7.0239 c 0,1.8114 0.0702,3.8546 0.21056,6.1293 h -0.29628 c -0.62485,-1.9307 -1.36462,-3.8447 -2.22115,-5.7403 l -3.47521,-7.4129 z m 17.32014,0 v 16.7338 h 5.21188 c 2.4011,0 4.32232,-0.617 5.76158,-1.8527 1.72711,-1.4813 2.5901,-3.6901 2.5901,-6.6248 0,-2.5766 -0.61425,-4.5642 -1.84289,-5.9614 -1.355,-1.5305 -3.39529,-2.2949 -6.11934,-2.2949 z m 40.45589,0 v 16.7338 h 2.93669 v -7.6135 h 6.11935 v -2.3072 h -6.11935 v -4.5059 h 8.08895 v -2.3072 z m 29.39486,0 v 2.3482 h 4.93982 v 14.3856 h 2.93856 v -14.3856 h 4.98082 v -2.3482 z m -142.55061,1.9592 c 1.17247,0 2.10977,0.4665 2.81184,1.4003 0.8425,1.1163 1.26338,2.7944 1.26338,5.034 0,1.9448 -0.32535,3.4756 -0.97828,4.5919 -0.71612,1.2217 -1.74895,1.8322 -3.09694,1.8322 -1.17247,0 -2.11393,-0.4665 -2.82302,-1.4003 -0.84952,-1.1233 -1.27456,-2.7982 -1.27456,-5.0238 0,-1.9588 0.33137,-3.496 0.99132,-4.6123 0.71612,-1.2146 1.75125,-1.822 3.10626,-1.822 z m 96.08531,0 c 1.17247,0 2.10976,0.4665 2.81184,1.4003 0.84249,1.1163 1.26337,2.7944 1.26337,5.034 0,1.9448 -0.32534,3.4756 -0.97827,4.5919 -0.71612,1.2217 -1.74896,1.8322 -3.09694,1.8322 -1.17247,0 -2.11393,-0.4665 -2.82303,-1.4003 -0.84951,-1.1233 -1.27269,-2.7982 -1.27269,-5.0238 0,-1.9588 0.32951,-3.496 0.98946,-4.6123 0.71612,-1.2146 1.75125,-1.822 3.10626,-1.822 z m 37.28628,0 c 1.17246,0 2.10976,0.4665 2.81184,1.4003 0.84249,1.1163 1.26337,2.7944 1.26337,5.034 0,1.9448 -0.3272,3.4756 -0.98014,4.5919 -0.71611,1.2217 -1.74709,1.8322 -3.09507,1.8322 -1.17247,0 -2.11393,-0.4665 -2.82303,-1.4003 -0.84951,-1.1233 -1.27455,-2.7982 -1.27455,-5.0238 0,-1.9588 0.33137,-3.496 0.99132,-4.6123 0.71612,-1.2146 1.75125,-1.822 3.10626,-1.822 z m 31.23774,0 c 1.17247,0 2.10976,0.4665 2.81184,1.4003 0.84249,1.1163 1.26524,2.7944 1.26524,5.034 0,1.9448 -0.32721,3.4756 -0.98014,4.5919 -0.71612,1.2217 -1.74896,1.8322 -3.09694,1.8322 -1.17247,0 -2.11207,-0.4665 -2.82116,-1.4003 -0.84952,-1.1233 -1.27456,-2.7982 -1.27456,-5.0238 0,-1.9588 0.32951,-3.496 0.98946,-4.6123 0.71612,-1.2146 1.75125,-1.822 3.10626,-1.822 z m -119.34777,0.1883 h 0.19006 c 0.53358,2.2677 0.86308,3.6416 0.98946,4.119 l 0.98014,3.3901 h -4.09572 l 0.90561,-3.4126 c 0.32997,-1.1655 0.67239,-2.5308 1.03045,-4.0965 z m -64.035136,0.033 h 2.843522 c 2.127294,0 3.190114,0.8775 3.190114,2.6327 0,1.8113 -1.09883,2.7166 -3.296327,2.7166 h -2.737309 z m 32.344586,0 h 3.04291 c 2.09921,0 3.14911,0.8038 3.14911,2.4116 0,1.6709 -1.09236,2.5057 -3.27582,2.5057 h -2.9162 z m 62.01337,0.063 h 2.41121 c 3.45422,0 5.18207,2.0101 5.18207,6.033 0,1.9728 -0.42088,3.4823 -1.26337,4.5284 -0.89866,1.1233 -2.25454,1.6848 -4.0659,1.6848 h -2.26401 z"
       transform="scale(1.0481612,0.95405172)" />
    <rect
       style="opacity:0.888683;fill:#b4b4b4;fill-opacity:1;stroke:#000000;stroke-width:3.2;stroke-linecap:round;stroke-linejoin:round;stroke-dasharray:none;stroke-dashoffset:0;stroke-opacity:1"
       id="rect387"
       width="48.896755"
       height="39.292034"
       x="633.64807"
       y="3432.3088"
       rx="0.35443252"
       ry="0.012388388" />
    <text
       xml:space="preserve"
       style="font-style:normal;font-variant:normal;font-weight:bold;font-stretch:normal;font-size:26.5341px;font-family:'Yu Gothic';-inkscape-font-specification:'Yu Gothic Bold';text-align:center;letter-spacing:0.591487px;word-spacing:-4.2565px;writing-mode:lr-tb;direction:ltr;text-anchor:middle;opacity:0.888683;fill:#000000;fill-opacity:1;stroke:none;stroke-width:3.2;stroke-linecap:round;stroke-linejoin:round;stroke-dasharray:none;stroke-dashoffset:0;stroke-opacity:1"
       x="508.87204"
       y="4462.1338"
       id="text387"
       transform="scale(1.2895132,0.77548644)"><tspan
         sodipodi:role="line"
         id="tspan387"
         x="509.16779"
         y="4462.1338"
         style="font-style:normal;font-variant:normal;font-weight:bold;font-stretch:normal;font-family:'Yu Gothic';-inkscape-font-specification:'Yu Gothic Bold';fill:#000000;stroke:none;stroke-width:3.2">X</tspan></text>
    <rect
       style="opacity:0.888683;fill:#0f214c;fill-opacity:1;stroke:none;stroke-width:3.2;stroke-linecap:round;stroke-linejoin:round;stroke-dasharray:none;stroke-dashoffset:0;stroke-opacity:1"
       id="rect388"
       width="26.159969"
       height="30.870993"
       x="56.842144"
       y="3720.5371"
       rx="0.27809942"
       ry="0.0088489214" />
    <rect
       style="opacity:0.888683;fill:#0f214c;fill-opacity:1;stroke:none;stroke-width:3.2;stroke-linecap:round;stroke-linejoin:round;stroke-dasharray:none;stroke-dashoffset:0;stroke-opacity:1"
       id="rect389"
       width="26.159969"
       height="30.870993"
       x="86.000107"
       y="3720.5371"
       rx="0.27809942"
       ry="0.0088489214" />
    <rect
       style="opacity:0.888683;fill:#0f214c;fill-opacity:1;stroke:none;stroke-width:3.2;stroke-linecap:round;stroke-linejoin:round;stroke-dasharray:none;stroke-dashoffset:0;stroke-opacity:1"
       id="rect390"
       width="26.159969"
       height="30.870993"
       x="115.15808"
       y="3720.5371"
       rx="0.27809942"
       ry="0.0088489214" />
    <rect
       style="opacity:0.888683;fill:#0f214c;fill-opacity:1;stroke:none;stroke-width:3.2;stroke-linecap:round;stroke-linejoin:round;stroke-dasharray:none;stroke-dashoffset:0;stroke-opacity:1"
       id="rect391"
       width="26.159969"
       height="30.870993"
       x="144.31606"
       y="3720.5371"
       rx="0.27809942"
       ry="0.0088489214" />
    <rect
       style="opacity:0.888683;fill:#0f214c;fill-opacity:1;stroke:none;stroke-width:3.2;stroke-linecap:round;stroke-linejoin:round;stroke-dasharray:none;stroke-dashoffset:0;stroke-opacity:1"
       id="rect392"
       width="26.159969"
       height="30.870993"
       x="173.47401"
       y="3720.5371"
       rx="0.27809942"
       ry="0.0088489214" />
    <rect
       style="opacity:0.888683;fill:#0f214c;fill-opacity:1;stroke:none;stroke-width:3.2;stroke-linecap:round;stroke-linejoin:round;stroke-dasharray:none;stroke-dashoffset:0;stroke-opacity:1"
       id="rect393"
       width="26.159969"
       height="30.870993"
       x="202.63199"
       y="3720.5371"
       rx="0.27809942"
       ry="0.0088489214" />
    <rect
       style="opacity:0.888683;fill:#b4b4b4;fill-opacity:1;stroke:#030100;stroke-width:3.2;stroke-linecap:round;stroke-linejoin:round;stroke-dasharray:none;stroke-dashoffset:0;stroke-opacity:1"
       id="rect394"
       width="106.96165"
       height="34.489674"
       x="557.68347"
       y="3717.3945"
       rx="0.31462306"
       ry="0.010874252" />
    <path
       id="text394"
       style="font-style:normal;font-variant:normal;font-weight:bold;font-stretch:normal;font-size:20.6953px;font-family:'Yu Gothic';-inkscape-font-specification:'Yu Gothic Bold';text-align:center;letter-spacing:0.461331px;word-spacing:-3.31986px;writing-mode:lr-tb;direction:ltr;text-anchor:middle;opacity:0.888683;fill:#000000;fill-opacity:1;stroke:none;stroke-width:3.2;stroke-linecap:round;stroke-linejoin:round;stroke-dasharray:none;stroke-dashoffset:0;stroke-opacity:1"
       d="m 546.75485,3903.0827 c -1.9604,0 -3.55674,0.6315 -4.78957,1.898 -1.45513,1.5023 -2.18402,3.6511 -2.18402,6.4468 0,2.432 0.56287,4.3796 1.68791,5.8414 1.25977,1.6371 3.02213,2.4564 5.28568,2.4564 3.30774,0 5.37209,-1.5934 6.19397,-4.7798 l -2.63724,-0.8079 c -0.44463,2.2905 -1.62298,3.434 -3.53622,3.434 -1.12504,0 -2.04179,-0.4512 -2.74915,-1.354 -0.85556,-1.0981 -1.28318,-2.7034 -1.28318,-4.8187 0,-1.8594 0.33016,-3.3277 0.99036,-4.4056 0.7141,-1.1722 1.72831,-1.759 3.04197,-1.759 1.85261,0 2.97649,1.1317 3.37396,3.3952 l 2.70811,-0.6565 c -0.30989,-1.4349 -0.92982,-2.5736 -1.8595,-3.4157 -1.09135,-0.9835 -2.505,-1.4746 -4.24308,-1.4746 z m 46.59378,0 c -1.9604,0 -3.55674,0.6315 -4.78956,1.898 -1.45514,1.5023 -2.18216,3.6511 -2.18216,6.4468 0,2.432 0.56287,4.3796 1.68791,5.8414 1.25977,1.6371 3.02026,2.4564 5.28381,2.4564 3.30774,0 5.37209,-1.5934 6.19398,-4.7798 l -2.63725,-0.8079 c -0.44462,2.2905 -1.62298,3.434 -3.53621,3.434 -1.12504,0 -2.04179,-0.4512 -2.74915,-1.354 -0.85557,-1.0981 -1.28319,-2.7034 -1.28319,-4.8187 0,-1.8594 0.33017,-3.3277 0.99037,-4.4056 0.71409,-1.1722 1.7283,-1.759 3.04197,-1.759 1.8526,0 2.97835,1.1317 3.37582,3.3952 l 2.70811,-0.6565 c -0.30989,-1.4349 -0.92982,-2.5736 -1.8595,-3.4157 -1.09135,-0.9835 -2.50687,-1.4746 -4.24495,-1.4746 z m -33.88503,0.2924 -4.92199,16.0557 h 2.64844 l 1.3839,-4.7185 h 4.93131 l 1.36525,4.7185 h 2.91887 l -4.94996,-16.0557 z m 11.1831,0 v 16.0557 h 2.56637 v -7.7803 c 0,-2.0884 -0.0474,-4.022 -0.14175,-5.8005 h 0.2835 c 0.70736,1.7515 1.47477,3.5203 2.30339,5.3055 l 3.89059,8.2753 h 3.41498 v -16.0557 h -2.56636 v 6.7393 c 0,1.7381 0.0686,3.6996 0.20329,5.8823 h -0.28349 c -0.59957,-1.8526 -1.30992,-3.6891 -2.13181,-5.508 l -3.33479,-7.1136 z m 31.93415,0 v 16.0557 h 10.76345 v -2.213 h -7.97327 v -5.1726 h 5.90115 v -2.213 h -5.90115 v -4.244 h 7.81101 v -2.2131 z m 13.8707,0 v 16.0557 h 10.34941 v -2.2519 h -7.52939 v -13.8038 z m -55.51266,2.0617 h 0.18091 c 0.51199,2.176 0.82994,3.4914 0.9512,3.9495 l 0.94001,3.2541 h -3.93162 l 0.86913,-3.2725 c 0.31663,-1.1183 0.64679,-2.4288 0.99037,-3.9311 z"
       transform="scale(1.0471991,0.95492824)" />
    <text
       xml:space="preserve"
       style="font-style:normal;font-variant:normal;font-weight:bold;font-stretch:normal;font-size:48px;font-family:'Yu Gothic';-inkscape-font-specification:'Yu Gothic Bold';text-align:center;letter-spacing:1.07px;word-spacing:-7.7px;writing-mode:lr-tb;direction:ltr;text-anchor:middle;opacity:0.888683;fill:#000000;fill-opacity:1;stroke:none;stroke-width:3.2;stroke-linecap:round;stroke-linejoin:round;stroke-dasharray:none;stroke-dashoffset:0;stroke-opacity:1"
       x="127.2174"
       y="3804.2734"
       id="text395"><tspan
         sodipodi:role="line"
         id="tspan395"
         x="127.7524"
         y="3804.2734"
         style="font-style:normal;font-variant:normal;font-weight:normal;font-stretch:normal;font-family:Redensek;-inkscape-font-specification:Redensek;stroke:none">1.300ms</tspan></text>
    <path
       style="opacity:0.818182;fill:none;fill-opacity:1;stroke:#ffffff;stroke-width:2.5;stroke-linecap:round;stroke-linejoin:round;stroke-dasharray:none;stroke-dashoffset:0;stroke-opacity:1"
       d="M 661.58908,3718.2676 H 558.77492 v 30.997"
       id="path395" />
    <path
       style="opacity:1;fill:none;fill-opacity:1;stroke:#c1c1c1;stroke-width:2.5;stroke-linecap:round;stroke-linejoin:round;stroke-dasharray:none;stroke-dashoffset:0;stroke-opacity:1"
       d="m 634.73952,3470.2912 v -36.6726 h 45.5165"
       id="path396" />
    <path
       style="opacity:0.332096;fill:#ffffff;fill-opacity:1;stroke:#ffffff;stroke-width:3.2;stroke-linecap:round;stroke-linejoin:round;stroke-dasharray:none;stroke-dashoffset:0;stroke-opacity:1"
       d="M 34.809535,3477.3632 H 684.81888"
       id="path397" />
    <rect
       style="opacity:0.888683;fill:#0f214c;fill-opacity:1;stroke:none;stroke-width:3.2;stroke-linecap:round;stroke-linejoin:round;stroke-dasharray:none;stroke-dashoffset:0;stroke-opacity:1"
       id="rect397"
       width="26.159969"
       height="30.870993"
       x="232.84216"
       y="3720.5371"
       rx="0.27809942"
       ry="0.0088489214" />
    <rect
       style="opacity:0.888683;fill:#0f214c;fill-opacity:1;stroke:none;stroke-width:3.2;stroke-linecap:round;stroke-linejoin:round;stroke-dasharray:none;stroke-dashoffset:0;stroke-opacity:1"
       id="rect398"
       width="26.159969"
       height="30.870993"
       x="262.00012"
       y="3720.5371"
       rx="0.27809942"
       ry="0.0088489214" />
    <rect
       style="opacity:0.888683;fill:#0f214c;fill-opacity:1;stroke:none;stroke-width:3.2;stroke-linecap:round;stroke-linejoin:round;stroke-dasharray:none;stroke-dashoffset:0;stroke-opacity:1"
       id="rect399"
       width="26.159969"
       height="30.870993"
       x="291.15808"
       y="3720.5371"
       rx="0.27809942"
       ry="0.0088489214" />
    <rect
       style="opacity:0.888683;fill:#0f214c;fill-opacity:1;stroke:none;stroke-width:3.2;stroke-linecap:round;stroke-linejoin:round;stroke-dasharray:none;stroke-dashoffset:0;stroke-opacity:1"
       id="rect400"
       width="26.159969"
       height="30.870993"
       x="320.31604"
       y="3720.5371"
       rx="0.27809942"
       ry="0.0088489214" />
    <rect
       style="opacity:0.888683;fill:#0f214c;fill-opacity:1;stroke:none;stroke-width:3.2;stroke-linecap:round;stroke-linejoin:round;stroke-dasharray:none;stroke-dashoffset:0;stroke-opacity:1"
       id="rect401"
       width="26.159969"
       height="30.870993"
       x="349.474"
       y="3720.5371"
       rx="0.27809942"
       ry="0.0088489214" />
    <rect
       style="opacity:0.888683;fill:#0f214c;fill-opacity:1;stroke:none;stroke-width:3.2;stroke-linecap:round;stroke-linejoin:round;stroke-dasharray:none;stroke-dashoffset:0;stroke-opacity:1"
       id="rect402"
       width="26.159969"
       height="30.870993"
       x="378.63199"
       y="3720.5371"
       rx="0.27809942"
       ry="0.0088489214" />
    <rect
       style="opacity:0.888683;fill:#0f214c;fill-opacity:1;stroke:none;stroke-width:3.2;stroke-linecap:round;stroke-linejoin:round;stroke-dasharray:none;stroke-dashoffset:0;stroke-opacity:1"
       id="rect403"
       width="26.159969"
       height="30.870993"
       x="408.84216"
       y="3720.5371"
       rx="0.27809942"
       ry="0.0088489214" />
    <rect
       style="opacity:0.888683;fill:#0f214c;fill-opacity:1;stroke:none;stroke-width:3.2;stroke-linecap:round;stroke-linejoin:round;stroke-dasharray:none;stroke-dashoffset:0;stroke-opacity:1"
       id="rect404"
       width="26.159969"
       height="30.870993"
       x="438.00012"
       y="3720.5371"
       rx="0.27809942"
       ry="0.0088489214" />
    <rect
       style="opacity:0.888683;fill:#0f214c;fill-opacity:1;stroke:none;stroke-width:3.2;stroke-linecap:round;stroke-linejoin:round;stroke-dasharray:none;stroke-dashoffset:0;stroke-opacity:1"
       id="rect405"
       width="26.159969"
       height="30.870993"
       x="467.15808"
       y="3720.5371"
       rx="0.27809942"
       ry="0.0088489214" />
    <rect
       style="opacity:0.888683;fill:#0f214c;fill-opacity:1;stroke:none;stroke-width:3.2;stroke-linecap:round;stroke-linejoin:round;stroke-dasharray:none;stroke-dashoffset:0;stroke-opacity:1"
       id="rect406"
       width="26.159969"
       height="30.870993"
       x="496.31604"
       y="3720.5371"
       rx="0.27809942"
       ry="0.0088489214" />
    <rect
       style="opacity:0.888683;fill:#0f214c;fill-opacity:1;stroke:none;stroke-width:3.2;stroke-linecap:round;stroke-linejoin:round;stroke-dasharray:none;stroke-dashoffset:0;stroke-opacity:1"
       id="rect407"
       width="26.159969"
       height="30.870993"
       x="525.474"
       y="3720.5371"
       rx="0.27809942"
       ry="0.0088489214" />
  </g>
</svg>
