<?xml version="1.0" encoding="UTF-8" standalone="no"?>
<!-- Created with Inkscape (http://www.inkscape.org/) -->

<svg
   version="1.1"
   id="svg1"
   width="690.11066"
   height="410.26401"
   viewBox="0 0 690.11066 410.26401"
   sodipodi:docname="Frame-03-processing-photo.svg"
   inkscape:export-filename="PROCESSAMENTO-  UPLOAD DE FOTOS\Frame-02-processing-photo.svg"
   inkscape:export-xdpi="96"
   inkscape:export-ydpi="96"
   inkscape:version="1.4.2 (f4327f4, 2025-05-13)"
   xmlns:inkscape="http://www.inkscape.org/namespaces/inkscape"
   xmlns:sodipodi="http://sodipodi.sourceforge.net/DTD/sodipodi-0.dtd"
   xmlns:xlink="http://www.w3.org/1999/xlink"
   xmlns="http://www.w3.org/2000/svg"
   xmlns:svg="http://www.w3.org/2000/svg">
  <defs
     id="defs1">
    <linearGradient
       id="linearGradient31"
       inkscape:collect="always">
      <stop
         style="stop-color:#111189;stop-opacity:1;"
         offset="0"
         id="stop31" />
      <stop
         style="stop-color:#3434dc;stop-opacity:1;"
         offset="1"
         id="stop32" />
    </linearGradient>
    <linearGradient
       id="linearGradient18"
       inkscape:collect="always">
      <stop
         style="stop-color:#290b06;stop-opacity:1;"
         offset="0"
         id="stop18" />
      <stop
         style="stop-color:#290b06;stop-opacity:0;"
         offset="1"
         id="stop19" />
    </linearGradient>
    <filter
       inkscape:collect="always"
       style="color-interpolation-filters:sRGB"
       id="filter3"
       x="-0.0030109686"
       y="-0.020191168"
       width="1.0114745"
       height="1.0315303">
      <feGaussianBlur
         inkscape:collect="always"
         stdDeviation="0.12858632"
         id="feGaussianBlur3" />
    </filter>
    <filter
       inkscape:collect="always"
       style="color-interpolation-filters:sRGB"
       id="filter6"
       x="-0.18299236"
       y="-0.054467734"
       width="1.4622308"
       height="1.0859443">
      <feGaussianBlur
         inkscape:collect="always"
         stdDeviation="0.68931141"
         id="feGaussianBlur6" />
    </filter>
    <filter
       inkscape:collect="always"
       style="color-interpolation-filters:sRGB"
       id="filter18"
       x="-0.0048599998"
       width="1.00972"
       y="-inf"
       height="inf">
      <feGaussianBlur
         inkscape:collect="always"
         stdDeviation="0.13659144"
         id="feGaussianBlur18" />
    </filter>
    <filter
       inkscape:collect="always"
       style="color-interpolation-filters:sRGB"
       id="filter21"
       x="-0.040589846"
       y="-0.55852854"
       width="1.0811797"
       height="2.1170571">
      <feGaussianBlur
         inkscape:collect="always"
         stdDeviation="1.5558697"
         id="feGaussianBlur21" />
    </filter>
    <linearGradient
       inkscape:collect="always"
       xlink:href="#linearGradient31"
       id="linearGradient138"
       gradientUnits="userSpaceOnUse"
       x1="110.90979"
       y1="-4.3273821"
       x2="659.17407"
       y2="135.20836"
       gradientTransform="translate(0,836)" />
    <linearGradient
       inkscape:collect="always"
       xlink:href="#linearGradient18"
       id="linearGradient139"
       gradientUnits="userSpaceOnUse"
       gradientTransform="matrix(1,0,0,0.362069,-7.1002699,134.59907)"
       x1="138.76398"
       y1="238.78516"
       x2="139.07268"
       y2="203.74687" />
    <linearGradient
       inkscape:collect="always"
       xlink:href="#linearGradient18"
       id="linearGradient140"
       gradientUnits="userSpaceOnUse"
       gradientTransform="matrix(1,0,0,0.362069,-7.1002699,134.59907)"
       x1="138.76398"
       y1="238.78516"
       x2="139.07268"
       y2="203.74687" />
  </defs>
  <sodipodi:namedview
     id="namedview1"
     pagecolor="#ffffff"
     bordercolor="#000000"
     borderopacity="0.25"
     inkscape:showpageshadow="2"
     inkscape:pageopacity="0.0"
     inkscape:pagecheckerboard="0"
     inkscape:deskcolor="#d1d1d1"
     inkscape:zoom="1.1452703"
     inkscape:cx="437.88789"
     inkscape:cy="326.12389"
     inkscape:window-width="1920"
     inkscape:window-height="991"
     inkscape:window-x="-9"
     inkscape:window-y="-9"
     inkscape:window-maximized="1"
     inkscape:current-layer="g1"
     showguides="true">
    <inkscape:page
       x="0"
       y="0"
       width="690.11066"
       height="410.26401"
       id="page2"
       margin="0"
       bleed="0" />
  </sodipodi:namedview>
  <g
     inkscape:groupmode="layer"
     inkscape:label="Image"
     id="g1"
     transform="translate(-14.832018,-874.33936)">
    <rect
       style="opacity:1;fill:#b4b4b4;fill-opacity:1;stroke:#030100;stroke-width:1.40001;stroke-linecap:round;stroke-linejoin:round;stroke-dasharray:none;stroke-dashoffset:0;stroke-opacity:1"
       id="rect95"
       width="674.07672"
       height="398.51968"
       x="22.702065"
       y="-1279.0508"
       rx="0.35443252"
       ry="0.019769993"
       transform="scale(1,-1)" />
    <path
       style="opacity:0.660482;mix-blend-mode:normal;fill:none;fill-opacity:1;stroke:#030100;stroke-width:2.4671;stroke-linejoin:bevel;stroke-dasharray:none;stroke-opacity:1;filter:url(#filter6)"
       d="m 329.31748,107.79667 c 0,0 9.41557,-1.85225 9.56993,1.08047 0.15435,2.93272 0.77176,51.39978 0.77176,51.39978"
       id="path95"
       sodipodi:nodetypes="csc"
       transform="matrix(0.77095714,0,0,0.93978796,-98.151152,944.44792)" />
    <path
       id="path96"
       style="opacity:0.526902;mix-blend-mode:normal;fill:url(#linearGradient140);fill-opacity:1;stroke:none;stroke-width:2.00452;stroke-linecap:round;stroke-linejoin:round;stroke-dasharray:none;stroke-dashoffset:0;stroke-opacity:1;filter:url(#filter21)"
       d="m 84.430069,216.2502 c -0.255574,-2.6e-4 -0.466788,0.009 -0.462673,0.0191 l 2.599198,6.20728 c 0.07844,0.18734 3.183783,0.30014 3.439357,0.3 l 85.496809,-0.0446 c 0.25557,-1.3e-4 0.46376,-0.009 0.46013,-0.0191 l -2.344,-6.62188 c 0,0 -2.51305,0.24851 -2.76862,0.24825 z"
       transform="matrix(0.79668013,0,0,0.61228157,23.068399,960.98333)"
       sodipodi:nodetypes="sssssscss" />
    <path
       id="path97"
       style="fill:#dcc33f;fill-opacity:1;stroke:#000000;stroke-width:0.400001;stroke-linejoin:bevel"
       d="m 94.484892,1031.7253 c -0.4885,0 -0.88238,0.4698 -0.88238,1.0525 v 11.2577 h -0.67309 c -1.11881,0 -2.01925,1.0741 -2.01925,2.4086 v 46.9724 c 0,1.3345 0.90044,2.4085 2.01925,2.4085 h 68.326068 c 1.11881,0 2.01925,-1.074 2.01925,-2.4085 v -46.9724 c 0,-1.3345 -0.90044,-2.4086 -2.01925,-2.4086 h -40.38941 v -11.2577 c 0,-0.5827 -0.39388,-1.0525 -0.8824,-1.0525 z" />
    <path
       style="opacity:0.808905;fill:none;fill-opacity:1;stroke:#ffffff;stroke-width:0.4;stroke-linejoin:bevel;stroke-opacity:1"
       d="m 120.75405,1044.4618 h 40.64241"
       id="path98" />
    <path
       style="opacity:0.808905;fill:none;fill-opacity:1;stroke:#ffffff;stroke-width:0.9;stroke-linejoin:bevel;stroke-dasharray:none;stroke-opacity:1"
       d="M 94.204812,1032.3956 H 119.84933"
       id="path99" />
    <rect
       style="fill:#dcc33f;fill-opacity:1;stroke:#000000;stroke-width:0.81406;stroke-linejoin:bevel;stroke-dasharray:none"
       id="rect100"
       width="69.020042"
       height="43.794064"
       x="-202.99518"
       y="1090.3689"
       transform="matrix(1,0,0.25945258,0.96575585,0,0)"
       ry="0.89749879"
       rx="0.59500045" />
    <path
       style="opacity:0.812616;mix-blend-mode:normal;fill:none;fill-opacity:1;stroke:#ffffff;stroke-width:1.18765;stroke-linejoin:bevel;stroke-dasharray:none;stroke-opacity:1;filter:url(#filter3)"
       d="m 232.60802,110.5761 c 0,0 84.81576,-0.048 85.78761,-0.10915 0.97185,-0.0612 1.65556,0.69791 1.85546,1.30974 4.66383,14.27472 14.96286,43.37506 14.96286,43.37506"
       id="path100"
       sodipodi:nodetypes="czsc"
       transform="matrix(0.77095714,0,0,0.91958476,-98.535163,952.32426)" />
    <path
       style="opacity:0.660482;mix-blend-mode:normal;fill:none;fill-opacity:1;stroke:#030100;stroke-width:2.4671;stroke-linejoin:bevel;stroke-dasharray:none;stroke-opacity:1;filter:url(#filter6)"
       d="m 329.31748,107.79667 c 0,0 9.41557,-1.85225 9.56993,1.08047 0.15435,2.93272 0.77176,51.39978 0.77176,51.39978"
       id="path101"
       sodipodi:nodetypes="csc"
       transform="matrix(0.77095714,0,0,0.93978796,339.54462,944.44792)" />
    <path
       id="path102"
       style="fill:#dcc33f;fill-opacity:1;stroke:#000000;stroke-width:0.8;stroke-linejoin:bevel;stroke-dasharray:none"
       d="m 532.18066,1031.7253 c -0.48852,0 -0.8824,0.4698 -0.8824,1.0525 v 11.2577 h -0.67308 c -1.1188,0 -2.01923,1.0741 -2.01923,2.4086 v 46.9724 c 0,1.3345 0.90043,2.4085 2.01923,2.4085 h 68.32607 c 1.11881,0 2.01926,-1.074 2.01926,-2.4085 v -46.9724 c 0,-1.3345 -0.90045,-2.4086 -2.01926,-2.4086 h -40.38942 v -11.2577 c 0,-0.5827 -0.39388,-1.0525 -0.88238,-1.0525 z" />
    <path
       style="opacity:0.808905;fill:none;fill-opacity:1;stroke:#ffffff;stroke-width:0.4;stroke-linejoin:bevel;stroke-opacity:1"
       d="m 558.44982,1044.4618 h 40.6424"
       id="path103" />
    <rect
       style="fill:#dcc33f;fill-opacity:1;stroke:#000000;stroke-width:0.712302;stroke-linejoin:bevel;stroke-dasharray:none"
       id="rect104"
       width="69.020042"
       height="43.794064"
       x="234.70065"
       y="1090.3689"
       transform="matrix(1,0,0.25945258,0.96575585,0,0)"
       ry="0.89749879"
       rx="0.59500045" />
    <path
       style="opacity:0.90167;mix-blend-mode:normal;fill:none;fill-opacity:1;stroke:#ffffff;stroke-width:0.831358;stroke-linejoin:bevel;stroke-dasharray:none;stroke-opacity:1;filter:url(#filter3)"
       d="m 232.60802,110.5761 c 0,0 84.81576,-0.048 85.78761,-0.10915 0.97185,-0.0612 1.65556,0.69791 1.85546,1.30974 4.66383,14.27472 14.96286,43.37506 14.96286,43.37506"
       id="path105"
       sodipodi:nodetypes="czsc"
       transform="matrix(0.77095714,0,0,0.91958476,338.94231,952.32426)" />
    <path
       style="opacity:0.808905;fill:none;fill-opacity:1;stroke:#ffffff;stroke-width:0.9;stroke-linejoin:bevel;stroke-dasharray:none;stroke-opacity:1"
       d="m 531.90058,1032.3956 h 25.64451"
       id="path106" />
    <path
       id="path108"
       style="opacity:1;fill:#ffffff;fill-opacity:1;stroke:#030100;stroke-width:1.1;stroke-linejoin:bevel;stroke-dasharray:none;stroke-opacity:1"
       d="m 283.46673,985.0551 c -0.17111,-4.3815 -30.44073,-6.9552 -40.42975,-5.7589 -0.35857,0 -0.64599,0.2105 -0.64407,0.466 l 0.23513,30.9997 c 0.002,0.2555 0.29257,0.46 0.65114,0.4573 13.00554,-4.124 26.01109,-1.7428 39.01663,-0.2902 0.35857,0 0.64414,-0.2098 0.64222,-0.4654 0.13715,-10.3825 0.9278,-15.0328 0.5287,-25.4085 z"
       sodipodi:nodetypes="sccccccs" />
    <path
       style="opacity:0.90167;fill:#b4b4b4;fill-opacity:1;stroke:#030100;stroke-width:0;stroke-linecap:round;stroke-linejoin:round;stroke-dasharray:none;stroke-dashoffset:0;stroke-opacity:1;filter:url(#filter18)"
       d="M 91.840447,1101.6427 H 159.29301"
       id="path114" />
    <path
       id="path115"
       style="opacity:0.526902;mix-blend-mode:normal;fill:url(#linearGradient139);fill-opacity:1;stroke:none;stroke-width:2.00452;stroke-linecap:round;stroke-linejoin:round;stroke-dasharray:none;stroke-dashoffset:0;stroke-opacity:1;filter:url(#filter21)"
       d="m 84.430069,216.2502 c -0.255574,-2.6e-4 -0.466788,0.009 -0.462673,0.0191 l 2.599198,6.20728 c 0.07844,0.18734 3.183783,0.30014 3.439357,0.3 l 85.496809,-0.0446 c 0.25557,-1.3e-4 0.46376,-0.009 0.46013,-0.0191 l -2.344,-6.62188 c 0,0 -2.51305,0.24851 -2.76862,0.24825 z"
       transform="matrix(0.79668013,0,0,0.61228157,460.44893,960.98333)"
       sodipodi:nodetypes="sssssscss" />
    <rect
       style="opacity:1;fill:#aeaeae;fill-opacity:1;stroke:#030100;stroke-width:0.800001;stroke-linecap:round;stroke-linejoin:round;stroke-dasharray:none;stroke-dashoffset:0;stroke-opacity:1"
       id="rect115"
       width="608.17194"
       height="32.686935"
       x="55.921883"
       y="1177.4061"
       rx="0.57046831"
       ry="0.0026661025" />
    <rect
       style="opacity:1;fill:url(#linearGradient138);fill-opacity:1;stroke:#030100;stroke-width:0.800001;stroke-linecap:round;stroke-linejoin:round;stroke-dasharray:none;stroke-dashoffset:0;stroke-opacity:1"
       id="rect116"
       width="653.22485"
       height="44.453865"
       x="33.340397"
       y="887.86285"
       rx="0.61272812"
       ry="0.0036258695" />
    <path
       style="opacity:0.332096;fill:#ffffff;fill-opacity:1;stroke:#ffffff;stroke-width:3.2;stroke-linecap:round;stroke-linejoin:round;stroke-dasharray:none;stroke-dashoffset:0;stroke-opacity:1"
       d="M 54.766618,1211.3632 H 662.70079"
       id="path116" />
    <path
       id="text116"
       style="font-style:normal;font-variant:normal;font-weight:bold;font-stretch:normal;font-size:21.5678px;font-family:'Yu Gothic';-inkscape-font-specification:'Yu Gothic Bold';text-align:center;letter-spacing:0.480781px;word-spacing:-3.45983px;writing-mode:lr-tb;direction:ltr;text-anchor:middle;opacity:0.888683;fill:#ffffff;fill-opacity:1;stroke:none;stroke-width:3.2;stroke-linecap:round;stroke-linejoin:round;stroke-dasharray:none;stroke-dashoffset:0;stroke-opacity:1"
       d="m 114.20917,946.87013 c -2.02198,0 -3.66491,0.65973 -4.92865,1.97963 -1.50244,1.56563 -2.25282,3.80526 -2.25282,6.71888 0,2.5345 0.57408,4.56279 1.72549,6.0863 1.2848,1.70604 3.09757,2.55898 5.43548,2.55898 2.02901,0 3.67423,-0.66294 4.93797,-1.98987 1.49542,-1.55861 2.24351,-3.79502 2.24351,-6.70864 0,-2.54151 -0.57595,-4.57302 -1.72736,-6.09653 -1.2848,-1.69902 -3.0957,-2.54875 -5.43362,-2.54875 z m 96.08531,0 c -2.02198,0 -3.66491,0.65973 -4.92865,1.97963 -1.50244,1.56563 -2.25283,3.80526 -2.25283,6.71888 0,2.5345 0.57409,4.56279 1.72549,6.0863 1.2848,1.70604 3.09757,2.55898 5.43549,2.55898 2.029,0 3.67422,-0.66294 4.93796,-1.98987 1.49543,-1.55861 2.24352,-3.79502 2.24352,-6.70864 0,-2.54151 -0.57595,-4.57302 -1.72736,-6.09653 -1.2848,-1.69902 -3.09571,-2.54875 -5.43362,-2.54875 z m 37.28628,0 c -2.02198,0 -3.66491,0.65973 -4.92865,1.97963 -1.50244,1.56563 -2.25469,3.80526 -2.25469,6.71888 0,2.5345 0.57595,4.56279 1.72735,6.0863 1.2848,1.70604 3.09757,2.55898 5.43549,2.55898 2.029,0 3.67422,-0.66294 4.93796,-1.98987 1.49543,-1.55861 2.24351,-3.79502 2.24351,-6.70864 0,-2.54151 -0.57594,-4.57302 -1.72735,-6.09653 -1.2848,-1.69902 -3.09571,-2.54875 -5.43362,-2.54875 z m 31.23774,0 c -2.02198,0 -3.66491,0.65973 -4.92865,1.97963 -1.50244,1.56563 -2.25283,3.80526 -2.25283,6.71888 0,2.5345 0.57595,4.56279 1.72736,6.0863 1.2848,1.70604 3.0957,2.55898 5.43362,2.55898 2.029,0 3.67609,-0.66294 4.93983,-1.98987 1.49542,-1.55861 2.24164,-3.79502 2.24164,-6.70864 0,-2.54151 -0.57408,-4.57302 -1.72549,-6.09653 -1.2848,-1.69902 -3.09757,-2.54875 -5.43548,-2.54875 z m -215.979052,0.28456 v 16.73373 h 11.215698 v -2.30718 h -8.310685 v -5.39025 h 6.151025 v -2.30719 h -6.151025 v -4.42397 h 8.141117 v -2.30514 z m 13.297096,0 4.854111,8.14986 -5.202564,8.58387 h 3.042904 l 3.128619,-5.37183 c 0.224664,-0.43528 0.409715,-0.77903 0.557151,-1.03178 0.07723,0.11935 0.168606,0.27837 0.273917,0.47495 0.147436,0.28083 0.249429,0.46556 0.305595,0.55683 l 3.108121,5.37183 h 3.348498 l -5.245421,-8.69851 4.980821,-8.03522 h -3.0634 l -2.739172,4.69625 c -0.414226,0.75825 -0.641737,1.17566 -0.683862,1.25288 -0.08425,-0.14041 -0.188537,-0.32836 -0.314911,-0.56707 -0.161478,-0.29487 -0.282405,-0.50942 -0.359633,-0.64282 l -2.694451,-4.73924 z m 16.392174,0 v 16.73373 h 2.906876 v -7.02391 h 2.823024 c 1.853482,0 3.309492,-0.37999 4.369632,-1.13824 1.18651,-0.85653 1.77953,-2.11723 1.77953,-3.78116 0,-3.19445 -1.9895,-4.79042 -5.970277,-4.79042 z m 32.407942,0 v 16.73373 h 2.84352 v -7.47634 h 2.37023 l 0.75653,-0.0225 3.39135,7.49886 h 3.12862 l -3.86465,-7.93081 c 0.99695,-0.3019 1.77918,-0.78654 2.34786,-1.45351 0.64591,-0.75122 0.96896,-1.68425 0.96896,-2.80055 0,-3.03298 -1.97659,-4.54886 -5.92928,-4.54886 z m 14.2232,0 v 2.34813 h 4.93983 v 14.3856 h 2.93855 v -14.3856 h 4.98082 v -2.34813 z m 18.77358,0 -5.12803,16.73373 h 2.75967 l 1.44225,-4.91735 h 5.13921 l 1.42176,4.91735 h 3.04291 l -5.15971,-16.73373 z m 11.65545,0 v 16.73373 h 2.67396 v -8.10892 c 0,-2.17644 -0.0489,-4.19187 -0.14721,-6.04535 h 0.29441 c 0.73718,1.8254 1.53835,3.66896 2.4019,5.52946 l 4.05472,8.62481 h 3.55906 v -16.73373 h -2.67395 v 7.02391 c 0,1.81136 0.0702,3.85456 0.21056,6.12928 h -0.29628 c -0.62485,-1.93071 -1.36462,-3.84471 -2.22115,-5.74032 l -3.47521,-7.41287 z m 17.32014,0 v 16.73373 h 5.21188 c 2.4011,0 4.32232,-0.61705 5.76158,-1.85271 1.72711,-1.48138 2.5901,-3.69002 2.5901,-6.6247 0,-2.57663 -0.61425,-4.56429 -1.84289,-5.96142 -1.355,-1.53053 -3.39529,-2.2949 -6.11934,-2.2949 z m 40.45589,0 v 16.73373 h 2.93669 v -7.6135 h 6.11935 v -2.30718 h -6.11935 v -4.50791 h 8.08895 v -2.30514 z m 29.39486,0 v 2.34813 h 4.93982 v 14.3856 h 2.93856 v -14.3856 h 4.98082 v -2.34813 z m -142.55061,1.95916 c 1.17247,0 2.10977,0.46652 2.81184,1.40028 0.8425,1.1163 1.26338,2.79441 1.26338,5.03404 0,1.94475 -0.32535,3.47554 -0.97828,4.59185 -0.71612,1.22161 -1.74895,1.83223 -3.09694,1.83223 -1.17247,0 -2.11393,-0.46652 -2.82302,-1.40028 -0.84952,-1.12332 -1.27456,-2.79822 -1.27456,-5.0238 0,-1.9588 0.33137,-3.49602 0.99132,-4.61232 0.71612,-1.21459 1.75125,-1.822 3.10626,-1.822 z m 96.08531,0 c 1.17247,0 2.10976,0.46652 2.81184,1.40028 0.84249,1.1163 1.26337,2.79441 1.26337,5.03404 0,1.94475 -0.32534,3.47554 -0.97827,4.59185 -0.71612,1.22161 -1.74896,1.83223 -3.09694,1.83223 -1.17247,0 -2.11393,-0.46652 -2.82303,-1.40028 -0.84951,-1.12332 -1.27269,-2.79822 -1.27269,-5.0238 0,-1.9588 0.32951,-3.49602 0.98946,-4.61232 0.71612,-1.21459 1.75125,-1.822 3.10626,-1.822 z m 37.28628,0 c 1.17246,0 2.10976,0.46652 2.81184,1.40028 0.84249,1.1163 1.26337,2.79441 1.26337,5.03404 0,1.94475 -0.3272,3.47554 -0.98014,4.59185 -0.71611,1.22161 -1.74709,1.83223 -3.09507,1.83223 -1.17247,0 -2.11393,-0.46652 -2.82303,-1.40028 -0.84951,-1.12332 -1.27455,-2.79822 -1.27455,-5.0238 0,-1.9588 0.33137,-3.49602 0.99132,-4.61232 0.71612,-1.21459 1.75125,-1.822 3.10626,-1.822 z m 31.23774,0 c 1.17247,0 2.10976,0.46652 2.81184,1.40028 0.84249,1.1163 1.26524,2.79441 1.26524,5.03404 0,1.94475 -0.32721,3.47554 -0.98014,4.59185 -0.71612,1.22161 -1.74896,1.83223 -3.09694,1.83223 -1.17247,0 -2.11207,-0.46652 -2.82116,-1.40028 -0.84952,-1.12332 -1.27456,-2.79822 -1.27456,-5.0238 0,-1.9588 0.32951,-3.49602 0.98946,-4.61232 0.71612,-1.21459 1.75125,-1.822 3.10626,-1.822 z m -119.34777,0.18834 h 0.19006 c 0.53358,2.26771 0.86308,3.64154 0.98946,4.11895 l 0.98014,3.39014 h -4.09572 l 0.90561,-3.41266 c 0.32997,-1.16545 0.67239,-2.5308 1.03045,-4.09643 z m -64.035136,0.0328 h 2.843521 c 2.127295,0 3.190115,0.87749 3.190115,2.63268 0,1.81136 -1.09883,2.71662 -3.296327,2.71662 h -2.737309 z m 32.344586,0 h 3.04291 c 2.09921,0 3.14911,0.80383 3.14911,2.41159 0,1.67094 -1.09236,2.50576 -3.27582,2.50576 h -2.9162 z m 62.01337,0.0635 h 2.41121 c 3.45422,0 5.18207,2.01017 5.18207,6.03307 0,1.97283 -0.42088,3.48229 -1.26337,4.52838 -0.89866,1.12333 -2.25455,1.68484 -4.06591,1.68484 h -2.264 z"
       transform="scale(1.0481612,0.95405172)" />
    <rect
       style="opacity:0.888683;fill:#b4b4b4;fill-opacity:1;stroke:#000000;stroke-width:3.2;stroke-linecap:round;stroke-linejoin:round;stroke-dasharray:none;stroke-dashoffset:0;stroke-opacity:1"
       id="rect117"
       width="48.896755"
       height="39.292034"
       x="633.64807"
       y="890.30884"
       rx="0.35443252"
       ry="0.012388388" />
    <text
       xml:space="preserve"
       style="font-style:normal;font-variant:normal;font-weight:bold;font-stretch:normal;font-size:26.5341px;font-family:'Yu Gothic';-inkscape-font-specification:'Yu Gothic Bold';text-align:center;letter-spacing:0.591487px;word-spacing:-4.2565px;writing-mode:lr-tb;direction:ltr;text-anchor:middle;opacity:0.888683;fill:#000000;fill-opacity:1;stroke:none;stroke-width:3.2;stroke-linecap:round;stroke-linejoin:round;stroke-dasharray:none;stroke-dashoffset:0;stroke-opacity:1"
       x="508.87204"
       y="1184.1929"
       id="text117"
       transform="scale(1.2895132,0.77548644)"><tspan
         sodipodi:role="line"
         id="tspan117"
         x="509.16779"
         y="1184.1929"
         style="font-style:normal;font-variant:normal;font-weight:bold;font-stretch:normal;font-family:'Yu Gothic';-inkscape-font-specification:'Yu Gothic Bold';fill:#000000;stroke:none;stroke-width:3.2">X</tspan></text>
    <rect
       style="opacity:0.888683;fill:#0f214c;fill-opacity:1;stroke:none;stroke-width:3.2;stroke-linecap:round;stroke-linejoin:round;stroke-dasharray:none;stroke-dashoffset:0;stroke-opacity:1"
       id="rect118"
       width="26.159969"
       height="30.870993"
       x="56.842144"
       y="1178.537"
       rx="0.27809942"
       ry="0.0088489214" />
    <rect
       style="opacity:0.888683;fill:#0f214c;fill-opacity:1;stroke:none;stroke-width:3.2;stroke-linecap:round;stroke-linejoin:round;stroke-dasharray:none;stroke-dashoffset:0;stroke-opacity:1"
       id="rect119"
       width="26.159969"
       height="30.870993"
       x="86.000107"
       y="1178.537"
       rx="0.27809942"
       ry="0.0088489214" />
    <rect
       style="opacity:0.888683;fill:#0f214c;fill-opacity:1;stroke:none;stroke-width:3.2;stroke-linecap:round;stroke-linejoin:round;stroke-dasharray:none;stroke-dashoffset:0;stroke-opacity:1"
       id="rect120"
       width="26.159969"
       height="30.870993"
       x="115.15808"
       y="1178.537"
       rx="0.27809942"
       ry="0.0088489214" />
    <rect
       style="opacity:0.888683;fill:#0f214c;fill-opacity:1;stroke:none;stroke-width:3.2;stroke-linecap:round;stroke-linejoin:round;stroke-dasharray:none;stroke-dashoffset:0;stroke-opacity:1"
       id="rect121"
       width="26.159969"
       height="30.870993"
       x="144.31606"
       y="1178.537"
       rx="0.27809942"
       ry="0.0088489214" />
    <rect
       style="opacity:0.888683;fill:#b4b4b4;fill-opacity:1;stroke:#030100;stroke-width:3.2;stroke-linecap:round;stroke-linejoin:round;stroke-dasharray:none;stroke-dashoffset:0;stroke-opacity:1"
       id="rect124"
       width="106.96165"
       height="34.489674"
       x="557.68347"
       y="1175.3944"
       rx="0.31462306"
       ry="0.010874252" />
    <path
       id="text124"
       style="font-style:normal;font-variant:normal;font-weight:bold;font-stretch:normal;font-size:20.6953px;font-family:'Yu Gothic';-inkscape-font-specification:'Yu Gothic Bold';text-align:center;letter-spacing:0.461331px;word-spacing:-3.31986px;writing-mode:lr-tb;direction:ltr;text-anchor:middle;opacity:0.888683;fill:#000000;fill-opacity:1;stroke:none;stroke-width:3.2;stroke-linecap:round;stroke-linejoin:round;stroke-dasharray:none;stroke-dashoffset:0;stroke-opacity:1"
       d="m 546.75485,1241.0923 c -1.9604,0 -3.55674,0.6336 -4.78957,1.9001 -1.45513,1.5023 -2.18402,3.6511 -2.18402,6.4468 0,2.432 0.56287,4.3796 1.68791,5.8414 1.25977,1.6371 3.02213,2.4544 5.28568,2.4544 3.30774,0 5.37209,-1.5934 6.19397,-4.7799 l -2.63724,-0.8079 c -0.44463,2.2905 -1.62298,3.4361 -3.53622,3.4361 -1.12504,0 -2.04179,-0.4512 -2.74915,-1.354 -0.85556,-1.0981 -1.28318,-2.7054 -1.28318,-4.8208 0,-1.8593 0.33016,-3.3277 0.99036,-4.4056 0.7141,-1.1722 1.72831,-1.7569 3.04197,-1.7569 1.85261,0 2.97649,1.1317 3.37396,3.3952 l 2.70811,-0.6586 c -0.30989,-1.4349 -0.92982,-2.5715 -1.8595,-3.4136 -1.09135,-0.9835 -2.505,-1.4767 -4.24308,-1.4767 z m 46.59378,0 c -1.9604,0 -3.55674,0.6336 -4.78956,1.9001 -1.45514,1.5023 -2.18216,3.6511 -2.18216,6.4468 0,2.432 0.56287,4.3796 1.68791,5.8414 1.25977,1.6371 3.02026,2.4544 5.28381,2.4544 3.30774,0 5.37209,-1.5934 6.19398,-4.7799 l -2.63725,-0.8079 c -0.44462,2.2905 -1.62298,3.4361 -3.53621,3.4361 -1.12504,0 -2.04179,-0.4512 -2.74915,-1.354 -0.85557,-1.0981 -1.28319,-2.7054 -1.28319,-4.8208 0,-1.8593 0.33017,-3.3277 0.99037,-4.4056 0.71409,-1.1722 1.7283,-1.7569 3.04197,-1.7569 1.8526,0 2.97835,1.1317 3.37582,3.3952 l 2.70811,-0.6586 c -0.30989,-1.4349 -0.92982,-2.5715 -1.8595,-3.4136 -1.09135,-0.9835 -2.50687,-1.4767 -4.24495,-1.4767 z m -33.88503,0.2925 -4.92199,16.0577 h 2.64844 l 1.3839,-4.7185 h 4.93131 l 1.36525,4.7185 h 2.91887 l -4.94996,-16.0577 z m 11.1831,0 v 16.0577 h 2.56637 v -7.7803 c 0,-2.0884 -0.0474,-4.022 -0.14175,-5.8005 h 0.2835 c 0.70736,1.7515 1.47477,3.5203 2.30339,5.3055 l 3.89059,8.2753 h 3.41498 v -16.0577 h -2.56636 v 6.7413 c 0,1.7381 0.0686,3.6976 0.20329,5.8803 h -0.28349 c -0.59957,-1.8526 -1.30992,-3.6871 -2.13181,-5.506 l -3.33479,-7.1156 z m 31.93415,0 v 16.0577 h 10.76345 v -2.213 h -7.97327 v -5.1726 h 5.90115 v -2.213 h -5.90115 v -4.2461 h 7.81101 v -2.213 z m 13.8707,0 v 16.0577 h 10.34941 v -2.2539 h -7.52939 v -13.8038 z m -55.51266,2.0617 h 0.18091 c 0.51199,2.1759 0.82994,3.4934 0.9512,3.9515 l 0.94001,3.2541 h -3.93162 l 0.86913,-3.2746 c 0.31663,-1.1183 0.64679,-2.4287 0.99037,-3.931 z"
       transform="scale(1.0471991,0.95492824)" />
    <text
       xml:space="preserve"
       style="font-style:normal;font-variant:normal;font-weight:bold;font-stretch:normal;font-size:48px;font-family:'Yu Gothic';-inkscape-font-specification:'Yu Gothic Bold';text-align:center;letter-spacing:1.07px;word-spacing:-7.7px;writing-mode:lr-tb;direction:ltr;text-anchor:middle;opacity:0.888683;fill:#000000;fill-opacity:1;stroke:none;stroke-width:3.2;stroke-linecap:round;stroke-linejoin:round;stroke-dasharray:none;stroke-dashoffset:0;stroke-opacity:1"
       x="127.2174"
       y="1262.2734"
       id="text125"><tspan
         sodipodi:role="line"
         id="tspan125"
         x="127.7524"
         y="1262.2734"
         style="font-style:normal;font-variant:normal;font-weight:normal;font-stretch:normal;font-family:Redensek;-inkscape-font-specification:Redensek;stroke:none">1.300ms</tspan></text>
    <path
       style="opacity:0.818182;fill:none;fill-opacity:1;stroke:#ffffff;stroke-width:2.5;stroke-linecap:round;stroke-linejoin:round;stroke-dasharray:none;stroke-dashoffset:0;stroke-opacity:1"
       d="M 661.58908,1176.2676 H 558.77492 v 30.997"
       id="path125" />
    <path
       style="opacity:1;fill:none;fill-opacity:1;stroke:#c1c1c1;stroke-width:2.5;stroke-linecap:round;stroke-linejoin:round;stroke-dasharray:none;stroke-dashoffset:0;stroke-opacity:1"
       d="m 634.73952,928.29115 v -36.67257 h 45.5165"
       id="path126" />
    <path
       style="opacity:0.332096;fill:#ffffff;fill-opacity:1;stroke:#ffffff;stroke-width:3.2;stroke-linecap:round;stroke-linejoin:round;stroke-dasharray:none;stroke-dashoffset:0;stroke-opacity:1"
       d="M 34.809535,935.3632 H 684.81888"
       id="path127" />
    <rect
       style="opacity:1;fill:none;fill-opacity:1;stroke:#c1c1c1;stroke-width:2.5;stroke-linecap:round;stroke-linejoin:round;stroke-dasharray:none;stroke-dashoffset:0;stroke-opacity:1"
       id="rect127"
       width="696.77875"
       height="415.62241"
       x="10.651028"
       y="871.09943"
       rx="0.35443252"
       ry="0.012388388" />
  </g>
</svg>
