<?xml version="1.0" encoding="UTF-8" standalone="no"?>
<!-- Created with Inkscape (http://www.inkscape.org/) -->

<svg
   width="906.21063"
   height="510.04788"
   viewBox="0 0 906.21063 510.04788"
   version="1.1"
   id="svg1"
   inkscape:version="1.4.2 (f4327f4, 2025-05-13)"
   sodipodi:docname="logo-origiinal-scrap-zone.svg"
   xmlns:inkscape="http://www.inkscape.org/namespaces/inkscape"
   xmlns:sodipodi="http://sodipodi.sourceforge.net/DTD/sodipodi-0.dtd"
   xmlns="http://www.w3.org/2000/svg"
   xmlns:svg="http://www.w3.org/2000/svg">
  <sodipodi:namedview
     id="namedview1"
     pagecolor="#ffffff"
     bordercolor="#000000"
     borderopacity="0.25"
     inkscape:showpageshadow="2"
     inkscape:pageopacity="0.0"
     inkscape:pagecheckerboard="0"
     inkscape:deskcolor="#d1d1d1"
     inkscape:document-units="px"
     inkscape:zoom="1.0122103"
     inkscape:cx="357.13922"
     inkscape:cy="251.42996"
     inkscape:window-width="1920"
     inkscape:window-height="991"
     inkscape:window-x="-9"
     inkscape:window-y="-9"
     inkscape:window-maximized="1"
     inkscape:current-layer="layer1" />
  <defs
     id="defs1">
    <inkscape:path-effect
       effect="spiro"
       id="path-effect3"
       is_visible="true"
       lpeversion="1" />
    <inkscape:path-effect
       effect="spiro"
       id="path-effect1"
       is_visible="true"
       lpeversion="1" />
    <inkscape:path-effect
       effect="spiro"
       id="path-effect193"
       is_visible="true"
       lpeversion="1" />
    <filter
       inkscape:collect="always"
       style="color-interpolation-filters:sRGB"
       id="filter206"
       x="-0.010506568"
       y="-0.032056084"
       width="1.0210388"
       height="1.0641082">
      <feGaussianBlur
         inkscape:collect="always"
         stdDeviation="1.1440692"
         id="feGaussianBlur206" />
    </filter>
    <filter
       inkscape:collect="always"
       style="color-interpolation-filters:sRGB"
       id="filter1"
       x="-0.072243457"
       y="-0.077511552"
       width="1.1444869"
       height="1.1550109">
      <feGaussianBlur
         inkscape:collect="always"
         stdDeviation="3.8176811"
         id="feGaussianBlur1" />
    </filter>
    <filter
       inkscape:collect="always"
       style="color-interpolation-filters:sRGB"
       id="filter3"
       x="-0.015608566"
       y="-0.017354805"
       width="1.0312171"
       height="1.0347033">
      <feGaussianBlur
         inkscape:collect="always"
         stdDeviation="0.44842122"
         id="feGaussianBlur3" />
    </filter>
  </defs>
  <g
     inkscape:label="Camada 1"
     inkscape:groupmode="layer"
     id="layer1"
     transform="translate(-10.731119,-270.55857)">
    <path
       style="opacity:0.835735;mix-blend-mode:normal;fill:none;stroke:#15f1de;stroke-width:6.845;stroke-linecap:round;stroke-linejoin:round;stroke-dasharray:none;stroke-opacity:1;paint-order:stroke fill markers;filter:url(#filter1)"
       d="m 365.12328,424.82405 c 21.47738,-1.99001 43.68353,6.60383 58.22592,22.53358 11.57868,12.6833 18.12076,29.21647 22.11704,45.91862 4.26236,17.8142 6.1294,36.81336 16.01225,52.23551 5.22478,8.15325 12.46267,14.86436 20.34711,20.48659 16.81103,11.98759 36.91602,19.30588 57.4994,20.92999"
       id="path2"
       inkscape:path-effect="#path-effect3"
       inkscape:original-d="m 365.12328,424.82405 c 24.03769,5.90546 34.26805,15.35695 58.22592,22.53358 23.95787,7.17664 12.59691,30.44624 22.11704,45.91862 9.52013,15.47238 12.10571,35.17012 16.01225,52.23551 3.90655,17.06539 13.09476,12.68866 20.34711,20.48659 7.25234,7.79794 38.64208,14.21472 57.4994,20.92999"
       sodipodi:nodetypes="cssssc"
       transform="translate(3.4928848,4.191461)" />
    <path
       style="opacity:1;fill:none;stroke:#ffffff;stroke-width:3.7;stroke-linecap:round;stroke-linejoin:round;stroke-dasharray:none;stroke-opacity:0.973615;paint-order:stroke fill markers;filter:url(#filter3)"
       d="m 365.12328,424.82405 c 21.47666,-1.97848 43.67631,6.61284 58.22592,22.53358 11.5863,12.67818 18.1442,29.20949 22.11704,45.91862 4.23801,17.82439 6.0444,36.86307 16.01225,52.23551 5.26522,8.12003 12.55526,14.74685 20.34711,20.48659 20.59514,15.17108 45.31887,24.67917 70.77236,27.21718"
       id="path1"
       inkscape:path-effect="#path-effect1"
       inkscape:original-d="m 365.12328,424.82405 c 24.03769,5.90546 34.26805,15.35695 58.22592,22.53358 23.95787,7.17664 12.59691,30.44624 22.11704,45.91862 9.52013,15.47238 12.10571,35.17012 16.01225,52.23551 3.90655,17.06539 13.09476,12.68866 20.34711,20.48659 7.25234,7.79794 51.91504,20.50191 70.77236,27.21718"
       sodipodi:nodetypes="cssssc" />
    <g
       id="g192"
       style="stroke:#ff09cb;stroke-width:9.3;stroke-dasharray:none;stroke-opacity:1;filter:url(#filter206)"
       transform="translate(-220.5383,404.64909)">
      <path
         id="rect180"
         style="opacity:1;fill:none;fill-opacity:0.963197;stroke:#ff09cb;stroke-width:9.3;stroke-linecap:round;stroke-dasharray:none;stroke-dashoffset:0;stroke-opacity:1;paint-order:markers stroke fill"
         d="m 365.86301,60.121975 c -13.08312,1.26827 -23.33842,15.672653 -20.70951,33.529036 2.27015,15.419929 13.97375,21.509209 21.14968,22.079649 l 33.62857,2.67325 c 7.20717,0.57292 11.04466,2.7868 9.71646,8.5752 -1.32818,5.78839 -4.19015,9.10337 -5.39059,9.16215 -2.89733,0.14168 -32.37172,-3.38706 -43.80383,-3.8553 -7.044,-0.28856 -13.23057,0.44254 -13.08727,8.59263 0.0888,5.04847 5.29666,9.34724 12.34066,9.63575 l 49.18005,2.01435 c 10.2446,0.41962 16.2044,-11.98163 16.69719,-24.01322 0.64555,-15.76019 -3.45009,-26.88971 -13.05495,-27.88364 l -41.5232,-4.296868 c -9.2597,2.409663 -8.6436,-18.998458 0.5744,-18.528538 l 44.00199,2.243162 c 7.04088,0.35893 7.07113,0.846883 9.54914,-7.36877 1.45257,-4.815891 -6.50738,-9.231633 -10.72667,-9.818411 -18.70857,-2.601811 -31.96314,-4.347584 -48.54212,-2.74043 z"
         sodipodi:nodetypes="sssszssssssscsssss" />
      <path
         id="path183"
         style="opacity:1;fill:none;fill-opacity:0.963197;stroke:#ff09cb;stroke-width:9.3;stroke-linecap:round;stroke-linejoin:bevel;stroke-dasharray:none;stroke-dashoffset:0;stroke-opacity:1;paint-order:stroke fill markers"
         d="m 467.54792,76.482951 c -18.9301,-6.94e-4 -34.27616,16.776555 -34.27563,37.472199 5.3e-4,20.69482 15.34628,37.47078 34.27563,37.47009 15.59796,-4.9e-4 27.22846,-7.51496 31.16437,-24.01586 -4.94289,-5.91447 -9.88578,-3.63359 -14.82867,0 -3.34728,7.75868 -8.48913,8.70906 -16.3357,8.70941 -11.19718,9.8e-4 -20.2749,-9.92214 -20.27542,-22.16364 -5.5e-4,-12.24232 9.07749,-22.166725 20.27542,-22.165742 8.7977,4.9e-5 16.59133,6.203324 19.29362,15.356592 6.57921,3.99538 10.613,2.26357 14.41045,0 -3.00288,-17.768298 -17.1765,-30.663077 -33.70407,-30.663049 z"
         sodipodi:nodetypes="csscccscccc" />
      <path
         style="opacity:1;fill:none;fill-opacity:0.963197;stroke:#ff09cb;stroke-width:9.3;stroke-linejoin:round;stroke-dasharray:none;stroke-dashoffset:0;stroke-opacity:1;paint-order:markers stroke fill"
         d="m 529.84657,86.21244 24.88696,-12.59389 c 0,0 11.83639,0.975637 13.55793,5.544711 1.30529,3.464321 -1.25068,9.792186 -4.94971,9.942239 -7.02641,0.28503 -17.82224,0.835481 -24.26442,6.136454 -3.53288,2.907048 -5.86434,12.409646 -5.86434,12.409646 0,0 -2.15717,23.9775 -1.16058,34.79783 0.29263,3.17716 -3.65482,5.97135 -7.66283,5.73591 -4.00801,-0.23544 -10.38924,-3.82112 -10.32986,-8.22145 0.28426,-21.06576 0.0888,-45.314318 1.29124,-60.418236 0.28937,-3.634862 4.73469,-6.065084 8.1778,-7.265481 2.1709,-0.756858 5.34197,-1.320513 6.88656,0.382393 3.03711,3.3484 -0.56875,13.549874 -0.56875,13.549874 z"
         id="path184"
         sodipodi:nodetypes="ccasacszsssac" />
      <path
         id="path185"
         style="opacity:1;fill:none;fill-opacity:0.963197;stroke:#ff09cb;stroke-width:9.3;stroke-dasharray:none;stroke-dashoffset:0;stroke-opacity:1;paint-order:markers stroke fill"
         d="m 603.64595,72.478591 c -20.69693,0.0011 -35.47454,16.937887 -35.47461,37.830079 7e-5,20.89219 14.77768,37.82894 35.47461,37.83008 4.35297,5.3e-4 8.7206,-3.12256 12.81641,-4.99805 -3.42993,-5.27236 -6.14621,-10.12077 -10.97461,-13.18359 -4.18372,-2.65388 -9.78556,-0.67606 -14.38653,-3.7346 -4.60097,-3.05854 -8.80097,-8.11703 -8.80097,-15.2654 0,-12.012196 9.31807,-21.750003 20.8125,-21.750003 11.49443,0 18.8125,9.737807 18.8125,21.750003 0,5.54236 -2.60413,11.84569 -3.55664,19.10156 -0.34171,2.60304 -1.60888,8.64366 -0.40625,12.94141 2.30482,1.84465 5.03927,5.22656 8.04687,5.22656 8.03061,0 14.4961,-6.46353 14.4961,-14.49414 v -16.57617 c 0.0647,-6.68501 1.28648,-13.74291 -1.71485,-19.986332 C 633.34534,82.329194 619.324,72.478259 603.64595,72.478591 Z"
         sodipodi:nodetypes="ccccazsssscssccc" />
      <path
         id="rect186"
         style="opacity:1;fill:none;fill-opacity:0.963197;stroke:#ff09cb;stroke-width:9.3;stroke-dasharray:none;stroke-dashoffset:0;stroke-opacity:1;paint-order:markers stroke fill"
         d="m 679.83594,71.419922 c -7.79203,0.236852 -15.73601,2.162404 -21.60742,6.626953 -6.51922,4.957129 -11.58008,12.835651 -11.58008,21.669922 v 63.234373 c 0,8.83427 6.15019,15.94727 13.78906,15.94727 7.63887,0 9.78906,-7.113 9.78906,-15.94727 V 149.28516 C 670.08147,148.99226 670,148.66269 670,148.3125 v -25.75 c 0,-0.35019 0.0815,-0.67976 0.22656,-0.97266 V 98.425781 c 0,-5.072474 10.3947,-9.404568 15.26758,-9.404297 11.19801,-9.65e-4 20.27608,7.9236 20.27539,20.166016 -3e-4,12.24165 -7.08274,22.48733 -18.27539,22.16406 -12.99019,-0.37519 -13.11914,13.73242 -13.11914,13.73242 4.33124,1.04143 9.78435,1.57409 13.11914,1.57422 18.92947,5.5e-4 34.27517,-16.77574 34.27539,-37.4707 7.6e-4,-20.69572 -15.9365,-35.516008 -34.27539,-37.472656 -2.48121,-0.264731 -5.06086,-0.373873 -7.6582,-0.294922 z"
         sodipodi:nodetypes="sssssscsscsccscccss" />
      <path
         id="rect187"
         style="opacity:1;fill:none;fill-opacity:0.963197;stroke:#ff09cb;stroke-width:9.3;stroke-linecap:round;stroke-dasharray:none;stroke-dashoffset:0;stroke-opacity:1;paint-order:markers stroke fill"
         d="m 733.85214,61.091698 c -8.75079,0.530525 -15.5813,4.517737 -15.31316,8.940578 l 0.24268,4.002879 c 0.26814,4.422841 7.53043,7.557753 16.28122,7.027229 L 770.58506,78.90882 732.6444,119.2936 c -10.50967,13.07218 -10.89405,16.1838 -10.43004,23.83743 0.26814,4.42284 7.12596,7.58019 15.3756,7.08005 l 50.85511,-3.08314 c 8.24965,-0.50014 14.67371,-4.46271 14.40557,-8.88555 l -0.24268,-4.00288 c -0.26814,-4.42284 -7.12398,-7.58239 -15.37363,-7.08225 l -37.26446,2.25919 42.88463,-42.54185 c 0,0 11.51999,-11.028137 11.22081,-22.02804 -0.12047,-4.429322 -7.53029,-7.555673 -16.28109,-7.025148 z"
         sodipodi:nodetypes="ssssccssssssccsss" />
      <path
         id="path189"
         style="opacity:1;fill:none;fill-opacity:0.963197;stroke:#ff09cb;stroke-width:9.3;stroke-dasharray:none;stroke-dashoffset:0;stroke-opacity:1;paint-order:markers stroke fill"
         d="m 845.56828,69.575839 c -21.95416,2e-6 -39.75152,18.093191 -39.75152,40.412271 0,22.31908 17.79736,40.41227 39.75152,40.41227 21.95416,0 39.75153,-18.09319 39.75153,-40.41227 0,-22.319084 -17.79737,-40.412274 -39.75153,-40.412271 z m 0,19.438819 c 12.48055,-6e-6 20.59813,8.285456 20.59848,20.973452 -3.5e-4,12.688 -8.11793,20.97347 -20.59848,20.97346 -12.48054,0 -20.59812,-8.28546 -20.59847,-20.97346 3.5e-4,-12.687992 8.11793,-20.973453 20.59847,-20.973452 z"
         sodipodi:nodetypes="sssssscscs" />
      <path
         id="path190"
         style="opacity:1;fill:none;fill-opacity:0.963197;stroke:#ff09cb;stroke-width:9.3;stroke-dasharray:none;stroke-dashoffset:0;stroke-opacity:1;paint-order:markers stroke fill"
         d="m 926.80128,70.314284 c -22.69003,-2.91e-4 -30.58303,19.995815 -32.17383,42.495106 -0.58121,8.22027 0,24.72237 0,24.72237 0,5.36321 3.8244,9.68052 8.57422,9.68052 4.74981,0 8.57422,-4.31731 8.57422,-9.68052 0,-5.66634 -0.88457,-11.93625 -0.88454,-19.41306 5e-5,-16.84188 6.34784,-29.433989 16.79469,-29.433186 23.26669,0.0021 12.92338,39.363096 15.96914,49.023026 1.29621,4.11107 4.79667,9.50374 9.54649,9.50374 4.74981,0 10.03143,-4.51907 8.57422,-9.68052 -4.98335,-17.65107 3.04023,-32.29584 -4.59961,-45.479198 -6.24279,-10.772604 -17.07913,-21.738699 -30.375,-21.738278 z"
         sodipodi:nodetypes="csssssssssac" />
      <path
         id="path191"
         style="opacity:1;fill:none;fill-opacity:0.963197;stroke:#ff09cb;stroke-width:9.3;stroke-dasharray:none;stroke-dashoffset:0;stroke-opacity:1;paint-order:markers stroke fill"
         d="m 1009.44,69.331283 c -22.24834,3e-6 -40.28415,18.03582 -40.28415,40.284127 0,22.2483 18.03582,40.28412 40.28415,40.28412 14.1308,-5.9e-4 27.2281,-7.40516 34.5143,-19.51263 0.8194,-7.65349 1.9108,-15.48634 -12.5342,-13.07178 0,0 -10.999,13.50738 -18.8582,14.40656 -8.0999,0.92672 -17.26501,-3.6519 -22.28704,-10.07422 -3.836,-4.90559 -4.99754,-12.36757 -3.36357,-18.37672 1.66851,-6.136198 6.94768,-11.803124 12.46421,-14.442132 5.5165,-2.639008 12.189,-2.86082 17.6046,-0.592285 3.6256,1.518726 7.9846,8.678142 7.9846,8.678142 l -27.73744,11.523145 c -1.12713,4.64011 -5.34271,9.14616 5.70854,10.26096 l 38.9685,-14.43995 c 0,0 6.8547,-4.286664 5.9789,-7.310401 -4.3134,-14.892716 -13.0125,-26.689525 -38.4432,-27.616748 z"
         sodipodi:nodetypes="cscccaaazaccccscc" />
      <path
         id="rect192"
         style="opacity:1;fill:none;fill-opacity:0.963197;stroke:#ff09cb;stroke-width:9.3;stroke-linecap:round;stroke-linejoin:round;stroke-dasharray:none;stroke-dashoffset:0;stroke-opacity:1;paint-order:stroke fill markers"
         d="m 793.53651,175.72613 c -6.73172,0 -12.15079,2.91201 -12.15079,6.52948 v 20.9068 c 0,3.61748 5.41907,6.52948 12.15079,6.52948 h 58.77501 l 19.24307,23.50642 -1.05895,-23.50642 c -0.34582,-7.67669 12.15079,-4.72076 12.15079,-6.52948 0,-1.80874 0,-19.09806 0,-20.9068 0,-1.80871 -5.41907,-6.52948 -12.15079,-6.52948 z"
         sodipodi:nodetypes="ssssccszzss" />
      <path
         id="path192"
         style="opacity:1;fill:none;fill-opacity:0.963197;stroke:#ff09cb;stroke-width:9.3;stroke-linecap:round;stroke-linejoin:round;stroke-dasharray:none;stroke-dashoffset:0;stroke-opacity:1;paint-order:stroke fill markers"
         d="m 574.2179,2.4849693 c 6.73172,0 12.15079,2.91201 12.15079,6.52948 V 29.921249 c 0,3.61748 -5.41907,6.52948 -12.15079,6.52948 h -58.77501 l -19.24307,23.50642 1.05895,-23.50642 c 0.34582,-7.67669 -12.15079,-4.72076 -12.15079,-6.52948 0,-1.80874 0,-19.09806 0,-20.9067997 0,-1.80871 5.41907,-6.52948 12.15079,-6.52948 z"
         sodipodi:nodetypes="ssssccszzss" />
    </g>
    <path
       id="path196"
       style="fill:none;fill-opacity:0.963197;stroke:#ffffff;stroke-width:2.438;stroke-linecap:round;stroke-dasharray:none;stroke-dashoffset:0;stroke-opacity:1;paint-order:markers stroke fill"
       d="m 144.6176,465.47818 c -13.08312,1.26826 -23.33842,15.67265 -20.70951,33.52903 2.27015,15.41993 13.97375,21.50921 21.14968,22.07965 l 33.62857,2.67325 c 7.20717,0.57292 11.04466,2.7868 9.71646,8.5752 -1.32818,5.78839 -4.19015,9.10337 -5.39059,9.16215 -2.89733,0.14168 -32.37172,-3.38706 -43.80383,-3.8553 -7.044,-0.28856 -13.23057,0.44254 -13.08727,8.59263 0.0888,5.04847 5.29666,9.34724 12.34066,9.63575 l 49.18005,2.01435 c 10.2446,0.41962 16.2044,-11.98163 16.69719,-24.01322 0.64555,-15.76019 -3.45009,-26.88971 -13.05495,-27.88364 l -41.5232,-4.29687 c -9.2597,2.40966 -8.6436,-18.99846 0.5744,-18.52854 l 44.00199,2.24317 c 7.04088,0.35893 7.07113,0.84688 9.54914,-7.36877 1.45257,-4.8159 -6.50738,-9.23164 -10.72667,-9.81842 -18.70857,-2.60181 -31.96314,-4.34758 -48.54212,-2.74042 z"
       sodipodi:nodetypes="sssszssssssscsssss" />
    <path
       id="path197"
       style="fill:none;fill-opacity:0.963197;stroke:#ffffff;stroke-width:1.905;stroke-linecap:round;stroke-linejoin:bevel;stroke-dasharray:none;stroke-dashoffset:0;stroke-opacity:1;paint-order:stroke fill markers"
       d="m 246.30251,481.83915 c -18.9301,-6.9e-4 -34.27616,16.77656 -34.27563,37.4722 5.3e-4,20.69482 15.34628,37.47078 34.27563,37.47009 15.59796,-4.9e-4 27.22846,-7.51496 31.16437,-24.01586 -4.94289,-5.91447 -9.88578,-3.63359 -14.82867,0 -3.34728,7.75868 -8.48913,8.70906 -16.3357,8.70941 -11.19718,9.8e-4 -20.2749,-9.92214 -20.27542,-22.16364 -5.5e-4,-12.24232 9.07749,-22.16673 20.27542,-22.16574 8.7977,5e-5 16.59133,6.20332 19.29362,15.35659 6.57921,3.99538 10.613,2.26357 14.41045,0 -3.00288,-17.7683 -17.1765,-30.66308 -33.70407,-30.66305 z"
       sodipodi:nodetypes="csscccscccc" />
    <path
       style="fill:none;fill-opacity:0.963197;stroke:#ffffff;stroke-width:1.939;stroke-linejoin:round;stroke-dasharray:none;stroke-dashoffset:0;stroke-opacity:1;paint-order:markers stroke fill"
       d="m 308.60116,491.56864 24.88696,-12.59389 c 0,0 11.83639,0.97564 13.55793,5.54471 1.30529,3.46432 -1.25068,9.79219 -4.94971,9.94224 -7.02641,0.28503 -17.82224,0.83548 -24.26442,6.13645 -3.53288,2.90705 -5.86434,12.40965 -5.86434,12.40965 0,0 -2.15717,23.9775 -1.16058,34.79783 0.29263,3.17716 -3.65482,5.97135 -7.66283,5.73591 -4.00801,-0.23544 -10.38924,-3.82112 -10.32986,-8.22145 0.28426,-21.06576 0.0888,-45.31432 1.29124,-60.41824 0.28937,-3.63486 4.73469,-6.06508 8.1778,-7.26548 2.1709,-0.75685 5.34197,-1.32051 6.88656,0.3824 3.03711,3.3484 -0.56875,13.54987 -0.56875,13.54987 z"
       id="path198"
       sodipodi:nodetypes="ccasacszsssac" />
    <path
       id="path199"
       style="fill:none;fill-opacity:0.963197;stroke:#ffffff;stroke-width:2.236;stroke-dasharray:none;stroke-dashoffset:0;stroke-opacity:1;paint-order:markers stroke fill"
       d="m 382.40054,477.83479 c -20.69693,10e-4 -35.47454,16.93789 -35.47461,37.83008 7e-5,20.89219 14.77768,37.82894 35.47461,37.83008 4.35297,5.3e-4 8.7206,-3.12256 12.81641,-4.99805 -3.42993,-5.27236 -6.14621,-10.12077 -10.97461,-13.18359 -4.18372,-2.65388 -9.78556,-0.67606 -14.38653,-3.7346 -4.60097,-3.05854 -8.80097,-8.11703 -8.80097,-15.2654 0,-12.0122 9.31807,-21.75 20.8125,-21.75 11.49443,0 18.8125,9.7378 18.8125,21.75 0,5.54236 -2.60413,11.84569 -3.55664,19.10156 -0.34171,2.60304 -1.60888,8.64366 -0.40625,12.94141 2.30482,1.84465 5.03927,5.22656 8.04687,5.22656 8.03061,0 14.4961,-6.46353 14.4961,-14.49414 v -16.57617 c 0.0647,-6.68501 1.28648,-13.74291 -1.71485,-19.98633 -5.44514,-14.84081 -19.46648,-24.69174 -35.14453,-24.69141 z"
       sodipodi:nodetypes="ccccazsssscssccc" />
    <path
       id="path200"
       style="fill:none;fill-opacity:0.963197;stroke:#ffffff;stroke-width:2.228;stroke-dasharray:none;stroke-dashoffset:0;stroke-opacity:1;paint-order:markers stroke fill"
       d="m 458.59053,475.90881 c -7.79203,0.23685 -15.73601,2.16241 -21.60742,6.62695 -6.51922,4.95713 -11.58008,12.83566 -11.58008,21.66993 v 63.23437 c 0,8.83427 6.15019,15.94727 13.78906,15.94727 7.63887,0 9.78906,-7.113 9.78906,-15.94727 v -13.66601 c -0.14509,-0.2929 -0.22656,-0.62247 -0.22656,-0.97266 v -25.75 c 0,-0.35019 0.0815,-0.67976 0.22656,-0.97266 v -23.16406 c 0,-5.07247 10.3947,-9.40457 15.26758,-9.4043 11.19801,-9.6e-4 20.27608,7.9236 20.27539,20.16602 -3e-4,12.24165 -7.08274,22.48733 -18.27539,22.16406 -12.99019,-0.37519 -13.11914,13.73242 -13.11914,13.73242 4.33124,1.04143 9.78435,1.57409 13.11914,1.57422 18.92947,5.5e-4 34.27517,-16.77574 34.27539,-37.4707 7.6e-4,-20.69572 -15.9365,-35.51601 -34.27539,-37.47266 -2.48121,-0.26473 -5.06086,-0.37387 -7.6582,-0.29492 z"
       sodipodi:nodetypes="sssssscsscsccscccss" />
    <path
       id="path201"
       style="fill:none;fill-opacity:0.963197;stroke:#ffffff;stroke-width:2.184;stroke-linecap:round;stroke-dasharray:none;stroke-dashoffset:0;stroke-opacity:1;paint-order:markers stroke fill"
       d="m 512.60673,466.4479 c -8.75079,0.53052 -15.5813,4.51774 -15.31316,8.94058 l 0.24268,4.00288 c 0.26814,4.42284 7.53043,7.55775 16.28122,7.02722 l 35.52218,-2.15356 -37.94066,40.38478 c -10.50967,13.07218 -10.89405,16.1838 -10.43004,23.83743 0.26814,4.42284 7.12596,7.58019 15.3756,7.08005 l 50.85511,-3.08314 c 8.24965,-0.50014 14.67371,-4.46271 14.40557,-8.88555 l -0.24268,-4.00288 c -0.26814,-4.42284 -7.12398,-7.58239 -15.37363,-7.08225 l -37.26446,2.25919 42.88463,-42.54185 c 0,0 11.51999,-11.02814 11.22081,-22.02804 -0.12047,-4.42932 -7.53029,-7.55567 -16.28109,-7.02515 z"
       sodipodi:nodetypes="ssssccssssssccsss" />
    <path
       id="path202"
       style="fill:none;fill-opacity:0.963197;stroke:#ffffff;stroke-width:1.984;stroke-dasharray:none;stroke-dashoffset:0;stroke-opacity:1;paint-order:markers stroke fill"
       d="m 624.32287,474.93204 c -21.95416,0 -39.75152,18.09319 -39.75152,40.41227 0,22.31908 17.79736,40.41227 39.75152,40.41227 21.95416,0 39.75153,-18.09319 39.75153,-40.41227 0,-22.31908 -17.79737,-40.41227 -39.75153,-40.41227 z m 0,19.43882 c 12.48055,-10e-6 20.59813,8.28545 20.59848,20.97345 -3.5e-4,12.688 -8.11793,20.97347 -20.59848,20.97346 -12.48054,0 -20.59812,-8.28546 -20.59847,-20.97346 3.5e-4,-12.68799 8.11793,-20.97345 20.59847,-20.97345 z"
       sodipodi:nodetypes="sssssscscs" />
    <path
       id="path203"
       style="fill:none;fill-opacity:0.963197;stroke:#ffffff;stroke-width:1.917;stroke-dasharray:none;stroke-dashoffset:0;stroke-opacity:1;paint-order:markers stroke fill"
       d="m 705.55587,475.67048 c -22.69003,-2.9e-4 -30.58303,19.99582 -32.17383,42.49511 -0.58121,8.22027 0,24.72237 0,24.72237 0,5.36321 3.8244,9.68052 8.57422,9.68052 4.74981,0 8.57422,-4.31731 8.57422,-9.68052 0,-5.66634 -0.88457,-11.93625 -0.88454,-19.41306 5e-5,-16.84188 6.34784,-29.43399 16.79469,-29.43319 23.26669,0.002 12.92338,39.3631 15.96914,49.02303 1.29621,4.11107 4.79667,9.50374 9.54649,9.50374 4.74981,0 10.03143,-4.51907 8.57422,-9.68052 -4.98335,-17.65107 3.04023,-32.29584 -4.59961,-45.4792 -6.24279,-10.7726 -17.07913,-21.7387 -30.375,-21.73828 z"
       sodipodi:nodetypes="csssssssssac" />
    <path
       id="path204"
       style="fill:none;fill-opacity:0.963197;stroke:#ffffff;stroke-width:1.845;stroke-linecap:round;stroke-dasharray:none;stroke-dashoffset:0;stroke-opacity:1;paint-order:markers stroke fill"
       d="m 788.19459,474.68748 c -22.24834,1e-5 -40.28415,18.03582 -40.28415,40.28413 0,22.2483 18.03582,40.28412 40.28415,40.28412 14.1308,-5.9e-4 27.2281,-7.40516 34.5143,-19.51263 0.8194,-7.65349 1.9108,-15.48634 -12.5342,-13.07178 0,0 -10.999,13.50738 -18.8582,14.40656 -8.0999,0.92672 -17.26501,-3.6519 -22.28704,-10.07422 -3.836,-4.90559 -4.99754,-12.36757 -3.36357,-18.37672 1.66851,-6.1362 6.94768,-11.80312 12.46421,-14.44213 5.5165,-2.63901 12.189,-2.86082 17.6046,-0.59229 3.6256,1.51873 7.9846,8.67814 7.9846,8.67814 l -27.73744,11.52315 c -1.12713,4.64011 -5.34271,9.14616 5.70854,10.26096 l 38.9685,-14.43995 c 0,0 6.8547,-4.28666 5.9789,-7.3104 -4.3134,-14.89272 -13.0125,-26.68953 -38.4432,-27.61675 z"
       sodipodi:nodetypes="cscccaaazaccccscc" />
    <path
       id="path205"
       style="fill:none;fill-opacity:0.963197;stroke:#ffffff;stroke-width:1.87;stroke-linecap:round;stroke-linejoin:round;stroke-dasharray:none;stroke-dashoffset:0;stroke-opacity:1;paint-order:stroke fill markers"
       d="m 572.2911,581.08233 c -6.73172,0 -12.15079,2.91201 -12.15079,6.52948 v 20.9068 c 0,3.61748 5.41907,6.52948 12.15079,6.52948 h 58.77501 l 19.24307,23.50642 -1.05895,-23.50642 c -0.22585,-5.0134 14.25016,-5.32115 14.25016,-13.93901 0,-8.61786 -2.09937,-13.49727 -2.09937,-13.49727 0,-1.80871 -5.41907,-6.52948 -12.15079,-6.52948 z"
       sodipodi:nodetypes="ssssccszzss" />
    <path
       id="path206"
       style="fill:none;fill-opacity:0.963197;stroke:#ffffff;stroke-width:1.77;stroke-linecap:round;stroke-linejoin:round;stroke-dasharray:none;stroke-dashoffset:0;stroke-opacity:1;paint-order:stroke fill markers"
       d="m 352.97249,407.84117 c 6.73172,0 12.15079,2.91201 12.15079,6.52948 v 20.9068 c 0,3.61748 -5.41907,6.52948 -12.15079,6.52948 h -58.77501 l -19.24307,23.50642 1.05895,-23.50642 c 0.34582,-7.67669 -12.15079,-4.72076 -12.15079,-6.52948 0,-1.80874 0,-19.09806 0,-20.9068 0,-1.80871 5.41907,-6.52948 12.15079,-6.52948 z"
       sodipodi:nodetypes="ssssccszzss" />
  </g>
</svg>
