<?xml version="1.0" encoding="UTF-8" standalone="no"?>
<!-- Created with Inkscape (http://www.inkscape.org/) -->

<svg
   width="508.45825"
   height="423.16306"
   viewBox="0 0 508.45825 423.16306"
   version="1.1"
   id="svg1"
   xml:space="preserve"
   inkscape:export-filename="player-de-musica.svg"
   inkscape:export-xdpi="96"
   inkscape:export-ydpi="96"
   inkscape:version="1.4.2 (f4327f4, 2025-05-13)"
   sodipodi:docname="player-de-musica.svg"
   inkscape:export-batch-path="C:\Users\-\Downloads\PLAYER DE MUSICA-  SCRAPZONE\icones"
   inkscape:export-batch-name="batch"
   xmlns:inkscape="http://www.inkscape.org/namespaces/inkscape"
   xmlns:sodipodi="http://sodipodi.sourceforge.net/DTD/sodipodi-0.dtd"
   xmlns:xlink="http://www.w3.org/1999/xlink"
   xmlns="http://www.w3.org/2000/svg"
   xmlns:svg="http://www.w3.org/2000/svg"><sodipodi:namedview
     id="namedview1"
     pagecolor="#ffffff"
     bordercolor="#000000"
     borderopacity="0.25"
     inkscape:showpageshadow="2"
     inkscape:pageopacity="0.0"
     inkscape:pagecheckerboard="0"
     inkscape:deskcolor="#d1d1d1"
     inkscape:document-units="px"
     showguides="true"
     inkscape:zoom="1.4142136"
     inkscape:cx="191.97949"
     inkscape:cy="220.26376"
     inkscape:window-width="1920"
     inkscape:window-height="991"
     inkscape:window-x="-9"
     inkscape:window-y="-9"
     inkscape:window-maximized="1"
     inkscape:current-layer="layer1" /><defs
     id="defs1"><linearGradient
       id="linearGradient90"
       inkscape:swatch="gradient"><stop
         style="stop-color:#8c24ee;stop-opacity:0.6129666;"
         offset="0"
         id="stop91" /><stop
         style="stop-color:#ffb3f7;stop-opacity:1;"
         offset="0.53102034"
         id="stop93" /><stop
         style="stop-color:#ff20e3;stop-opacity:1;"
         offset="1"
         id="stop92" /></linearGradient><linearGradient
       id="linearGradient47"
       inkscape:collect="always"><stop
         style="stop-color:#ffffff;stop-opacity:1;"
         offset="0"
         id="stop47" /><stop
         style="stop-color:#e6dfea;stop-opacity:0.28235294;"
         offset="0.53127992"
         id="stop49" /><stop
         style="stop-color:#e6dfea;stop-opacity:0.0369515;"
         offset="1"
         id="stop48" /></linearGradient><filter
       inkscape:collect="always"
       style="color-interpolation-filters:sRGB"
       id="filter21"
       x="-0.045641066"
       y="-0.047542778"
       width="1.0912821"
       height="1.0950856"><feGaussianBlur
         inkscape:collect="always"
         stdDeviation="0.096415268"
         id="feGaussianBlur21" /></filter><linearGradient
       inkscape:collect="always"
       xlink:href="#linearGradient47"
       id="linearGradient48"
       x1="386.95056"
       y1="230.76669"
       x2="852.93396"
       y2="574.42059"
       gradientUnits="userSpaceOnUse" /><linearGradient
       inkscape:collect="always"
       xlink:href="#linearGradient90"
       id="linearGradient93"
       x1="516.35107"
       y1="383.50177"
       x2="439.98358"
       y2="325.51901"
       gradientUnits="userSpaceOnUse"
       gradientTransform="translate(-0.35355339,-0.70710671)" /><filter
       inkscape:collect="always"
       style="color-interpolation-filters:sRGB"
       id="filter97"
       x="-0.047593272"
       y="-0.048413741"
       width="1.0951865"
       height="1.0968275"><feGaussianBlur
         inkscape:collect="always"
         stdDeviation="2.3402891"
         id="feGaussianBlur97" /></filter><filter
       inkscape:collect="always"
       style="color-interpolation-filters:sRGB"
       id="filter27"
       x="-0.036600685"
       y="-0.032950848"
       width="1.0732014"
       height="1.0659017"><feGaussianBlur
         inkscape:collect="always"
         stdDeviation="0.48442702"
         id="feGaussianBlur27" /></filter><filter
       inkscape:collect="always"
       style="color-interpolation-filters:sRGB"
       id="filter28"
       x="-0.25392"
       y="-0.25392"
       width="1.50784"
       height="1.50784"><feGaussianBlur
         inkscape:collect="always"
         stdDeviation="0.65902584"
         id="feGaussianBlur28" /></filter><filter
       inkscape:collect="always"
       style="color-interpolation-filters:sRGB"
       id="filter98"
       x="-0.36474092"
       y="-0.38865835"
       width="1.7294818"
       height="1.7773167"><feGaussianBlur
         inkscape:collect="always"
         stdDeviation="2.4696"
         id="feGaussianBlur98" /></filter></defs><g
     inkscape:label="Camada 1"
     inkscape:groupmode="layer"
     id="layer1"
     transform="translate(-403.21402,-228.64537)"><rect
       style="opacity:0.868275;fill:#415472;fill-opacity:1;stroke-width:2.5;stroke-linecap:round;stroke-linejoin:round"
       id="rect3"
       width="508.45825"
       height="423.16306"
       x="403.21402"
       y="228.64537"
       rx="22.089075"
       ry="34.388779"
       inkscape:label="WIDGET" /><ellipse
       style="opacity:0.534323;mix-blend-mode:normal;fill:#35e0fd;fill-opacity:0.846758;stroke:none;stroke-width:0.512627;stroke-linecap:round;stroke-linejoin:round;stroke-dasharray:none;stroke-opacity:1;filter:url(#filter98)"
       id="path97"
       cx="434.46402"
       cy="249.14537"
       rx="8.125"
       ry="7.625"
       transform="matrix(1.5605884,0,0,1.5605884,-243.43048,-137.043)" /><path
       id="rect2"
       style="display:inline;opacity:0.87013;fill:url(#linearGradient48);fill-opacity:1;stroke-width:2.5;stroke-linecap:round;stroke-linejoin:round"
       d="m 425.40267,228.66769 c -12.20624,0 -22.0337,15.35608 -22.0337,34.43167 v 354.83726 c 0,10.25946 2.84153,19.44414 7.36795,25.74162 -2.85687,-5.80602 -4.55091,-13.08933 -4.55091,-21.01234 V 267.83185 c 0,-19.07559 9.82551,-34.43487 22.03175,-34.43487 h 463.10121 c 5.64134,0 10.77419,3.2817 14.66381,8.69322 -4.02139,-8.17268 -10.34444,-13.42251 -17.48085,-13.42251 z" /><path
       style="opacity:0.721707;fill:#ffffff;fill-opacity:1;stroke:#cacaca;stroke-width:1.39999;stroke-linecap:round;stroke-linejoin:round;stroke-dasharray:none;stroke-opacity:0.836935"
       d="M 416.40172,272.28349 H 903.75363"
       id="path15" /><ellipse
       style="display:inline;opacity:1;mix-blend-mode:normal;fill:#6ab9ed;fill-opacity:1;stroke:none;stroke-width:1.46513;stroke-linecap:round;stroke-linejoin:round;stroke-dasharray:none;stroke-opacity:0.836935;filter:url(#filter97)"
       id="circle97"
       cx="479.92233"
       cy="343.12167"
       rx="59.007225"
       ry="58.007229"
       inkscape:label="glow animado"
       transform="matrix(0.9555446,0,0,0.9555446,21.33514,15.253612)" /><circle
       style="display:inline;opacity:1;fill:url(#linearGradient93);fill-opacity:1;stroke:#cacaca;stroke-width:1.4;stroke-linecap:round;stroke-linejoin:round;stroke-dasharray:none;stroke-opacity:0.836935"
       id="path16"
       cx="479.44748"
       cy="342.59653"
       r="54.007225"
       inkscape:label="CD-ron" /><path
       style="display:inline;opacity:0.721707;fill:#ffffff;fill-opacity:1;stroke:#cacaca;stroke-width:1.39999;stroke-linecap:round;stroke-linejoin:round;stroke-dasharray:none;stroke-opacity:0.836935"
       d="M 416.40172,590.28349 H 903.75363"
       id="path17" /><path
       style="opacity:0.721707;fill:#ffffff;fill-opacity:1;stroke:#cacaca;stroke-width:1.39999;stroke-linecap:round;stroke-linejoin:round;stroke-dasharray:none;stroke-opacity:0.836935"
       d="M 422.73913,640.28349 H 891.75937"
       id="path18" /><path
       style="opacity:0.721707;fill:#ffffff;fill-opacity:1;stroke:#9c9b9e;stroke-width:5.6;stroke-linecap:round;stroke-linejoin:round;stroke-dasharray:none;stroke-opacity:0.968566"
       d="M 416.40172,510.28349 H 903.75363"
       id="path19"
       inkscape:label="tIME lINE" /><path
       style="opacity:0.721707;fill:#ffffff;fill-opacity:1;stroke:#3affe9;stroke-width:5.6;stroke-linecap:round;stroke-linejoin:round;stroke-dasharray:none;stroke-opacity:0.968566"
       d="M 415.06319,510.28349 H 669.43886"
       id="path20"
       inkscape:label="ttIME lINE pROGRESSO" /><ellipse
       style="opacity:1;mix-blend-mode:normal;fill:#ffffff;fill-opacity:1;stroke:#3affe9;stroke-width:0.6;stroke-linecap:round;stroke-linejoin:round;stroke-dasharray:none;stroke-opacity:0.968566;filter:url(#filter21)"
       id="path21"
       cx="669.82025"
       cy="510.05191"
       rx="5.821475"
       ry="5.5886159"
       inkscape:label="tIME lINE pROGRESSO 2" /><text
       xml:space="preserve"
       style="font-size:24.7356px;font-family:Redensek;-inkscape-font-specification:Redensek;text-align:center;letter-spacing:0.551397px;word-spacing:-3.96799px;writing-mode:lr-tb;direction:ltr;text-anchor:middle;display:inline;opacity:0.803;fill:#e5ffff;fill-opacity:0.941061;stroke:none;stroke-width:0.6;stroke-linecap:round;stroke-linejoin:round;stroke-dasharray:none;stroke-opacity:0.968566"
       x="435.94995"
       y="536.0141"
       id="text21"
       inkscape:label="Tempo Inicio"><tspan
         sodipodi:role="line"
         id="tspan21"
         x="436.22565"
         y="536.0141"
         style="fill:#e5ffff;fill-opacity:0.941061;stroke-width:0.6">1:32</tspan></text><text
       xml:space="preserve"
       style="font-size:24.7356px;font-family:Redensek;-inkscape-font-specification:Redensek;text-align:center;letter-spacing:0.551397px;word-spacing:-3.96799px;writing-mode:lr-tb;direction:ltr;text-anchor:middle;display:inline;opacity:0.803;fill:#e6ffff;fill-opacity:0.948919;stroke:none;stroke-width:0.6;stroke-linecap:round;stroke-linejoin:round;stroke-dasharray:none;stroke-opacity:0.968566"
       x="881.93079"
       y="536.0141"
       id="text22"
       inkscape:label="Tempo Finaç"><tspan
         sodipodi:role="line"
         id="tspan22"
         x="882.20648"
         y="536.0141"
         style="fill:#e6ffff;fill-opacity:0.948919;stroke-width:0.6">2:10</tspan></text><rect
       style="opacity:0.534323;fill:#312e4b;fill-opacity:1;stroke:none;stroke-width:0.6;stroke-linecap:round;stroke-linejoin:round;stroke-dasharray:none;stroke-opacity:0.968566"
       id="rect22"
       width="401.44891"
       height="66.13195"
       x="472.14026"
       y="425.17838"
       rx="10.233806"
       ry="13.843504" /><rect
       style="opacity:0.803;fill:#312e4b;fill-opacity:1;stroke:none;stroke-width:0.6;stroke-linecap:round;stroke-linejoin:round;stroke-dasharray:none;stroke-opacity:0.968566"
       id="rect23"
       width="1.6465617"
       height="0.32931235"
       x="864.25134"
       y="426.89139"
       rx="10.233806"
       ry="0.32931235" /><circle
       style="opacity:1;fill:#000000;fill-opacity:1;stroke:#ffffff;stroke-width:1.4;stroke-linecap:round;stroke-linejoin:round;stroke-dasharray:none;stroke-opacity:1"
       id="circle23"
       cx="479.80103"
       cy="343.30365"
       r="13.83112" /><path
       id="text23"
       style="font-size:16.6833px;font-family:Redensek;-inkscape-font-specification:Redensek;text-align:center;letter-spacing:2.03773px;word-spacing:-2.67629px;writing-mode:lr-tb;direction:ltr;text-anchor:middle;opacity:1;fill:#ffffff;fill-opacity:1;stroke:none;stroke-width:0.599998;stroke-linecap:round;stroke-linejoin:round;stroke-dasharray:none;stroke-opacity:0.968566"
       d="m 498.78218,246.7338 v 2.00944 h 1.99518 v -2.00944 z m 58.96723,0 c -0.29444,0 -0.56812,0.056 -0.82196,0.1676 -0.25383,0.11169 -0.47749,0.26354 -0.6704,0.45645 -0.19291,0.18276 -0.34476,0.40641 -0.45645,0.6704 -0.10153,0.25384 -0.15334,0.52341 -0.15334,0.8077 v 9.62462 h 1.99518 v -6.8378 h 3.44296 v -1.99516 h -3.44296 v -0.79166 c 0,-0.0609 0.0359,-0.0927 0.10697,-0.0927 h 3.33599 v -2.00944 z m 6.39918,0 v 2.00944 h 1.99517 v -2.00944 z m 17.85491,0 v 2.00944 h 1.99518 v -2.00944 z m 17.42701,0 v 9.62461 c 0,0.29445 0.0559,0.56991 0.1676,0.82375 0.11169,0.25383 0.25763,0.47571 0.44039,0.66862 0.19292,0.18276 0.41658,0.3305 0.67042,0.44218 0.25383,0.11169 0.52929,0.16761 0.82374,0.16761 h 1.78121 v -1.99518 h -1.78121 c -0.0609,0 -0.0927,-0.0359 -0.0927,-0.10698 v -9.62461 z m -141.25783,0.76134 v 10.96543 h 2.01121 v -8.04132 l 4.17222,4.9496 4.15794,-4.9496 v 8.04132 h 2.02548 v -10.96543 h -2.20734 l -3.97608,4.75169 -3.99035,-4.75169 z m 85.13626,0 c -0.29445,0 -0.57224,0.056 -0.83623,0.1676 -0.25384,0.11169 -0.47749,0.26353 -0.67041,0.45645 -0.18276,0.18276 -0.3305,0.40642 -0.44218,0.67041 -0.11168,0.25383 -0.1676,0.5275 -0.1676,0.82196 v 6.73259 c 0,0.29444 0.0559,0.57402 0.1676,0.83801 0.11168,0.25383 0.25942,0.47571 0.44218,0.66862 0.19292,0.18276 0.41657,0.3305 0.67041,0.44218 0.26399,0.11169 0.54178,0.16761 0.83623,0.16761 h 6.73259 c 0.28429,0 0.55386,-0.0559 0.80769,-0.16761 0.26399,-0.11168 0.49176,-0.25942 0.68467,-0.44218 0.19292,-0.19291 0.34477,-0.41479 0.45645,-0.66862 0.11168,-0.26399 0.1676,-0.54357 0.1676,-0.83801 v -6.73259 c 0,-0.29446 -0.0559,-0.56813 -0.1676,-0.82196 -0.11168,-0.26399 -0.26353,-0.48765 -0.45645,-0.67041 -0.19291,-0.19292 -0.42068,-0.34476 -0.68467,-0.45645 -0.25383,-0.11168 -0.5234,-0.1676 -0.80769,-0.1676 z m -0.0249,2.01122 c 0.008,-9.2e-4 0.0161,0 0.0249,0 h 6.73259 c 0.0609,0 0.0909,0.0341 0.0909,0.1052 v 6.73259 c 0,0.0711 -0.03,0.10697 -0.0909,0.10697 h -6.73259 c -0.0711,0 -0.1052,-0.0359 -0.1052,-0.10697 v -6.73259 c 0,-0.0622 0.0258,-0.0974 0.0802,-0.1052 z m -69.16241,0.12125 v 6.7308 c 0,0.29445 0.05,0.56991 0.15156,0.82375 0.11169,0.25383 0.26354,0.47571 0.45645,0.66862 0.19291,0.18276 0.41657,0.3305 0.6704,0.44218 0.25384,0.11169 0.5293,0.16761 0.82375,0.16761 h 4.76595 c 0.28429,0 0.55386,-0.0559 0.8077,-0.16761 0.26398,-0.11168 0.48764,-0.25942 0.6704,-0.44218 0.19291,-0.19291 0.34476,-0.41479 0.45645,-0.66862 0.11168,-0.25384 0.16759,-0.5293 0.16759,-0.82375 v -6.7308 h -1.99516 v 6.7308 c 0,0.0711 -0.0359,0.10698 -0.10698,0.10698 h -4.76595 c -0.0711,0 -0.10698,-0.0359 -0.10698,-0.10698 v -6.7308 z m 14.39413,0 c -0.29444,0 -0.56812,0.0559 -0.82196,0.16759 -0.25384,0.11169 -0.47749,0.26354 -0.6704,0.45645 -0.18276,0.18276 -0.33051,0.40642 -0.44219,0.6704 -0.11168,0.25384 -0.1676,0.52341 -0.1676,0.8077 v 1.21779 c 0,0.29445 0.0559,0.56813 0.1676,0.82196 0.11168,0.25384 0.25943,0.4775 0.44219,0.67041 0.19291,0.18276 0.41656,0.33049 0.6704,0.44218 0.25384,0.11169 0.52752,0.1676 0.82196,0.1676 h 4.76773 c 0.0711,0 0.1052,0.03 0.1052,0.0909 v 1.21778 c 0,0.0711 -0.0342,0.10698 -0.1052,0.10698 h -4.76773 c -0.0711,0 -0.10698,-0.0359 -0.10698,-0.10698 v -0.37977 h -1.99517 v 0.37977 c 0,0.29445 0.0559,0.56991 0.1676,0.82375 0.11168,0.25383 0.25943,0.47571 0.44219,0.66862 0.19291,0.18276 0.41656,0.3305 0.6704,0.44218 0.25384,0.11169 0.52752,0.16761 0.82196,0.16761 h 4.76773 c 0.29445,0 0.56813,-0.0559 0.82196,-0.16761 0.25383,-0.11168 0.47749,-0.25942 0.67041,-0.44218 0.19291,-0.19291 0.33886,-0.41479 0.44039,-0.66862 0.1117,-0.25384 0.16761,-0.5293 0.16761,-0.82375 v -1.21778 c 0,-0.2843 -0.056,-0.55386 -0.16761,-0.8077 -0.10153,-0.26399 -0.24748,-0.48764 -0.44039,-0.67041 -0.19292,-0.19291 -0.41658,-0.34476 -0.67041,-0.45644 -0.25383,-0.11169 -0.52751,-0.16761 -0.82196,-0.16761 h -4.76773 c -0.0711,0 -0.10698,-0.03 -0.10698,-0.0909 v -1.21779 c 0,-0.0711 0.0359,-0.10698 0.10698,-0.10698 h 4.76773 c 0.0711,0 0.1052,0.0359 0.1052,0.10698 v 0.37979 h 1.99517 v -0.37979 c 0,-0.28429 -0.056,-0.55386 -0.16761,-0.8077 -0.10153,-0.26398 -0.24748,-0.48764 -0.44039,-0.6704 -0.19292,-0.19291 -0.41658,-0.34476 -0.67041,-0.45645 -0.25383,-0.11169 -0.52751,-0.16759 -0.82196,-0.16759 z m 10.26649,0 v 8.83296 h 1.99517 v -8.83296 z m 7.49571,0 c -0.29444,0 -0.56812,0.0559 -0.82196,0.16759 -0.25383,0.11169 -0.47749,0.26354 -0.6704,0.45645 -0.18276,0.18276 -0.3305,0.40642 -0.44219,0.6704 -0.11168,0.25384 -0.1676,0.52341 -0.1676,0.8077 v 4.62866 c 0,0.29445 0.056,0.56991 0.1676,0.82375 0.11169,0.25383 0.25943,0.47571 0.44219,0.66862 0.19291,0.18276 0.41657,0.3305 0.6704,0.44218 0.25384,0.11169 0.52752,0.16761 0.82196,0.16761 h 6.86988 v -1.99518 h -6.86988 c -0.0711,0 -0.10698,-0.0359 -0.10698,-0.10698 v -4.62866 c 0,-0.0711 0.0359,-0.10698 0.10698,-0.10698 h 6.83958 v -1.99516 z m 10.13099,0 v 1.99516 h 6.8681 c 0.0711,0 0.10697,0.0359 0.10697,0.10698 v 1.30872 h -6.97507 v 3.31994 c 0,0.29445 0.056,0.56991 0.16759,0.82375 0.1117,0.25383 0.25764,0.47571 0.4404,0.66862 0.19292,0.18276 0.41657,0.3305 0.67041,0.44218 0.25383,0.11169 0.5293,0.16761 0.82374,0.16761 h 6.86811 v -6.73082 c 0,-0.28429 -0.0559,-0.55386 -0.1676,-0.8077 -0.11169,-0.26398 -0.26354,-0.48764 -0.45645,-0.6704 -0.18276,-0.19291 -0.40642,-0.34476 -0.67041,-0.45645 -0.25383,-0.11169 -0.5234,-0.16759 -0.80769,-0.16759 z m 47.7397,0 v 8.83296 h 1.99518 v -8.83296 z m 7.49572,0 c -0.29445,0 -0.56813,0.0559 -0.82196,0.16759 -0.25384,0.11169 -0.4775,0.26354 -0.67041,0.45645 -0.18276,0.18276 -0.3305,0.40642 -0.44218,0.6704 -0.11169,0.25384 -0.16761,0.52341 -0.16761,0.8077 v 4.62866 c 0,0.29445 0.056,0.56991 0.16761,0.82375 0.11168,0.25383 0.25942,0.47571 0.44218,0.66862 0.19291,0.18276 0.41657,0.3305 0.67041,0.44218 0.25383,0.11169 0.52751,0.16761 0.82196,0.16761 h 6.8681 v -1.99518 h -6.8681 c -0.0711,0 -0.10698,-0.0359 -0.10698,-0.10698 v -4.62866 c 0,-0.0711 0.0359,-0.10698 0.10698,-0.10698 h 6.83778 v -1.99516 z m 10.3592,0 v 8.83296 h 1.99517 v -8.83296 z m 5.40783,0 v 1.99516 h 6.8681 c 0.0711,0 0.10698,0.0359 0.10698,0.10698 v 1.30872 h -6.97508 v 3.31994 c 0,0.29445 0.0559,0.56991 0.1676,0.82375 0.11169,0.25383 0.25942,0.47571 0.44218,0.66862 0.19291,0.18276 0.41657,0.3305 0.67041,0.44218 0.25383,0.11169 0.52751,0.16761 0.82196,0.16761 h 6.8681 v -6.73082 c 0,-0.28429 -0.0559,-0.55386 -0.1676,-0.8077 -0.11169,-0.26398 -0.26354,-0.48764 -0.45645,-0.6704 -0.18276,-0.19291 -0.40642,-0.34476 -0.6704,-0.45645 -0.25384,-0.11169 -0.52341,-0.16759 -0.8077,-0.16759 z m -69.00728,5.42208 h 4.9799 v 1.4157 h -4.87293 c -0.071,0 -0.10697,-0.0359 -0.10697,-0.10698 z m 71.00245,0 h 4.97991 v 1.4157 h -4.87293 c -0.0711,0 -0.10698,-0.0359 -0.10698,-0.10698 z" /><path
       style="opacity:1;fill:#ffffff;fill-opacity:1;stroke:none;stroke-width:0.600001;stroke-linecap:round;stroke-linejoin:round;stroke-dasharray:none;stroke-opacity:0.968566"
       d="m 877.53227,236.99758 -11.22759,21.47797 0.82261,6.59186 6.24009,-3.62151 10.77272,-21.06481 z"
       id="path23"
       sodipodi:nodetypes="cccccc"
       inkscape:transform-center-x="-7.4037427"
       inkscape:transform-center-y="-11.499718"
       inkscape:label="Icone de  escolha e configurações" /><rect
       style="opacity:1;fill:#ffffff;fill-opacity:1;stroke:none;stroke-width:0.6;stroke-linecap:round;stroke-linejoin:round;stroke-dasharray:none;stroke-opacity:0.968566"
       id="rect24"
       width="24.327154"
       height="3.4577796"
       x="865.40393"
       y="266.5163"
       rx="0.32931235"
       ry="0.32931235" /><circle
       style="opacity:1;fill:#f709db;fill-opacity:1;stroke:#cacaca;stroke-width:0.9;stroke-linecap:round;stroke-linejoin:round;stroke-dasharray:none;stroke-opacity:0.836935"
       id="circle31"
       cx="629.8396"
       cy="553.40497"
       r="28.320862" /><g
       id="g35"
       transform="matrix(0.83235915,0,0,0.83147354,146.91499,96.562813)"
       style="stroke-width:1.20205"
       inkscape:label="Botão Pause"><circle
         style="opacity:1;fill:#1d3439;fill-opacity:0.343811;stroke:#cacaca;stroke-width:1.08184;stroke-linecap:round;stroke-linejoin:round;stroke-dasharray:none;stroke-opacity:0.836935"
         id="circle32"
         cx="665.8396"
         cy="553.40497"
         r="25.686363" /><path
         id="rect33"
         style="opacity:0.864564;fill:none;fill-opacity:0.343811;stroke:#ffffff;stroke-width:2.88491;stroke-linecap:round;stroke-linejoin:round;stroke-dasharray:none;stroke-opacity:0.836935"
         d="m 659.57971,547.0232 c -0.49526,0 -0.89428,0.3908 -0.89428,0.87629 v 10.51581 c 0,0.48549 0.39902,0.87629 0.89428,0.87629 h 11.80036 c 0.49526,0 0.89394,-0.3908 0.89394,-0.87629 v -10.51581 c 0,-0.48549 -0.39868,-0.87629 -0.89394,-0.87629 z" /></g><path
       id="path33"
       style="opacity:0.864564;fill:#ffffff;fill-opacity:1;stroke:#ffffff;stroke-width:2.4;stroke-linecap:round;stroke-linejoin:round;stroke-dasharray:none;stroke-opacity:0.836935"
       d="m 621.36294,542.2837 v 24.98391 l 20.19804,-13.20542 z"
       inkscape:label="BOTÃO PLAY" /><ellipse
       style="fill:#1d3439;fill-opacity:0.343811;stroke:#cacaca;stroke-width:0.900001;stroke-linecap:round;stroke-linejoin:round;stroke-dasharray:none;stroke-opacity:0.836935"
       id="circle33"
       cx="566.0719"
       cy="556.22961"
       rx="18.949375"
       ry="18.901932" /><path
       id="path34"
       style="opacity:0.864564;fill:#ffffff;fill-opacity:1;stroke:none;stroke-width:2.4;stroke-linecap:round;stroke-linejoin:round;stroke-dasharray:none;stroke-opacity:0.836935"
       d="m 559.73716,549.14775 c -0.0914,0.009 -0.16143,0.0867 -0.16143,0.18039 v 13.06218 c 0,0.1 0.0806,0.18039 0.18084,0.18039 h 1.51839 c 0.1002,0 0.18206,-0.0805 0.18206,-0.18039 v -13.06218 c 0,-0.0999 -0.0819,-0.18039 -0.18206,-0.18039 h -1.51839 c -0.006,0 -0.0133,-6e-4 -0.0194,0 z m 11.8448,0.61867 -9.53265,5.62125 9.53265,6.30286 z"
       inkscape:label="Botão Voltar" /><ellipse
       style="fill:#1d3439;fill-opacity:0.343811;stroke:#cacaca;stroke-width:0.9;stroke-linecap:round;stroke-linejoin:round;stroke-dasharray:none;stroke-opacity:0.836935"
       id="circle34"
       cx="759.6073"
       cy="556.68256"
       rx="20.01697"
       ry="19.255484" /><path
       id="path35"
       style="opacity:0.864564;fill:#ffffff;fill-opacity:1;stroke:none;stroke-width:2.4;stroke-linecap:round;stroke-linejoin:round;stroke-dasharray:none;stroke-opacity:0.836935"
       d="m 765.12283,549.74804 c 0.0945,0.009 0.16681,0.0864 0.16681,0.17976 v 13.01657 c 0,0.0996 -0.0833,0.17976 -0.18687,0.17976 h -1.56898 c -0.10355,0 -0.18813,-0.0802 -0.18813,-0.17976 V 549.9278 c 0,-0.0996 0.0845,-0.17976 0.18813,-0.17976 h 1.56898 c 0.006,0 0.0138,-6.1e-4 0.02,0 z m -12.23952,0.61651 9.85032,5.60162 -9.85032,6.28087 z"
       inkscape:label="Botão Avançar" /><path
       id="rect37"
       style="opacity:1;fill:none;fill-opacity:1;stroke:#0dff9a;stroke-width:1.6;stroke-linecap:round;stroke-linejoin:round;stroke-dasharray:none;stroke-opacity:1"
       d="m 636.80793,242.3845 c -3.63194,0 -6.55569,3.03718 -6.55569,6.81055 v 9.43164 c 0,3.77336 2.92375,6.81055 6.55569,6.81055 h 117.32225 c 3.63192,0 6.55567,-3.03719 6.55567,-6.81055 v -9.43164 c 0,-3.77337 -2.92375,-6.81055 -6.55567,-6.81055 z" /><circle
       style="opacity:1;fill:#00f397;fill-opacity:1;stroke:none;stroke-width:1.6;stroke-linecap:round;stroke-linejoin:round;stroke-dasharray:none;stroke-opacity:1"
       id="path37"
       cx="641.88318"
       cy="253.42612"
       r="5.1866693" /><text
       xml:space="preserve"
       style="font-style:normal;font-variant:normal;font-weight:bold;font-stretch:normal;font-size:12.6874px;font-family:'Trebuchet MS';-inkscape-font-specification:'Trebuchet MS Bold';text-align:center;letter-spacing:0.367407px;word-spacing:-0.508817px;writing-mode:lr-tb;direction:ltr;text-anchor:middle;opacity:1;fill:#06ffa0;fill-opacity:1;stroke:none;stroke-width:1.6;stroke-linecap:round;stroke-linejoin:round;stroke-dasharray:none;stroke-opacity:1"
       x="699.4245"
       y="256.99667"
       id="text37"
       inkscape:label="sistema - ao vivo"><tspan
         sodipodi:role="line"
         id="tspan37"
         x="699.60822"
         y="256.99667"
         style="font-style:normal;font-variant:normal;font-weight:bold;font-stretch:normal;font-size:12.6874px;font-family:'Trebuchet MS';-inkscape-font-specification:'Trebuchet MS Bold';fill:#06ffa0;fill-opacity:1;stroke-width:1.6">Ouvindo Agóra</tspan></text><text
       xml:space="preserve"
       style="font-style:normal;font-variant:normal;font-weight:bold;font-stretch:normal;font-size:16.4201px;font-family:'Trebuchet MS';-inkscape-font-specification:'Trebuchet MS Bold';text-align:center;letter-spacing:0.475497px;word-spacing:-0.658518px;writing-mode:lr-tb;direction:ltr;text-anchor:middle;opacity:1;fill:#ffffff;fill-opacity:1;stroke:none;stroke-width:1.6;stroke-linecap:round;stroke-linejoin:round;stroke-dasharray:none;stroke-opacity:1"
       x="455.80618"
       y="619.68628"
       id="text38"
       inkscape:label="Origem"><tspan
         sodipodi:role="line"
         id="tspan38"
         x="456.04395"
         y="619.68628"
         style="stroke-width:1.6">Origem:</tspan></text><text
       xml:space="preserve"
       style="font-style:normal;font-variant:normal;font-weight:bold;font-stretch:normal;font-size:16.4201px;font-family:'Trebuchet MS';-inkscape-font-specification:'Trebuchet MS Bold';text-align:center;letter-spacing:0.475497px;word-spacing:-0.658518px;writing-mode:lr-tb;direction:ltr;text-anchor:middle;opacity:1;fill:#50ddd1;fill-opacity:0.980392;stroke:none;stroke-width:1.6;stroke-linecap:round;stroke-linejoin:round;stroke-dasharray:none;stroke-opacity:1"
       x="540.93384"
       y="619.68628"
       id="text39"
       inkscape:label="Nome da Origem"><tspan
         sodipodi:role="line"
         id="tspan39"
         x="541.17157"
         y="619.68628"
         style="fill:#50ddd1;fill-opacity:0.980392;stroke-width:1.6">My Music</tspan></text><path
       style="opacity:1;fill:#ff129b;fill-opacity:0.941061;stroke:#000000;stroke-width:1.6;stroke-linecap:round;stroke-linejoin:round;stroke-dasharray:none;stroke-opacity:1"
       d="m 776.35936,610.77966 c 0,0 -4.2996,-5.05748 -7.0802,-4.61038 -3.6433,0.58582 -6.9507,4.95451 -6.9156,8.64445 0.071,7.42408 14.2428,17.12425 14.2428,17.12425 0,0 12.4422,-10.77997 14.2428,-15.807 1.3418,-3.74616 -3.2655,-8.746 -7.1626,-9.55006 -2.7569,-0.56881 -7.3272,4.19874 -7.3272,4.19874 z"
       id="path39"
       sodipodi:nodetypes="caacsac"
       inkscape:label="icone curtidas" /><text
       xml:space="preserve"
       style="font-style:normal;font-variant:normal;font-weight:bold;font-stretch:normal;font-size:36.6195px;font-family:'Trebuchet MS';-inkscape-font-specification:'Trebuchet MS Bold';text-align:center;letter-spacing:1.06044px;word-spacing:-1.4686px;writing-mode:lr-tb;direction:ltr;text-anchor:middle;opacity:1;fill:#ffffff;fill-opacity:1;stroke:none;stroke-width:1.6;stroke-linecap:round;stroke-linejoin:round;stroke-dasharray:none;stroke-opacity:1"
       x="807.1947"
       y="633.69336"
       id="text40"
       inkscape:label="contagem de curtidas"><tspan
         sodipodi:role="line"
         id="tspan40"
         x="807.72491"
         y="633.69336"
         style="stroke-width:1.6">3</tspan></text><path
       id="path40"
       style="opacity:1;fill:#12ffaf;fill-opacity:0.941061;stroke:#000000;stroke-width:0.8;stroke-linecap:round;stroke-linejoin:round;stroke-dasharray:none;stroke-opacity:1"
       d="m 850.9816,602.51451 c -10.76084,0.0709 -12.94656,9.42861 -12.75586,18.95898 -0.0257,0.42659 -0.0188,0.84717 0.0176,1.25977 -2.51526,1.05265 -4.10924,3.2384 -4.10938,5.63281 -6e-5,3.46331 3.28347,6.27116 7.33399,6.27149 0.13177,0 2.26294,-0.004 2.39453,-0.01 0,0 -0.68013,-5.21014 -0.64453,-5.18164 -0.42871,-4.40314 -0.84892,-9.14754 -0.30078,-13.40039 0.65167,-5.05613 3.13827,-9.05466 8.08593,-9.30664 4.94766,0.25198 7.43232,4.25051 8.08399,9.30664 0.54814,4.25285 0.12793,8.99725 -0.30078,13.40039 0.0356,-0.0285 -0.64454,5.18164 -0.64454,5.18164 0.13159,0.006 2.26277,0.01 2.39454,0.01 4.05052,-3.3e-4 7.33404,-2.80818 7.33398,-6.27149 -1.4e-4,-2.39441 -1.59411,-4.58016 -4.10937,-5.63281 0.0364,-0.4126 0.0433,-0.83318 0.0176,-1.25977 0.1907,-9.53036 -1.99504,-18.88807 -12.75586,-18.95898 -0.0137,-9e-5 -0.0273,6e-5 -0.041,0 z"
       inkscape:label="fONE DE oUVIDO- oUVINTES" /><text
       xml:space="preserve"
       style="font-style:normal;font-variant:normal;font-weight:bold;font-stretch:normal;font-size:36.6195px;font-family:'Trebuchet MS';-inkscape-font-specification:'Trebuchet MS Bold';text-align:center;letter-spacing:1.06044px;word-spacing:-1.4686px;writing-mode:lr-tb;direction:ltr;text-anchor:middle;opacity:1;fill:#ffffff;fill-opacity:1;stroke:none;stroke-width:1.6;stroke-linecap:round;stroke-linejoin:round;stroke-dasharray:none;stroke-opacity:1"
       x="883.5697"
       y="633.31836"
       id="text44"
       inkscape:label="contagem de ouvintes"><tspan
         sodipodi:role="line"
         id="tspan44"
         x="884.09991"
         y="633.31836"
         style="stroke-width:1.6">8</tspan></text><text
       xml:space="preserve"
       style="font-style:italic;font-variant:normal;font-weight:bold;font-stretch:normal;font-size:20.604px;font-family:'Trebuchet MS';-inkscape-font-specification:'Trebuchet MS Bold Italic';text-align:center;letter-spacing:0.596659px;word-spacing:-0.826305px;writing-mode:lr-tb;direction:ltr;text-anchor:middle;opacity:1;fill:#ffffff;fill-opacity:1;stroke:none;stroke-width:0.799998;stroke-linecap:round;stroke-linejoin:round;stroke-dasharray:none;stroke-opacity:1"
       x="653.92993"
       y="318.03931"
       id="text45"
       transform="scale(1.0053333,0.994695)"
       inkscape:label="Nome-da-musica ou do album"><tspan
         sodipodi:role="line"
         id="tspan45"
         x="654.22827"
         y="318.03931"
         style="font-style:italic;font-variant:normal;font-weight:bold;font-stretch:normal;font-family:'Trebuchet MS';-inkscape-font-specification:'Trebuchet MS Bold Italic';fill:#ffffff;fill-opacity:1;stroke:none;stroke-width:0.799998">EPICA- SENSORIUM</tspan></text><text
       xml:space="preserve"
       style="font-style:normal;font-variant:normal;font-weight:bold;font-stretch:normal;font-size:15.8382px;font-family:'Trebuchet MS';-inkscape-font-specification:'Trebuchet MS Bold';text-align:center;letter-spacing:0.458648px;word-spacing:-0.635176px;writing-mode:lr-tb;direction:ltr;text-anchor:middle;opacity:1;fill:#06ff8e;fill-opacity:1;stroke:none;stroke-width:1.6;stroke-linecap:round;stroke-linejoin:round;stroke-dasharray:none;stroke-opacity:1"
       x="622.8595"
       y="349.55457"
       id="text46"><tspan
         sodipodi:role="line"
         id="tspan46"
         x="623.08881"
         y="349.55457"
         style="font-style:normal;font-variant:normal;font-weight:bold;font-stretch:normal;font-size:15.8382px;font-family:'Trebuchet MS';-inkscape-font-specification:'Trebuchet MS Bold';fill:#06ff8e;fill-opacity:1;stroke-width:1.6">Paulo - UPLOAD</tspan></text><text
       xml:space="preserve"
       style="font-style:normal;font-variant:normal;font-weight:bold;font-stretch:normal;font-size:15.8382px;font-family:'Trebuchet MS';-inkscape-font-specification:'Trebuchet MS Bold';text-align:center;letter-spacing:0.458648px;word-spacing:-0.635176px;writing-mode:lr-tb;direction:ltr;text-anchor:middle;opacity:1;fill:#dde8f4;fill-opacity:0.86444;stroke:none;stroke-width:1.6;stroke-linecap:round;stroke-linejoin:round;stroke-dasharray:none;stroke-opacity:1"
       x="673.06415"
       y="373.79721"
       id="text47"><tspan
         sodipodi:role="line"
         id="tspan47"
         x="673.29346"
         y="373.79721"
         style="font-style:normal;font-variant:normal;font-weight:bold;font-stretch:normal;font-size:15.8382px;font-family:'Trebuchet MS';-inkscape-font-specification:'Trebuchet MS Bold';fill:#dde8f4;fill-opacity:0.86444;stroke-width:1.6">Definida por @aulo_dsjunior</tspan></text><rect
       style="fill:#06ffa0;fill-opacity:1;stroke:none;stroke-width:0.8;stroke-linecap:round;stroke-linejoin:round;stroke-dasharray:none;stroke-opacity:1"
       id="rect53"
       width="6.9107141"
       height="42.04018"
       x="609.89929"
       y="436.89536"
       rx="0.74957275"
       ry="9.2808199" /><rect
       style="fill:#06ffa0;fill-opacity:1;stroke:none;stroke-width:0.8;stroke-linecap:round;stroke-linejoin:round;stroke-dasharray:none;stroke-opacity:1"
       id="rect54"
       width="6.9107141"
       height="29.5625"
       x="621.0332"
       y="446.68555"
       rx="0.74957275"
       ry="9.2808199" /><rect
       style="fill:#06ffa0;fill-opacity:1;stroke:none;stroke-width:0.8;stroke-linecap:round;stroke-linejoin:round;stroke-dasharray:none;stroke-opacity:1"
       id="rect55"
       width="6.9107141"
       height="29.5625"
       x="598.57336"
       y="447.64536"
       rx="0.74957275"
       ry="9.2808199" /><rect
       style="fill:#06ffa0;fill-opacity:1;stroke:none;stroke-width:0.8;stroke-linecap:round;stroke-linejoin:round;stroke-dasharray:none;stroke-opacity:1"
       id="rect56"
       width="6.9107141"
       height="21.116072"
       x="631.59125"
       y="458.39536"
       rx="0.74957275"
       ry="9.2808199" /><g
       id="g52"
       transform="matrix(0.76785714,0,0,0.76785714,190.48494,106.4132)"
       style="stroke-width:1.30233"><rect
         style="opacity:1;fill:#06ffa0;fill-opacity:1;stroke:none;stroke-width:1.04186;stroke-linecap:round;stroke-linejoin:round;stroke-dasharray:none;stroke-opacity:1"
         id="rect49"
         width="9"
         height="54.75"
         x="487.46402"
         y="430.89536"
         rx="0.97618777"
         ry="12.086649" /><rect
         style="opacity:1;fill:#06ffa0;fill-opacity:1;stroke:none;stroke-width:1.04186;stroke-linecap:round;stroke-linejoin:round;stroke-dasharray:none;stroke-opacity:1"
         id="rect50"
         width="9"
         height="38.5"
         x="501.96402"
         y="443.64536"
         rx="0.97618777"
         ry="12.086649" /><rect
         style="opacity:1;fill:#06ffa0;fill-opacity:1;stroke:none;stroke-width:1.04186;stroke-linecap:round;stroke-linejoin:round;stroke-dasharray:none;stroke-opacity:1"
         id="rect51"
         width="9"
         height="38.5"
         x="472.71402"
         y="444.89536"
         rx="0.97618777"
         ry="12.086649" /><rect
         style="opacity:1;fill:#06ffa0;fill-opacity:1;stroke:none;stroke-width:1.04186;stroke-linecap:round;stroke-linejoin:round;stroke-dasharray:none;stroke-opacity:1"
         id="rect52"
         width="9"
         height="27.5"
         x="515.71399"
         y="458.89536"
         rx="0.97618777"
         ry="12.086649" /></g><g
       id="g60"
       transform="matrix(-0.76785714,0,0,0.76785714,1001.4788,106.02927)"
       style="stroke-width:1.30233"
       inkscape:label="animar grafico de audio"><rect
         style="opacity:1;fill:#06ffa0;fill-opacity:1;stroke:none;stroke-width:1.04186;stroke-linecap:round;stroke-linejoin:round;stroke-dasharray:none;stroke-opacity:1"
         id="rect57"
         width="9"
         height="54.75"
         x="487.46402"
         y="430.89536"
         rx="0.97618777"
         ry="12.086649" /><rect
         style="opacity:1;fill:#06ffa0;fill-opacity:1;stroke:none;stroke-width:1.04186;stroke-linecap:round;stroke-linejoin:round;stroke-dasharray:none;stroke-opacity:1"
         id="rect58"
         width="9"
         height="38.5"
         x="501.96402"
         y="443.64536"
         rx="0.97618777"
         ry="12.086649" /><rect
         style="opacity:1;fill:#06ffa0;fill-opacity:1;stroke:none;stroke-width:1.04186;stroke-linecap:round;stroke-linejoin:round;stroke-dasharray:none;stroke-opacity:1"
         id="rect59"
         width="9"
         height="38.5"
         x="472.71402"
         y="444.89536"
         rx="0.97618777"
         ry="12.086649" /><rect
         style="opacity:1;fill:#06ffa0;fill-opacity:1;stroke:none;stroke-width:1.04186;stroke-linecap:round;stroke-linejoin:round;stroke-dasharray:none;stroke-opacity:1"
         id="rect60"
         width="9"
         height="27.5"
         x="515.71399"
         y="458.89536"
         rx="0.97618777"
         ry="12.086649" /></g><g
       id="g64"
       transform="matrix(0.76785714,0,0,0.76785714,282.6278,106.4132)"
       style="stroke-width:1.30233"><rect
         style="opacity:1;fill:#06ffa0;fill-opacity:1;stroke:none;stroke-width:1.04186;stroke-linecap:round;stroke-linejoin:round;stroke-dasharray:none;stroke-opacity:1"
         id="rect61"
         width="9"
         height="54.75"
         x="487.46402"
         y="430.89536"
         rx="0.97618777"
         ry="12.086649" /><rect
         style="opacity:1;fill:#06ffa0;fill-opacity:1;stroke:none;stroke-width:1.04186;stroke-linecap:round;stroke-linejoin:round;stroke-dasharray:none;stroke-opacity:1"
         id="rect62"
         width="9"
         height="38.5"
         x="501.96402"
         y="443.64536"
         rx="0.97618777"
         ry="12.086649" /><rect
         style="opacity:1;fill:#06ffa0;fill-opacity:1;stroke:none;stroke-width:1.04186;stroke-linecap:round;stroke-linejoin:round;stroke-dasharray:none;stroke-opacity:1"
         id="rect63"
         width="9"
         height="38.5"
         x="472.71402"
         y="444.89536"
         rx="0.97618777"
         ry="12.086649" /><rect
         style="opacity:1;fill:#06ffa0;fill-opacity:1;stroke:none;stroke-width:1.04186;stroke-linecap:round;stroke-linejoin:round;stroke-dasharray:none;stroke-opacity:1"
         id="rect64"
         width="9"
         height="27.5"
         x="515.71399"
         y="458.89536"
         rx="0.97618777"
         ry="12.086649" /></g><g
       id="g68"
       transform="matrix(-0.76785714,0,0,0.76785714,1094.5814,106.4132)"
       style="stroke-width:1.30233"><rect
         style="opacity:1;fill:#06ffa0;fill-opacity:1;stroke:none;stroke-width:1.04186;stroke-linecap:round;stroke-linejoin:round;stroke-dasharray:none;stroke-opacity:1"
         id="rect65"
         width="9"
         height="54.75"
         x="487.46402"
         y="430.89536"
         rx="0.97618777"
         ry="12.086649" /><rect
         style="opacity:1;fill:#06ffa0;fill-opacity:1;stroke:none;stroke-width:1.04186;stroke-linecap:round;stroke-linejoin:round;stroke-dasharray:none;stroke-opacity:1"
         id="rect66"
         width="9"
         height="38.5"
         x="501.96402"
         y="443.64536"
         rx="0.97618777"
         ry="12.086649" /><rect
         style="opacity:1;fill:#06ffa0;fill-opacity:1;stroke:none;stroke-width:1.04186;stroke-linecap:round;stroke-linejoin:round;stroke-dasharray:none;stroke-opacity:1"
         id="rect67"
         width="9"
         height="38.5"
         x="472.71402"
         y="444.89536"
         rx="0.97618777"
         ry="12.086649" /><rect
         style="opacity:1;fill:#06ffa0;fill-opacity:1;stroke:none;stroke-width:1.04186;stroke-linecap:round;stroke-linejoin:round;stroke-dasharray:none;stroke-opacity:1"
         id="rect68"
         width="9"
         height="27.5"
         x="515.71399"
         y="458.89536"
         rx="0.97618777"
         ry="12.086649" /></g><g
       id="g72"
       transform="matrix(-0.76785714,0,0,0.76785714,1139.693,106.02927)"
       style="stroke-width:1.30233"><rect
         style="opacity:1;fill:#06ffa0;fill-opacity:1;stroke:none;stroke-width:1.04186;stroke-linecap:round;stroke-linejoin:round;stroke-dasharray:none;stroke-opacity:1"
         id="rect69"
         width="9"
         height="54.75"
         x="487.46402"
         y="430.89536"
         rx="0.97618777"
         ry="12.086649" /><rect
         style="opacity:1;fill:#06ffa0;fill-opacity:1;stroke:none;stroke-width:1.04186;stroke-linecap:round;stroke-linejoin:round;stroke-dasharray:none;stroke-opacity:1"
         id="rect70"
         width="9"
         height="38.5"
         x="501.96402"
         y="443.64536"
         rx="0.97618777"
         ry="12.086649" /><rect
         style="opacity:1;fill:#06ffa0;fill-opacity:1;stroke:none;stroke-width:1.04186;stroke-linecap:round;stroke-linejoin:round;stroke-dasharray:none;stroke-opacity:1"
         id="rect71"
         width="9"
         height="38.5"
         x="472.71402"
         y="444.89536"
         rx="0.97618777"
         ry="12.086649" /><rect
         style="opacity:1;fill:#06ffa0;fill-opacity:1;stroke:none;stroke-width:1.04186;stroke-linecap:round;stroke-linejoin:round;stroke-dasharray:none;stroke-opacity:1"
         id="rect72"
         width="9"
         height="27.5"
         x="515.71399"
         y="458.89536"
         rx="0.97618777"
         ry="12.086649" /></g><g
       id="g97"
       transform="translate(78.733208,24.919827)"><path
         id="path27"
         style="opacity:1;mix-blend-mode:normal;fill:#5e2f69;fill-opacity:1;stroke:none;stroke-width:0.761246;stroke-linecap:round;stroke-linejoin:round;stroke-dasharray:none;stroke-opacity:0.968566;filter:url(#filter27)"
         d="m 447.36022,234.58338 -21.62107,5.41787 0.0428,0.27851 c -0.0214,-0.003 -0.0328,-0.005 -0.0328,-0.005 l -0.5041,19.62229 c -1.04511,-0.83968 -2.3607,-1.29931 -3.71904,-1.29933 -3.21567,-5e-5 -5.82249,2.52269 -5.82241,5.63464 -8e-5,3.11193 2.60674,5.63468 5.82241,5.63463 2.00184,0 3.8633,-0.99522 4.92889,-2.63521 l 0.003,0.006 v 0.001 h 0.001 v 10e-4 h 10e-4 10e-4 0.001 l 10e-4,-10e-4 0.001,-0.001 c 0.022,-0.0159 0.0853,-0.12733 0.17393,-0.31003 0.20166,-0.35765 0.36266,-0.73542 0.48016,-1.12667 0.34777,-0.91256 0.70881,-2.0918 0.74607,-3.01581 0.1759,-4.36213 0.27936,-11.31507 0.33397,-16.2536 l 16.19563,-3.74425 v 11.61584 a 5.8223157,5.6344991 0 0 0 -2.74611,-0.66668 5.8223157,5.6344991 0 0 0 -5.82241,5.63464 5.8223157,5.6344991 0 0 0 5.82241,5.63463 5.8223157,5.6344991 0 0 0 5.82116,-5.63463 5.8223157,5.6344991 0 0 0 -0.0693,-0.8721 v -21.40149 c 0,-0.0633 -0.0284,-0.11967 -0.0731,-0.15754 z"
         transform="matrix(0.78818081,0,0,0.78818081,16.601934,29.738058)" /><path
         id="path26"
         style="opacity:1;fill:#c017e8;fill-opacity:1;stroke:none;stroke-width:0.6;stroke-linecap:round;stroke-linejoin:round;stroke-dasharray:none;stroke-opacity:0.968566"
         d="m 368.8356,214.17334 -17.04131,4.27026 0.0337,0.21952 c -0.0169,-0.003 -0.0258,-0.004 -0.0258,-0.004 l -0.39732,15.46591 c -0.82373,-0.66182 -1.86066,-1.02408 -2.93127,-1.0241 -2.53454,-4e-5 -4.58918,1.98834 -4.58912,4.44111 -6e-5,2.45277 2.05458,4.44115 4.58912,4.44111 1.5778,0 3.04497,-0.78442 3.88485,-2.07702 l 0.003,0.005 v 7.8e-4 h 7.8e-4 v 7.9e-4 h 8e-4 7.8e-4 7.9e-4 l 7.9e-4,-7.9e-4 7.9e-4,-7.8e-4 c 0.0173,-0.0125 0.0672,-0.10037 0.13709,-0.24437 0.15894,-0.28189 0.28584,-0.57964 0.37845,-0.88801 0.2741,-0.71926 0.55867,-1.64873 0.58804,-2.37701 0.13864,-3.43815 0.22019,-8.91832 0.26323,-12.81077 l 12.76509,-2.95115 v 9.15538 a 4.5890375,4.4410041 0 0 0 -2.16444,-0.52547 4.5890375,4.4410041 0 0 0 -4.58912,4.44112 4.5890375,4.4410041 0 0 0 4.58912,4.44111 4.5890375,4.4410041 0 0 0 4.58812,-4.44111 4.5890375,4.4410041 0 0 0 -0.0546,-0.68737 v -16.86824 c 0,-0.0499 -0.0224,-0.0943 -0.0576,-0.12417 z" /><path
         id="path25"
         style="opacity:1;fill:#faeefd;fill-opacity:0.844794;stroke:none;stroke-width:0.6;stroke-linecap:round;stroke-linejoin:round;stroke-dasharray:none;stroke-opacity:0.968566"
         d="m 368.76416,214.07451 -17.04132,4.27033 0.0339,0.2186 c -0.0169,-0.003 -0.0262,-0.003 -0.0262,-0.003 l -0.39717,15.4665 c -0.82374,-0.66182 -1.86196,-1.02523 -2.93259,-1.02524 -2.53453,-5e-5 -4.58906,1.98843 -4.589,4.44121 -3e-5,1.45151 0.72071,2.74104 1.83344,3.55144 -0.92616,-0.81256 -1.50865,-1.98621 -1.50862,-3.29129 -6e-5,-2.45278 2.05447,-4.44124 4.589,-4.44121 1.07062,2e-5 2.10731,0.3619 2.93105,1.02372 l 0.39716,-15.46498 c 0,0 0.009,7.2e-4 0.0262,0.003 l -0.0339,-0.22013 16.71343,-4.18722 z m -2.01509,6.7257 -0.32328,0.0754 v 8.82085 a 4.5890375,4.4410041 0 0 0 -2.16442,-0.52649 4.5890375,4.4410041 0 0 0 -4.58899,4.44122 4.5890375,4.4410041 0 0 0 1.87038,3.57299 4.5890375,4.4410041 0 0 1 -1.54711,-3.31282 4.5890375,4.4410041 0 0 1 4.589,-4.44122 4.5890375,4.4410041 0 0 1 2.16442,0.52494 z" /><circle
         style="opacity:1;mix-blend-mode:normal;fill:#ff5fdb;fill-opacity:1;stroke:none;stroke-width:0.863758;stroke-linecap:round;stroke-linejoin:round;stroke-dasharray:none;stroke-opacity:0.968566;filter:url(#filter28)"
         id="path28"
         cx="420.79489"
         cy="263.28314"
         r="3.1144888"
         transform="matrix(0.69464077,0,0,0.69464077,54.558184,54.051138)" /><circle
         style="opacity:0.341373;mix-blend-mode:normal;fill:#fffcfe;fill-opacity:1;stroke:none;stroke-width:1.37442;stroke-linecap:round;stroke-linejoin:round;stroke-dasharray:none;stroke-opacity:0.968566;filter:url(#filter28)"
         id="circle28"
         cx="420.79489"
         cy="263.28314"
         r="3.1144888"
         transform="matrix(0.43655018,0,0,0.43655018,163.02374,121.95617)" /><circle
         style="opacity:1;mix-blend-mode:normal;fill:#ff5fdb;fill-opacity:1;stroke:none;stroke-width:0.863758;stroke-linecap:round;stroke-linejoin:round;stroke-dasharray:none;stroke-opacity:0.968566;filter:url(#filter28)"
         id="circle29"
         cx="420.79489"
         cy="263.28314"
         r="3.1144888"
         transform="matrix(0.69464077,0,0,0.69464077,70.087544,50.917736)" /><circle
         style="opacity:0.311688;mix-blend-mode:normal;fill:#fffcfe;fill-opacity:1;stroke:none;stroke-width:1.37442;stroke-linecap:round;stroke-linejoin:round;stroke-dasharray:none;stroke-opacity:0.968566;filter:url(#filter28)"
         id="circle30"
         cx="420.79489"
         cy="263.28314"
         r="3.1144888"
         transform="matrix(0.43655018,0,0,0.43655018,178.69076,118.86864)" /></g></g><g
     inkscape:groupmode="layer"
     id="layer2"
     inkscape:label="Camada 2" /></svg>
