<?xml version="1.0" encoding="UTF-8" standalone="no"?>
<!-- Created with Inkscape (http://www.inkscape.org/) -->

<svg
   width="141.83911mm"
   height="46.958748mm"
   viewBox="0 0 141.83911 46.958749"
   version="1.1"
   id="svg1"
   inkscape:version="1.4.2 (f4327f4, 2025-05-13)"
   sodipodi:docname="processing-w-98.svg"
   inkscape:export-filename="bem-vindo-de0volta.svg"
   inkscape:export-xdpi="96"
   inkscape:export-ydpi="96"
   xmlns:inkscape="http://www.inkscape.org/namespaces/inkscape"
   xmlns:sodipodi="http://sodipodi.sourceforge.net/DTD/sodipodi-0.dtd"
   xmlns:xlink="http://www.w3.org/1999/xlink"
   xmlns="http://www.w3.org/2000/svg"
   xmlns:svg="http://www.w3.org/2000/svg">
  <sodipodi:namedview
     id="namedview1"
     pagecolor="#ffffff"
     bordercolor="#000000"
     borderopacity="0.25"
     inkscape:showpageshadow="2"
     inkscape:pageopacity="0.0"
     inkscape:pagecheckerboard="0"
     inkscape:deskcolor="#d1d1d1"
     inkscape:document-units="mm"
     inkscape:zoom="1.3772587"
     inkscape:cx="308.22096"
     inkscape:cy="78.77968"
     inkscape:window-width="1920"
     inkscape:window-height="991"
     inkscape:window-x="-9"
     inkscape:window-y="-9"
     inkscape:window-maximized="1"
     inkscape:current-layer="layer1">
    <inkscape:page
       x="0"
       y="0"
       width="141.83911"
       height="46.958748"
       id="page2"
       margin="0"
       bleed="0" />
  </sodipodi:namedview>
  <defs
     id="defs1">
    <linearGradient
       inkscape:collect="always"
       xlink:href="#linearGradient54"
       id="linearGradient53"
       gradientUnits="userSpaceOnUse"
       gradientTransform="matrix(1.8909062,0,0,0.18090324,476.61607,264.86288)"
       x1="-231.69298"
       y1="-221.48772"
       x2="-143.29425"
       y2="-187.25569" />
    <linearGradient
       id="linearGradient54"
       inkscape:collect="always">
      <stop
         style="stop-color:#25252b;stop-opacity:1;"
         offset="0"
         id="stop53" />
      <stop
         style="stop-color:#6e7685;stop-opacity:1;"
         offset="1"
         id="stop54" />
    </linearGradient>
    <filter
       inkscape:collect="always"
       style="color-interpolation-filters:sRGB"
       id="filter56"
       x="-6.4972601e-05"
       y="-0.049529071"
       width="1.0041698"
       height="1.050313">
      <feGaussianBlur
         inkscape:collect="always"
         stdDeviation="0.01518619"
         id="feGaussianBlur56" />
    </filter>
  </defs>
  <g
     inkscape:label="Camada 1"
     inkscape:groupmode="layer"
     id="layer1"
     transform="translate(-30.530981,-216.05029)">
    <rect
       style="fill:#374f53;fill-opacity:1;stroke:none;stroke-width:0.954435;stroke-dasharray:none;stroke-opacity:1"
       id="rect57"
       width="140.47058"
       height="46.088097"
       x="30.900646"
       y="216.70152" />
    <rect
       style="fill:#98b7b1;fill-opacity:1;stroke:none;stroke-width:0.954435;stroke-dasharray:none;stroke-opacity:0.520505"
       id="rect52"
       width="140.47058"
       height="45.884083"
       x="31.636127"
       y="216.29607" />
    <rect
       style="opacity:0.893372;fill:url(#linearGradient53);stroke:none;stroke-width:0.162055;stroke-dasharray:none;stroke-opacity:1"
       id="rect53"
       width="127.08301"
       height="9.5582142"
       x="38.506382"
       y="220.01593" />
    <rect
       style="fill:#4d4d4d;fill-opacity:0.397476;stroke:none;stroke-width:0.954435;stroke-dasharray:none;stroke-opacity:1"
       id="rect54"
       width="130.90448"
       height="11.265532"
       x="35.534378"
       y="243.24501" />
    <path
       id="text56"
       style="font-style:normal;font-variant:normal;font-weight:normal;font-stretch:normal;font-size:44.7732px;font-family:Redensek;-inkscape-font-specification:Redensek;text-align:start;word-spacing:-3.59118px;writing-mode:lr-tb;direction:ltr;text-anchor:start;fill:#37bee8;fill-opacity:1;stroke:none;stroke-width:0.947773;stroke-dasharray:none;stroke-opacity:1"
       d="m 52.237886,223.01245 v 3.9915 h 0.809142 v -1.59848 h 2.406255 v -0.79454 h -2.406255 v -0.80442 h 2.406255 v -0.79406 z m 3.215397,0.79406 v 0.80442 h 0.808671 v -0.80442 z m 1.617813,-0.79406 v 3.9915 h 0.809141 v -1.59848 h 1.597114 v 0.80441 h 0.809142 v -1.59895 h -2.406256 v -0.80442 h 2.406256 v -0.79406 z m 3.215397,0.79406 v 0.80442 h 0.808672 v -0.80442 z m 0,2.40337 v 0.80442 h 0.808672 v -0.80442 z m 2.426955,-3.19743 v 0.79406 h 2.406255 v -0.79406 z m 2.406255,0.79406 v 2.40337 h 0.808671 v -2.40337 z m 0,2.40337 h -2.406255 v 0.79407 h 2.406255 z m -2.406255,0 v -2.40337 h -0.809142 v 2.40337 z m 4.833209,-3.19743 v 0.79406 h 2.406256 v -0.79406 z m 2.406256,0.79406 v 0.80442 h 0.808671 v -0.80442 z m -2.406256,0 h -0.809141 v 2.40337 h 0.809141 z m 0,2.40337 v 0.79407 h 2.406256 v -0.79407 z m 2.406256,0 h 0.808671 v -0.80441 h -0.808671 z m 1.617812,-3.19743 v 3.9915 h 3.214928 v -0.79407 h -2.405786 v -0.80441 h 1.607464 v -0.79454 h -1.607464 v -0.80442 h 2.405786 v -0.79406 z m 4.833211,0 v 0.79406 h 3.214927 v -0.79406 z m 0,0.79406 h -0.809142 v 0.80442 h 0.809142 z m 0,0.80442 v 0.79454 h 2.406255 v -0.79454 z m 2.406255,0.79454 v 0.80441 h 0.808672 v -0.80441 z m 0,0.80441 h -3.215397 v 0.80442 h 3.215397 z m 2.426955,-3.19743 v 0.79406 h 3.214926 v -0.79406 z m 0,0.79406 h -0.809142 v 0.80442 h 0.809142 z m 0,0.80442 v 0.79454 h 2.406255 v -0.79454 z m 2.406255,0.79454 v 0.80441 h 0.808671 v -0.80441 z m 0,0.80441 h -3.215397 v 0.80442 h 3.215397 z m 2.426954,-3.19743 v 0.79406 h 2.406256 v -0.79406 z m 2.406256,0.79406 v 0.80442 h -2.406256 v -0.80442 h -0.809141 v 3.19744 h 0.809141 v -1.59848 h 2.406256 v 1.59848 h 0.808671 v -3.19744 z m 1.617812,-0.79406 v 3.9915 h 0.809142 v -2.39302 h 0.798322 v -0.80442 h -0.798322 v -0.79406 z m 1.607464,1.59848 v 0.79454 h 0.809142 v -0.79454 z m 0.809142,0.79454 v 0.80441 h 0.798792 v 0.79407 h 0.808671 v -3.9915 h -0.808671 v 2.39302 z m 2.416605,-2.39302 v 3.9915 h 3.215397 v -0.79407 h -2.406256 v -2.40337 h 2.406256 v -0.79406 z m 3.215397,0.79406 v 2.40337 h 0.808673 v -2.40337 z m 2.426949,-0.79406 v 0.79406 h 2.40626 v -0.79406 z m 2.40626,0.79406 v 2.40337 h 0.80866 v -2.40337 z m 0,2.40337 h -2.40626 v 0.79407 h 2.40626 z m -2.40626,0 v -2.40337 h -0.809139 v 2.40337 z m 12.82536,-3.19743 v 0.79406 h 2.4058 v -0.79406 z m 2.4058,0.79406 v 0.80442 h -2.4058 v -0.80442 h -0.80913 v 3.19744 h 0.80913 v -1.59848 h 2.4058 v 1.59848 h 0.80913 v -3.19744 z m 2.42694,-0.79406 v 0.79406 h 3.21541 v -0.79406 z m 0,0.79406 h -0.80866 v 2.40337 h 0.80866 z m 0,2.40337 v 0.79407 h 2.40626 v -0.79407 z m 2.40626,0 h 0.80915 v -1.59895 h -2.41661 v 0.79454 h 1.60746 z m 1.61828,-3.19743 v 3.19743 h 0.80868 v -3.19743 z m 0.80868,3.19743 v 0.79407 h 2.40625 v -0.79407 z m 2.40625,0 h 0.80914 v -3.19743 h -0.80914 z m 2.42696,-3.19743 v 0.79406 h 2.40626 v -0.79406 z m 2.40626,0.79406 v 0.80442 h -2.40626 v -0.80442 h -0.80867 v 3.19744 h 0.80867 v -1.59848 h 2.40626 v 1.59848 h 0.80913 v -3.19744 z m 1.61828,-0.79406 v 3.9915 h 0.80866 v -1.59848 h 1.59759 v 0.80441 h 0.80867 v -1.59895 h -2.40626 v -0.80442 h 2.40626 v -0.79406 z m 3.21492,0.79406 v 0.80442 h 0.80915 v -0.80442 z m 0,2.40337 v 0.80442 h 0.80915 v -0.80442 z m 1.61828,-3.19743 v 3.9915 h 3.21493 v -0.79407 h -2.40625 v -2.40337 h 2.40625 v -0.79406 z m 3.21493,0.79406 v 2.40337 h 0.80914 v -2.40337 z m 1.61829,-0.79406 v 3.9915 h 3.21493 v -0.79407 h -2.40626 v -0.80441 h 1.60793 v -0.79454 h -1.60793 v -0.80442 h 2.40626 v -0.79406 z m -33.79908,1.59848 v 0.79454 h 0.79833 v -0.79454 z" />
    <path
       style="opacity:0.752161;fill:none;fill-opacity:0.397476;stroke:#000000;stroke-width:4.53235;stroke-dasharray:none;stroke-opacity:1;filter:url(#filter56)"
       d="m -178.07334,162.8348 h 560.95731 v 46.49031"
       id="path56"
       transform="matrix(0.23164835,0,0,0.2303654,77.236106,206.05532)" />
    <path
       style="opacity:0.752161;fill:none;fill-opacity:0.397476;stroke:#ffffff;stroke-width:0.747;stroke-dasharray:none;stroke-opacity:0.520505"
       d="M 36.147339,254.97125 H 166.62619"
       id="path57" />
    <path
       style="opacity:0.893372;fill:none;fill-opacity:1;stroke:#000000;stroke-width:1.235;stroke-dasharray:none;stroke-opacity:0.520505"
       d="M 38.320909,220.06318 H 165.10493 v 9.47062"
       id="path58" />
    <path
       style="opacity:0.752161;fill:none;fill-opacity:0.397476;stroke:#ffffff;stroke-width:1.335;stroke-dasharray:none;stroke-opacity:0.520505"
       d="M 38.468061,229.78146 H 165.67328"
       id="path59" />
    <rect
       style="fill:#162469;fill-opacity:1;stroke:none;stroke-width:1.64678;stroke-dasharray:none;stroke-opacity:0.520505"
       id="rect59"
       width="7.4762778"
       height="9.9574175"
       x="36.07473"
       y="244.00523" />
    <rect
       style="fill:#162469;fill-opacity:1;stroke:none;stroke-width:1.64678;stroke-dasharray:none;stroke-opacity:0.520505"
       id="rect60"
       width="7.4762778"
       height="9.9574175"
       x="44.042496"
       y="244.00523" />
    <rect
       style="fill:#162469;fill-opacity:1;stroke:none;stroke-width:1.64678;stroke-dasharray:none;stroke-opacity:0.520505"
       id="rect61"
       width="7.4762778"
       height="9.9574175"
       x="52.377983"
       y="244.00523" />
    <rect
       style="fill:#162469;fill-opacity:1;stroke:none;stroke-width:1.64678;stroke-dasharray:none;stroke-opacity:0.520505"
       id="rect62"
       width="7.4762778"
       height="9.9574175"
       x="60.590942"
       y="244.00523" />
    <rect
       style="fill:#162469;fill-opacity:1;stroke:none;stroke-width:1.64678;stroke-dasharray:none;stroke-opacity:0.520505"
       id="rect63"
       width="7.4762778"
       height="9.9574175"
       x="68.558708"
       y="244.00523" />
    <rect
       style="fill:#162469;fill-opacity:1;stroke:none;stroke-width:1.64678;stroke-dasharray:none;stroke-opacity:0.520505"
       id="rect64"
       width="7.4762778"
       height="9.9574175"
       x="76.894196"
       y="244.00523" />
    <rect
       style="fill:#162469;fill-opacity:1;stroke:none;stroke-width:1.64678;stroke-dasharray:none;stroke-opacity:0.520505"
       id="rect65"
       width="7.4762778"
       height="9.9574175"
       x="85.107124"
       y="244.00523" />
    <rect
       style="fill:#162469;fill-opacity:1;stroke:none;stroke-width:1.64678;stroke-dasharray:none;stroke-opacity:0.520505"
       id="rect66"
       width="7.4762778"
       height="9.9574175"
       x="93.07489"
       y="244.00523" />
    <rect
       style="fill:#162469;fill-opacity:1;stroke:none;stroke-width:1.64678;stroke-dasharray:none;stroke-opacity:0.520505"
       id="rect67"
       width="7.4762778"
       height="9.9574175"
       x="101.41039"
       y="244.00523" />
    <path
       style="opacity:0.877551;fill:none;fill-opacity:0.397476;stroke:#ffffff;stroke-width:0.735;stroke-dasharray:none;stroke-opacity:0.520505"
       d="M 31.744258,216.68906 H 172.01287"
       id="path25" />
  </g>
</svg>
