<?xml version="1.0" encoding="UTF-8" standalone="no"?>
<!-- Created with Inkscape (http://www.inkscape.org/) -->

<svg
   width="906.21063"
   height="510.04788"
   viewBox="0 0 906.21063 510.04788"
   version="1.1"
   id="svg1"
   inkscape:version="1.4.2 (f4327f4, 2025-05-13)"
   sodipodi:docname="LOGO-ORIIGINAL- scrap-zone.svg"
   xmlns:inkscape="http://www.inkscape.org/namespaces/inkscape"
   xmlns:sodipodi="http://sodipodi.sourceforge.net/DTD/sodipodi-0.dtd"
   xmlns="http://www.w3.org/2000/svg"
   xmlns:svg="http://www.w3.org/2000/svg">
  <sodipodi:namedview
     id="namedview1"
     pagecolor="#ffffff"
     bordercolor="#000000"
     borderopacity="0.25"
     inkscape:showpageshadow="2"
     inkscape:pageopacity="0.0"
     inkscape:pagecheckerboard="0"
     inkscape:deskcolor="#d1d1d1"
     inkscape:document-units="px"
     inkscape:zoom="0.71574077"
     inkscape:cx="94.307888"
     inkscape:cy="144.60543"
     inkscape:window-width="1920"
     inkscape:window-height="991"
     inkscape:window-x="-9"
     inkscape:window-y="-9"
     inkscape:window-maximized="1"
     inkscape:current-layer="layer1" />
  <defs
     id="defs1">
    <inkscape:path-effect
       effect="spiro"
       id="path-effect1"
       is_visible="true"
       lpeversion="1" />
    <inkscape:path-effect
       effect="spiro"
       id="path-effect193"
       is_visible="true"
       lpeversion="1" />
    <filter
       inkscape:collect="always"
       style="color-interpolation-filters:sRGB"
       id="filter194"
       x="-0.083707243"
       y="-0.091692931"
       width="1.1674198"
       height="1.1834291">
      <feGaussianBlur
         inkscape:collect="always"
         stdDeviation="4.039649"
         id="feGaussianBlur194" />
    </filter>
    <filter
       inkscape:collect="always"
       style="color-interpolation-filters:sRGB"
       id="filter206"
       x="-0.010506568"
       y="-0.032056084"
       width="1.0210388"
       height="1.0641082">
      <feGaussianBlur
         inkscape:collect="always"
         stdDeviation="1.1440692"
         id="feGaussianBlur206" />
    </filter>
    <filter
       inkscape:collect="always"
       style="color-interpolation-filters:sRGB"
       id="filter1"
       x="-0.037236603"
       y="-0.039957876"
       width="1.0744732"
       height="1.0799035">
      <feGaussianBlur
         inkscape:collect="always"
         stdDeviation="1.2767419"
         id="feGaussianBlur1" />
    </filter>
  </defs>
  <g
     inkscape:label="Camada 1"
     inkscape:groupmode="layer"
     id="layer1"
     transform="translate(-10.731119,-270.55857)">
    <path
       style="opacity:0.835735;fill:none;stroke:#ffffff;stroke-width:6.845;stroke-linecap:round;stroke-linejoin:round;stroke-dasharray:none;stroke-opacity:0.973615;paint-order:stroke fill markers;filter:url(#filter1)"
       d="m 365.12328,424.82405 c 21.47738,-1.99001 43.68353,6.60383 58.22592,22.53358 11.57868,12.6833 18.12076,29.21647 22.11704,45.91862 4.26236,17.8142 6.1294,36.81336 16.01225,52.23551 5.22478,8.15325 12.46267,14.86436 20.34711,20.48659 16.81103,11.98759 36.91602,19.30588 57.4994,20.92999"
       id="path1"
       inkscape:path-effect="#path-effect1"
       inkscape:original-d="m 365.12328,424.82405 c 24.03769,5.90546 34.26805,15.35695 58.22592,22.53358 23.95787,7.17664 12.59691,30.44624 22.11704,45.91862 9.52013,15.47238 12.10571,35.17012 16.01225,52.23551 3.90655,17.06539 13.09476,12.68866 20.34711,20.48659 7.25234,7.79794 38.64208,14.21472 57.4994,20.92999"
       sodipodi:nodetypes="cssssc" />
    <path
       style="opacity:0.697406;mix-blend-mode:normal;fill:none;fill-opacity:0.963197;stroke:#ffffff;stroke-width:3.238;stroke-linecap:round;stroke-linejoin:round;stroke-dasharray:none;stroke-dashoffset:0;stroke-opacity:1;paint-order:stroke fill markers;filter:url(#filter194)"
       id="path194"
       d="m 796.45113,51.001779 c -2.388,0.14178 -4.61141,-0.86224 -6.77932,-1.72528 -2.5243,-1.00491 -1.35476,-0.8325 -3.13358,-0.93397 -0.61449,-0.28556 -1.2473,-0.53461 -1.84348,-0.85667 -0.80345,-0.43403 -3.93968,-2.40038 -4.67568,-2.86409 -0.68744,-0.43311 -2.85551,-1.453 -2.05573,-1.30976 0.91827,0.16446 4.53496,2.61733 1.67508,0.72056 -1.75334,-1.09796 -3.29607,-2.47336 -4.92244,-3.74072 -2.12782,-1.77228 -4.6428,-2.72391 -7.08021,-4.0893 -0.45337,-0.25398 -0.84877,-0.59983 -1.27316,-0.89974 -0.18579,-0.0725 -0.35972,-0.24439 -0.55735,-0.21758 -0.0961,0.013 0.12201,0.29199 0.0251,0.28977 -0.26856,-0.006 -0.48691,-0.23326 -0.74544,-0.30623 -0.0843,-0.0238 -0.17728,0.0442 -0.26204,0.0219 -2.60215,-0.68529 0.86374,0.0203 -1.4349,-0.42077 -0.12145,0.0473 -0.2342,0.13492 -0.36435,0.14192 -0.22872,0.0123 -0.45338,-0.0685 -0.68179,-0.0857 -0.71014,-0.0533 -1.50512,0.0257 -2.19798,-0.16222 -0.55482,-0.15053 -1.0828,-0.38661 -1.6242,-0.57991 -2.06376,-0.7514 -4.25554,-0.887 -6.40111,-1.25463 -1.243,-0.004 -2.37532,-0.22728 -3.49778,-0.74685 -3.32513,-1.9182 3.54748,2.04696 7.13809,4.09548 0.21951,0.12523 -0.4353,-0.25721 -0.64694,-0.39533 -0.71208,-0.46472 -1.36414,-1.00639 -2.02023,-1.54496 -0.43922,-0.58401 -1.79061,-1.44889 -2.0389,-2.06848 -0.0619,-0.15459 0.24481,-0.28002 0.22613,-0.4455 -0.005,-0.0398 -0.81116,-1.84309 -0.81533,-1.85247 -0.76676,-0.61412 -1.7267,-1.04483 -2.30027,-1.84238 -0.1542,-0.21441 0.50415,-0.25117 0.62622,-0.48537 0.13801,-0.26479 -0.0942,-1.18265 -0.0785,-1.44301 0.21339,-0.73463 0.15948,-0.36276 0.16692,-1.11482 -0.37569,-1.65081 -0.96664,-3.23673 -1.82151,-4.69636 -0.14724,-0.29313 -0.29844,-0.58432 -0.44172,-0.87941 -0.13654,-0.28121 -0.23512,-0.58232 -0.39768,-0.84935 -0.25405,-0.41734 -0.82394,-0.70794 -0.8474,-1.19595 -0.0143,-0.29669 0.79768,-0.15601 0.7682,-0.45158 -0.0506,-0.50724 -0.64708,-0.78956 -0.93402,-1.21089 -0.24736,-0.36321 -0.44375,-0.75862 -0.66563,-1.13794 -0.27199,-0.41148 -0.5987,-0.79163 -0.81596,-1.23445 -0.13953,-0.28439 -0.14869,-0.61622 -0.24072,-0.91933 -0.18129,-0.59703 -0.35874,-1.19654 -0.58394,-1.77843 -0.96184,-2.4852297 0.0246,0.53052 -0.74392,-1.9308897 -0.12438,-0.32313 -0.21971,-0.659 -0.37313,-0.96939 -0.16717,-0.3382 -0.4253,-0.62709 -0.58497,-0.9689 -0.2351,-0.50332 -0.16921,-1.3591 -0.31961,-1.67893 -0.10093,-0.21463 -0.28458,-0.37951 -0.42688,-0.56927 -0.008,-0.46755 -0.13442,-0.98644 -0.3447,-1.40715 -0.13089,-0.26188 -0.34067,-0.48084 -0.4602,-0.74811 -0.10951,-0.24488 -0.147,-0.51597 -0.2205,-0.77396 -0.18513,-0.36255 -0.37025,-0.72509996 -0.55538,-1.08765996 -0.53703,-1.08308 -0.55753,-2.33310004 -0.93963,-3.45875004 -0.17629,-0.51932 -0.44245,-1.00378 -0.65174,-1.51071 -0.39031,-0.94539 -0.82501,-2.12078 -1.18435,-3.07316 -0.11555,-0.99179 -0.22262,-2.26339 -0.50211,-3.2276103 -0.16873,-0.58215 -0.45832,-1.1233 -0.64771,-1.69906 -0.15501,-0.47128 -0.18764,-0.98238 -0.38414,-1.43793 -0.86957,-2.01598 -1.39606,-1.00397 -0.31851,-2.21355 -0.21579,-0.34137 -0.35702,-0.7434 -0.64736,-1.02411 -0.56737,-0.54855 -1.30531,-0.89616 -1.8886,-1.42774 -1.089,-0.99245 -0.1644,-0.31676 -0.33189,-1.10274 -0.0416,-0.19519 -0.6513,-1.1431 -0.72297,-1.25878 -0.80178,-1.27058 -1.71202,-2.47595 -2.5104,-3.7474 -0.25436,-0.40507 -0.47143,-0.83238 -0.70715,-1.24857 -0.28062,-0.43922 -0.56125,-0.87845 -0.84187,-1.31767 -0.10846,-0.34245 -0.37946,-0.67224 -0.32537,-1.02736 0.0408,-0.26811 0.55068,-0.30983 0.57022,-0.58032 0.0855,-1.18393 -2.45379,-2.55843 -2.7971,-3.51678 -0.0771,-0.21531 0.34229,-0.30343 0.51343,-0.45515 -0.0325,-0.26134 -0.0177,-0.53306 -0.0976,-0.78401 -0.10734,-0.33728 -0.34745,-0.62192 -0.45696,-0.9585 -0.0783,-0.24073 -0.0342,-0.50838 -0.0999,-0.75287 -0.0887,-0.33024 -0.27118,-0.63035 -0.36047,-0.96044 -0.11614,-0.42927 -0.23184,-1.55189 -0.28299,-1.98585 -0.14735,-1.97014 -0.68668,-3.88137 -1.35001,-5.73361 -0.14671,-2.00642 0.13713,0.91868 -0.37078,-1.41981 -0.0406,-0.18684 0.0952,-0.39222 0.032,-0.5727 -0.0961,-0.27491 -0.33308,-0.47819 -0.48617,-0.72593 -0.12333,-0.19959 -0.193,-0.43405 -0.3424,-0.61495 -0.23939,-0.28985 -0.5413,-0.52181 -0.81195,-0.78271 -1.38586,-1.56222 -3.12295,-2.79868 -4.74227,-4.11396 -1.79476,-1.33968 -3.60292,-2.663 -5.4024,-3.99754 -4.14347,-2.74622 -8.39433,-5.43668 -13.03681,-7.2517 -1.63581,-0.63289 -3.31119,-1.20662 -5.03495,-1.54357 -0.2719,-0.0996 -0.53653,-0.22188 -0.8157,-0.29873 -0.246,-0.0677 -0.5025,-0.0889 -0.75376,-0.13335 -0.28904,-0.0754 -0.5805,-0.1421 -0.86714,-0.22621 -1.0195,-0.29917 -2.01415,-0.58777 -3.05201,-0.82272 -1.97105,-0.3591 -3.99594,-0.35887 -5.99467,-0.34283 -1.85449,0.14635 -3.67309,-0.15985 -5.49934,-0.40635 -1.11841,-0.0735 -2.22193,0.14584 -3.33663,-0.0399 -0.40059,-0.0668 -0.80862,-0.40725 -1.18911,-0.26528 -0.21108,0.0788 0.0768,0.44398 0.11522,0.66597 -1.83497,-0.57256 -0.8734,-0.23029 -2.87362,-1.05741 0,0 7.01782,5.11836 7.01782,5.11836 v 0 c -0.22895,-0.76693 -0.3081,-0.44645 0.0481,-0.98915 0.59124,0.24431 1.15182,0.58296 1.77372,0.73294 0.19478,0.047 0.37801,-0.15002 0.57775,-0.16588 1.44999,-0.1151 2.85817,0.61811 4.26557,0.81784 1.9218,0.39173 3.85732,0.52531 5.8186,0.48276 1.93033,0.0625 3.86334,0.0988 5.78054,0.35927 1.85589,0.24685 3.59803,0.82786 5.35031,1.47107 1.70307,0.59632 3.45651,1.03976 5.13105,1.72056 2.77191,1.11122 6.80225,3.64801 -4.01898,-2.66122 -0.30321,-0.17679 0.59751,0.3685 0.89899,0.54822 0.28194,0.16808 0.577,0.31467 0.85117,0.49513 0.28261,0.18601 0.54447,0.40177 0.8167,0.60265 1.74102,1.30431 3.433,2.66975 5.22789,3.89982 1.70237,1.31943 3.33008,2.72889 4.99249,4.09743 0.66556,0.73725 1.39012,1.41441 2.09233,2.11683 0.31849,0.31858 0.6866,0.59064 0.97082,0.94013 0.19815,0.24364 0.28719,0.56017 0.46169,0.82127 0.22022,0.32951 0.4798,0.63094 0.7197,0.94642 1.03819,1.86202 1.67409,3.88324 2.22797,5.9362 0.0212,0.29364 0.13259,1.52015 0.0724,1.85245 -0.33857,1.86988 -0.32856,-0.58493 -0.25136,1.40641 -0.0384,0.22721 -0.25025,0.40942 -0.26246,0.63953 -0.0158,0.29781 0.12138,0.58398 0.18207,0.87597 1.07604,1.40529 1.28507,0.87043 0.2824,1.60138 -0.20892,0.1523 -0.5454,0.22007 -0.61848,0.46807 -0.22532,0.76461 1.37646,2.13946 1.47521,2.29139 0.21313,0.32791 0.27058,0.73389 0.40587,1.10083 0.14164,2.15316 0.93664,4.13943 2.32213,5.80423 0.60173,0.66903 0.97012,1.12497 1.66999,1.7082 0.41203,0.34336 0.88092,0.61578 1.28446,0.96908 0.25886,0.22663 0.69795,0.41948 0.69451,0.76351 -0.002,0.24962 -0.68793,0.004 -0.70468,0.25355 -0.0258,0.38309 0.41498,0.64614 0.62247,0.96921 0.65495,0.57332 1.43101,1.03245 1.96484,1.71996 0.26939,0.34694 0.18844,0.86269 0.35584,1.26878 0.22809,0.55333 0.60419,1.0385 0.82463,1.59492 0.61329,1.54807 0.69743,3.29447 1.24718,4.86294 -0.0855,1.0544203 -0.22336,2.7098603 -0.0496,3.7480503 0.21086,1.26011 0.90339,2.38503 1.17716,3.62751 0.22931,1.94533 -0.11948,0.004 0.59018,1.84535 0.0834,0.21647 0.0352,0.47126004 0.1272,0.68422004 0.38763,0.89729 1.21876,1.47978 1.85758,2.17583996 0.58859,1.04538 1.65804,1.69785 2.19713,2.78831 0.11361,0.22982 0.13713,0.49416 0.21438,0.73861 0.0912,0.2887 0.194,0.57363 0.291,0.86045 0.19061,1.00607 0.14198,1.64611 0.47084,2.63274 0.20761,0.62286 0.6015,1.19703 0.67868,1.8490297 0.0306,0.25875 -0.10383,0.51066 -0.15575,0.76599 -0.0169,0.27116 0.0154,0.54996 -0.0507,0.81348 -0.059,0.23509 -0.43209,0.44055 -0.31751,0.65413 0.33336,0.62143 1.11379,0.90923 1.47959,1.51214 0.1286,0.21197 -0.1296,0.48704 -0.11644,0.73462 0.01,0.18445 0.36081,1.35226 0.41579,1.54091 0.12711,1.19047 -0.0319,0.33313 0.39185,1.53593 0.34042,0.96636 0.52747,1.985 1.0044,2.90305 0.59158,1.0861 0.2512,0.52747 1.04163,1.66325 0.56264,1.00769 0.16218,0.89393 0.94404,1.90447 0.38513,0.49776 1.42634,0.76935 1.2856,1.38276 -0.12054,0.52538 -1.07737,0.0383 -1.61605,0.0575 0.14367,0.38889 0.61711,1.75126 0.86047,2.06081 0.3462,0.44037 0.87106,0.71312 1.23813,1.13626 0.47036,0.54222 0.53863,1.46491 1.2063,1.88291 0.25515,0.30538 0.4754,0.64011 0.74476,0.93303 0.0829,0.0902 0.83786,0.75931 0.94992,0.82559 8.20148,4.85101 5.74597,3.73683 9.42756,5.36604 1.11522,0.36814 2.26616,0.4399 3.42938,0.24689 1.02252,-0.34279 2.30375,-0.27104 2.9772,-1.21177 0.0307,-0.17678 -0.0558,-0.42887 0.0921,-0.53035 0.19053,-0.13065 0.46214,-0.0162 0.69301,-0.008 1.17629,0.0414 2.33998,0.36413 3.40217,0.85604 0.462,0.15619 0.94541,0.25302 1.39379,0.44485 0.33317,0.14255 0.63237,0.35862 0.96885,0.49319 0.1374,0.055 0.304,0.008 0.43846,0.0697 0.37545,0.17257 0.71402,0.41611 1.07102,0.62416 0.14697,0.0643 0.29394,0.12867 0.4409,0.193 -1.38964,-1.63431 -0.26552,-0.41967 -4.56359,-2.68245 -0.17268,-0.0909 0.34029,0.19226 0.5008,0.30326 0.61245,0.42349 1.23708,0.81513 1.86317,1.22479 1.95644,1.32857 3.78103,2.84415 5.78236,4.10988 2.49711,1.58632 2.49695,1.60837 6.42079,3.79655 0.66131,0.36879 1.4084,0.56076 2.08765,0.89534 1.29149,0.63617 3.33107,1.83683 4.44908,2.47571 3.28252,2.00941 5.85109,3.62632 9.46538,4.91562 1.02996,0.36741 3.06334,0.98163 4.22593,1.097 0.38362,0.0381 0.76891,-0.0569 1.15336,-0.0853 z"
       transform="matrix(1.2847788,0,0,1.3150773,-483.42452,519.85706)" />
    <g
       id="g192"
       style="stroke:#ff09cb;stroke-width:9.3;stroke-dasharray:none;stroke-opacity:1;filter:url(#filter206)"
       transform="translate(-220.5383,404.64909)">
      <path
         id="rect180"
         style="opacity:1;fill:none;fill-opacity:0.963197;stroke:#ff09cb;stroke-width:9.3;stroke-linecap:round;stroke-dasharray:none;stroke-dashoffset:0;stroke-opacity:1;paint-order:markers stroke fill"
         d="m 365.86301,60.121975 c -13.08312,1.26827 -23.33842,15.672653 -20.70951,33.529036 2.27015,15.419929 13.97375,21.509209 21.14968,22.079649 l 33.62857,2.67325 c 7.20717,0.57292 11.04466,2.7868 9.71646,8.5752 -1.32818,5.78839 -4.19015,9.10337 -5.39059,9.16215 -2.89733,0.14168 -32.37172,-3.38706 -43.80383,-3.8553 -7.044,-0.28856 -13.23057,0.44254 -13.08727,8.59263 0.0888,5.04847 5.29666,9.34724 12.34066,9.63575 l 49.18005,2.01435 c 10.2446,0.41962 16.2044,-11.98163 16.69719,-24.01322 0.64555,-15.76019 -3.45009,-26.88971 -13.05495,-27.88364 l -41.5232,-4.296868 c -9.2597,2.409663 -8.6436,-18.998458 0.5744,-18.528538 l 44.00199,2.243162 c 7.04088,0.35893 7.07113,0.846883 9.54914,-7.36877 1.45257,-4.815891 -6.50738,-9.231633 -10.72667,-9.818411 -18.70857,-2.601811 -31.96314,-4.347584 -48.54212,-2.74043 z"
         sodipodi:nodetypes="sssszssssssscsssss" />
      <path
         id="path183"
         style="opacity:1;fill:none;fill-opacity:0.963197;stroke:#ff09cb;stroke-width:9.3;stroke-linecap:round;stroke-linejoin:bevel;stroke-dasharray:none;stroke-dashoffset:0;stroke-opacity:1;paint-order:stroke fill markers"
         d="m 467.54792,76.482951 c -18.9301,-6.94e-4 -34.27616,16.776555 -34.27563,37.472199 5.3e-4,20.69482 15.34628,37.47078 34.27563,37.47009 15.59796,-4.9e-4 27.22846,-7.51496 31.16437,-24.01586 -4.94289,-5.91447 -9.88578,-3.63359 -14.82867,0 -3.34728,7.75868 -8.48913,8.70906 -16.3357,8.70941 -11.19718,9.8e-4 -20.2749,-9.92214 -20.27542,-22.16364 -5.5e-4,-12.24232 9.07749,-22.166725 20.27542,-22.165742 8.7977,4.9e-5 16.59133,6.203324 19.29362,15.356592 6.57921,3.99538 10.613,2.26357 14.41045,0 -3.00288,-17.768298 -17.1765,-30.663077 -33.70407,-30.663049 z"
         sodipodi:nodetypes="csscccscccc" />
      <path
         style="opacity:1;fill:none;fill-opacity:0.963197;stroke:#ff09cb;stroke-width:9.3;stroke-linejoin:round;stroke-dasharray:none;stroke-dashoffset:0;stroke-opacity:1;paint-order:markers stroke fill"
         d="m 529.84657,86.21244 24.88696,-12.59389 c 0,0 11.83639,0.975637 13.55793,5.544711 1.30529,3.464321 -1.25068,9.792186 -4.94971,9.942239 -7.02641,0.28503 -17.82224,0.835481 -24.26442,6.136454 -3.53288,2.907048 -5.86434,12.409646 -5.86434,12.409646 0,0 -2.15717,23.9775 -1.16058,34.79783 0.29263,3.17716 -3.65482,5.97135 -7.66283,5.73591 -4.00801,-0.23544 -10.38924,-3.82112 -10.32986,-8.22145 0.28426,-21.06576 0.0888,-45.314318 1.29124,-60.418236 0.28937,-3.634862 4.73469,-6.065084 8.1778,-7.265481 2.1709,-0.756858 5.34197,-1.320513 6.88656,0.382393 3.03711,3.3484 -0.56875,13.549874 -0.56875,13.549874 z"
         id="path184"
         sodipodi:nodetypes="ccasacszsssac" />
      <path
         id="path185"
         style="opacity:1;fill:none;fill-opacity:0.963197;stroke:#ff09cb;stroke-width:9.3;stroke-dasharray:none;stroke-dashoffset:0;stroke-opacity:1;paint-order:markers stroke fill"
         d="m 603.64595,72.478591 c -20.69693,0.0011 -35.47454,16.937887 -35.47461,37.830079 7e-5,20.89219 14.77768,37.82894 35.47461,37.83008 4.35297,5.3e-4 8.7206,-3.12256 12.81641,-4.99805 -3.42993,-5.27236 -6.14621,-10.12077 -10.97461,-13.18359 -4.18372,-2.65388 -9.78556,-0.67606 -14.38653,-3.7346 -4.60097,-3.05854 -8.80097,-8.11703 -8.80097,-15.2654 0,-12.012196 9.31807,-21.750003 20.8125,-21.750003 11.49443,0 18.8125,9.737807 18.8125,21.750003 0,5.54236 -2.60413,11.84569 -3.55664,19.10156 -0.34171,2.60304 -1.60888,8.64366 -0.40625,12.94141 2.30482,1.84465 5.03927,5.22656 8.04687,5.22656 8.03061,0 14.4961,-6.46353 14.4961,-14.49414 v -16.57617 c 0.0647,-6.68501 1.28648,-13.74291 -1.71485,-19.986332 C 633.34534,82.329194 619.324,72.478259 603.64595,72.478591 Z"
         sodipodi:nodetypes="ccccazsssscssccc" />
      <path
         id="rect186"
         style="opacity:1;fill:none;fill-opacity:0.963197;stroke:#ff09cb;stroke-width:9.3;stroke-dasharray:none;stroke-dashoffset:0;stroke-opacity:1;paint-order:markers stroke fill"
         d="m 679.83594,71.419922 c -7.79203,0.236852 -15.73601,2.162404 -21.60742,6.626953 -6.51922,4.957129 -11.58008,12.835651 -11.58008,21.669922 v 63.234373 c 0,8.83427 6.15019,15.94727 13.78906,15.94727 7.63887,0 9.78906,-7.113 9.78906,-15.94727 V 149.28516 C 670.08147,148.99226 670,148.66269 670,148.3125 v -25.75 c 0,-0.35019 0.0815,-0.67976 0.22656,-0.97266 V 98.425781 c 0,-5.072474 10.3947,-9.404568 15.26758,-9.404297 11.19801,-9.65e-4 20.27608,7.9236 20.27539,20.166016 -3e-4,12.24165 -7.08274,22.48733 -18.27539,22.16406 -12.99019,-0.37519 -13.11914,13.73242 -13.11914,13.73242 4.33124,1.04143 9.78435,1.57409 13.11914,1.57422 18.92947,5.5e-4 34.27517,-16.77574 34.27539,-37.4707 7.6e-4,-20.69572 -15.9365,-35.516008 -34.27539,-37.472656 -2.48121,-0.264731 -5.06086,-0.373873 -7.6582,-0.294922 z"
         sodipodi:nodetypes="sssssscsscsccscccss" />
      <path
         id="rect187"
         style="opacity:1;fill:none;fill-opacity:0.963197;stroke:#ff09cb;stroke-width:9.3;stroke-linecap:round;stroke-dasharray:none;stroke-dashoffset:0;stroke-opacity:1;paint-order:markers stroke fill"
         d="m 733.85214,61.091698 c -8.75079,0.530525 -15.5813,4.517737 -15.31316,8.940578 l 0.24268,4.002879 c 0.26814,4.422841 7.53043,7.557753 16.28122,7.027229 L 770.58506,78.90882 732.6444,119.2936 c -10.50967,13.07218 -10.89405,16.1838 -10.43004,23.83743 0.26814,4.42284 7.12596,7.58019 15.3756,7.08005 l 50.85511,-3.08314 c 8.24965,-0.50014 14.67371,-4.46271 14.40557,-8.88555 l -0.24268,-4.00288 c -0.26814,-4.42284 -7.12398,-7.58239 -15.37363,-7.08225 l -37.26446,2.25919 42.88463,-42.54185 c 0,0 11.51999,-11.028137 11.22081,-22.02804 -0.12047,-4.429322 -7.53029,-7.555673 -16.28109,-7.025148 z"
         sodipodi:nodetypes="ssssccssssssccsss" />
      <path
         id="path189"
         style="opacity:1;fill:none;fill-opacity:0.963197;stroke:#ff09cb;stroke-width:9.3;stroke-dasharray:none;stroke-dashoffset:0;stroke-opacity:1;paint-order:markers stroke fill"
         d="m 845.56828,69.575839 c -21.95416,2e-6 -39.75152,18.093191 -39.75152,40.412271 0,22.31908 17.79736,40.41227 39.75152,40.41227 21.95416,0 39.75153,-18.09319 39.75153,-40.41227 0,-22.319084 -17.79737,-40.412274 -39.75153,-40.412271 z m 0,19.438819 c 12.48055,-6e-6 20.59813,8.285456 20.59848,20.973452 -3.5e-4,12.688 -8.11793,20.97347 -20.59848,20.97346 -12.48054,0 -20.59812,-8.28546 -20.59847,-20.97346 3.5e-4,-12.687992 8.11793,-20.973453 20.59847,-20.973452 z"
         sodipodi:nodetypes="sssssscscs" />
      <path
         id="path190"
         style="opacity:1;fill:none;fill-opacity:0.963197;stroke:#ff09cb;stroke-width:9.3;stroke-dasharray:none;stroke-dashoffset:0;stroke-opacity:1;paint-order:markers stroke fill"
         d="m 926.80128,70.314284 c -22.69003,-2.91e-4 -30.58303,19.995815 -32.17383,42.495106 -0.58121,8.22027 0,24.72237 0,24.72237 0,5.36321 3.8244,9.68052 8.57422,9.68052 4.74981,0 8.57422,-4.31731 8.57422,-9.68052 0,-5.66634 -0.88457,-11.93625 -0.88454,-19.41306 5e-5,-16.84188 6.34784,-29.433989 16.79469,-29.433186 23.26669,0.0021 12.92338,39.363096 15.96914,49.023026 1.29621,4.11107 4.79667,9.50374 9.54649,9.50374 4.74981,0 10.03143,-4.51907 8.57422,-9.68052 -4.98335,-17.65107 3.04023,-32.29584 -4.59961,-45.479198 -6.24279,-10.772604 -17.07913,-21.738699 -30.375,-21.738278 z"
         sodipodi:nodetypes="csssssssssac" />
      <path
         id="path191"
         style="opacity:1;fill:none;fill-opacity:0.963197;stroke:#ff09cb;stroke-width:9.3;stroke-dasharray:none;stroke-dashoffset:0;stroke-opacity:1;paint-order:markers stroke fill"
         d="m 1009.44,69.331283 c -22.24834,3e-6 -40.28415,18.03582 -40.28415,40.284127 0,22.2483 18.03582,40.28412 40.28415,40.28412 14.1308,-5.9e-4 27.2281,-7.40516 34.5143,-19.51263 0.8194,-7.65349 1.9108,-15.48634 -12.5342,-13.07178 0,0 -10.999,13.50738 -18.8582,14.40656 -8.0999,0.92672 -17.26501,-3.6519 -22.28704,-10.07422 -3.836,-4.90559 -4.99754,-12.36757 -3.36357,-18.37672 1.66851,-6.136198 6.94768,-11.803124 12.46421,-14.442132 5.5165,-2.639008 12.189,-2.86082 17.6046,-0.592285 3.6256,1.518726 7.9846,8.678142 7.9846,8.678142 l -27.73744,11.523145 c -1.12713,4.64011 -5.34271,9.14616 5.70854,10.26096 l 38.9685,-14.43995 c 0,0 6.8547,-4.286664 5.9789,-7.310401 -4.3134,-14.892716 -13.0125,-26.689525 -38.4432,-27.616748 z"
         sodipodi:nodetypes="cscccaaazaccccscc" />
      <path
         id="rect192"
         style="opacity:1;fill:none;fill-opacity:0.963197;stroke:#ff09cb;stroke-width:9.3;stroke-linecap:round;stroke-linejoin:round;stroke-dasharray:none;stroke-dashoffset:0;stroke-opacity:1;paint-order:stroke fill markers"
         d="m 793.53651,175.72613 c -6.73172,0 -12.15079,2.91201 -12.15079,6.52948 v 20.9068 c 0,3.61748 5.41907,6.52948 12.15079,6.52948 h 58.77501 l 19.24307,23.50642 -1.05895,-23.50642 c -0.34582,-7.67669 12.15079,-4.72076 12.15079,-6.52948 0,-1.80874 0,-19.09806 0,-20.9068 0,-1.80871 -5.41907,-6.52948 -12.15079,-6.52948 z"
         sodipodi:nodetypes="ssssccszzss" />
      <path
         id="path192"
         style="opacity:1;fill:none;fill-opacity:0.963197;stroke:#ff09cb;stroke-width:9.3;stroke-linecap:round;stroke-linejoin:round;stroke-dasharray:none;stroke-dashoffset:0;stroke-opacity:1;paint-order:stroke fill markers"
         d="m 574.2179,2.4849693 c 6.73172,0 12.15079,2.91201 12.15079,6.52948 V 29.921249 c 0,3.61748 -5.41907,6.52948 -12.15079,6.52948 h -58.77501 l -19.24307,23.50642 1.05895,-23.50642 c 0.34582,-7.67669 -12.15079,-4.72076 -12.15079,-6.52948 0,-1.80874 0,-19.09806 0,-20.9067997 0,-1.80871 5.41907,-6.52948 12.15079,-6.52948 z"
         sodipodi:nodetypes="ssssccszzss" />
    </g>
    <path
       id="path196"
       style="fill:none;fill-opacity:0.963197;stroke:#ffffff;stroke-width:2.438;stroke-linecap:round;stroke-dasharray:none;stroke-dashoffset:0;stroke-opacity:1;paint-order:markers stroke fill"
       d="m 144.6176,465.47818 c -13.08312,1.26826 -23.33842,15.67265 -20.70951,33.52903 2.27015,15.41993 13.97375,21.50921 21.14968,22.07965 l 33.62857,2.67325 c 7.20717,0.57292 11.04466,2.7868 9.71646,8.5752 -1.32818,5.78839 -4.19015,9.10337 -5.39059,9.16215 -2.89733,0.14168 -32.37172,-3.38706 -43.80383,-3.8553 -7.044,-0.28856 -13.23057,0.44254 -13.08727,8.59263 0.0888,5.04847 5.29666,9.34724 12.34066,9.63575 l 49.18005,2.01435 c 10.2446,0.41962 16.2044,-11.98163 16.69719,-24.01322 0.64555,-15.76019 -3.45009,-26.88971 -13.05495,-27.88364 l -41.5232,-4.29687 c -9.2597,2.40966 -8.6436,-18.99846 0.5744,-18.52854 l 44.00199,2.24317 c 7.04088,0.35893 7.07113,0.84688 9.54914,-7.36877 1.45257,-4.8159 -6.50738,-9.23164 -10.72667,-9.81842 -18.70857,-2.60181 -31.96314,-4.34758 -48.54212,-2.74042 z"
       sodipodi:nodetypes="sssszssssssscsssss" />
    <path
       id="path197"
       style="fill:none;fill-opacity:0.963197;stroke:#ffffff;stroke-width:1.905;stroke-linecap:round;stroke-linejoin:bevel;stroke-dasharray:none;stroke-dashoffset:0;stroke-opacity:1;paint-order:stroke fill markers"
       d="m 246.30251,481.83915 c -18.9301,-6.9e-4 -34.27616,16.77656 -34.27563,37.4722 5.3e-4,20.69482 15.34628,37.47078 34.27563,37.47009 15.59796,-4.9e-4 27.22846,-7.51496 31.16437,-24.01586 -4.94289,-5.91447 -9.88578,-3.63359 -14.82867,0 -3.34728,7.75868 -8.48913,8.70906 -16.3357,8.70941 -11.19718,9.8e-4 -20.2749,-9.92214 -20.27542,-22.16364 -5.5e-4,-12.24232 9.07749,-22.16673 20.27542,-22.16574 8.7977,5e-5 16.59133,6.20332 19.29362,15.35659 6.57921,3.99538 10.613,2.26357 14.41045,0 -3.00288,-17.7683 -17.1765,-30.66308 -33.70407,-30.66305 z"
       sodipodi:nodetypes="csscccscccc" />
    <path
       style="fill:none;fill-opacity:0.963197;stroke:#ffffff;stroke-width:1.939;stroke-linejoin:round;stroke-dasharray:none;stroke-dashoffset:0;stroke-opacity:1;paint-order:markers stroke fill"
       d="m 308.60116,491.56864 24.88696,-12.59389 c 0,0 11.83639,0.97564 13.55793,5.54471 1.30529,3.46432 -1.25068,9.79219 -4.94971,9.94224 -7.02641,0.28503 -17.82224,0.83548 -24.26442,6.13645 -3.53288,2.90705 -5.86434,12.40965 -5.86434,12.40965 0,0 -2.15717,23.9775 -1.16058,34.79783 0.29263,3.17716 -3.65482,5.97135 -7.66283,5.73591 -4.00801,-0.23544 -10.38924,-3.82112 -10.32986,-8.22145 0.28426,-21.06576 0.0888,-45.31432 1.29124,-60.41824 0.28937,-3.63486 4.73469,-6.06508 8.1778,-7.26548 2.1709,-0.75685 5.34197,-1.32051 6.88656,0.3824 3.03711,3.3484 -0.56875,13.54987 -0.56875,13.54987 z"
       id="path198"
       sodipodi:nodetypes="ccasacszsssac" />
    <path
       id="path199"
       style="fill:none;fill-opacity:0.963197;stroke:#ffffff;stroke-width:2.236;stroke-dasharray:none;stroke-dashoffset:0;stroke-opacity:1;paint-order:markers stroke fill"
       d="m 382.40054,477.83479 c -20.69693,10e-4 -35.47454,16.93789 -35.47461,37.83008 7e-5,20.89219 14.77768,37.82894 35.47461,37.83008 4.35297,5.3e-4 8.7206,-3.12256 12.81641,-4.99805 -3.42993,-5.27236 -6.14621,-10.12077 -10.97461,-13.18359 -4.18372,-2.65388 -9.78556,-0.67606 -14.38653,-3.7346 -4.60097,-3.05854 -8.80097,-8.11703 -8.80097,-15.2654 0,-12.0122 9.31807,-21.75 20.8125,-21.75 11.49443,0 18.8125,9.7378 18.8125,21.75 0,5.54236 -2.60413,11.84569 -3.55664,19.10156 -0.34171,2.60304 -1.60888,8.64366 -0.40625,12.94141 2.30482,1.84465 5.03927,5.22656 8.04687,5.22656 8.03061,0 14.4961,-6.46353 14.4961,-14.49414 v -16.57617 c 0.0647,-6.68501 1.28648,-13.74291 -1.71485,-19.98633 -5.44514,-14.84081 -19.46648,-24.69174 -35.14453,-24.69141 z"
       sodipodi:nodetypes="ccccazsssscssccc" />
    <path
       id="path200"
       style="fill:none;fill-opacity:0.963197;stroke:#ffffff;stroke-width:2.228;stroke-dasharray:none;stroke-dashoffset:0;stroke-opacity:1;paint-order:markers stroke fill"
       d="m 458.59053,475.90881 c -7.79203,0.23685 -15.73601,2.16241 -21.60742,6.62695 -6.51922,4.95713 -11.58008,12.83566 -11.58008,21.66993 v 63.23437 c 0,8.83427 6.15019,15.94727 13.78906,15.94727 7.63887,0 9.78906,-7.113 9.78906,-15.94727 v -13.66601 c -0.14509,-0.2929 -0.22656,-0.62247 -0.22656,-0.97266 v -25.75 c 0,-0.35019 0.0815,-0.67976 0.22656,-0.97266 v -23.16406 c 0,-5.07247 10.3947,-9.40457 15.26758,-9.4043 11.19801,-9.6e-4 20.27608,7.9236 20.27539,20.16602 -3e-4,12.24165 -7.08274,22.48733 -18.27539,22.16406 -12.99019,-0.37519 -13.11914,13.73242 -13.11914,13.73242 4.33124,1.04143 9.78435,1.57409 13.11914,1.57422 18.92947,5.5e-4 34.27517,-16.77574 34.27539,-37.4707 7.6e-4,-20.69572 -15.9365,-35.51601 -34.27539,-37.47266 -2.48121,-0.26473 -5.06086,-0.37387 -7.6582,-0.29492 z"
       sodipodi:nodetypes="sssssscsscsccscccss" />
    <path
       id="path201"
       style="fill:none;fill-opacity:0.963197;stroke:#ffffff;stroke-width:2.184;stroke-linecap:round;stroke-dasharray:none;stroke-dashoffset:0;stroke-opacity:1;paint-order:markers stroke fill"
       d="m 512.60673,466.4479 c -8.75079,0.53052 -15.5813,4.51774 -15.31316,8.94058 l 0.24268,4.00288 c 0.26814,4.42284 7.53043,7.55775 16.28122,7.02722 l 35.52218,-2.15356 -37.94066,40.38478 c -10.50967,13.07218 -10.89405,16.1838 -10.43004,23.83743 0.26814,4.42284 7.12596,7.58019 15.3756,7.08005 l 50.85511,-3.08314 c 8.24965,-0.50014 14.67371,-4.46271 14.40557,-8.88555 l -0.24268,-4.00288 c -0.26814,-4.42284 -7.12398,-7.58239 -15.37363,-7.08225 l -37.26446,2.25919 42.88463,-42.54185 c 0,0 11.51999,-11.02814 11.22081,-22.02804 -0.12047,-4.42932 -7.53029,-7.55567 -16.28109,-7.02515 z"
       sodipodi:nodetypes="ssssccssssssccsss" />
    <path
       id="path202"
       style="fill:none;fill-opacity:0.963197;stroke:#ffffff;stroke-width:1.984;stroke-dasharray:none;stroke-dashoffset:0;stroke-opacity:1;paint-order:markers stroke fill"
       d="m 624.32287,474.93204 c -21.95416,0 -39.75152,18.09319 -39.75152,40.41227 0,22.31908 17.79736,40.41227 39.75152,40.41227 21.95416,0 39.75153,-18.09319 39.75153,-40.41227 0,-22.31908 -17.79737,-40.41227 -39.75153,-40.41227 z m 0,19.43882 c 12.48055,-10e-6 20.59813,8.28545 20.59848,20.97345 -3.5e-4,12.688 -8.11793,20.97347 -20.59848,20.97346 -12.48054,0 -20.59812,-8.28546 -20.59847,-20.97346 3.5e-4,-12.68799 8.11793,-20.97345 20.59847,-20.97345 z"
       sodipodi:nodetypes="sssssscscs" />
    <path
       id="path203"
       style="fill:none;fill-opacity:0.963197;stroke:#ffffff;stroke-width:1.917;stroke-dasharray:none;stroke-dashoffset:0;stroke-opacity:1;paint-order:markers stroke fill"
       d="m 705.55587,475.67048 c -22.69003,-2.9e-4 -30.58303,19.99582 -32.17383,42.49511 -0.58121,8.22027 0,24.72237 0,24.72237 0,5.36321 3.8244,9.68052 8.57422,9.68052 4.74981,0 8.57422,-4.31731 8.57422,-9.68052 0,-5.66634 -0.88457,-11.93625 -0.88454,-19.41306 5e-5,-16.84188 6.34784,-29.43399 16.79469,-29.43319 23.26669,0.002 12.92338,39.3631 15.96914,49.02303 1.29621,4.11107 4.79667,9.50374 9.54649,9.50374 4.74981,0 10.03143,-4.51907 8.57422,-9.68052 -4.98335,-17.65107 3.04023,-32.29584 -4.59961,-45.4792 -6.24279,-10.7726 -17.07913,-21.7387 -30.375,-21.73828 z"
       sodipodi:nodetypes="csssssssssac" />
    <path
       id="path204"
       style="fill:none;fill-opacity:0.963197;stroke:#ffffff;stroke-width:1.845;stroke-linecap:round;stroke-dasharray:none;stroke-dashoffset:0;stroke-opacity:1;paint-order:markers stroke fill"
       d="m 788.19459,474.68748 c -22.24834,1e-5 -40.28415,18.03582 -40.28415,40.28413 0,22.2483 18.03582,40.28412 40.28415,40.28412 14.1308,-5.9e-4 27.2281,-7.40516 34.5143,-19.51263 0.8194,-7.65349 1.9108,-15.48634 -12.5342,-13.07178 0,0 -10.999,13.50738 -18.8582,14.40656 -8.0999,0.92672 -17.26501,-3.6519 -22.28704,-10.07422 -3.836,-4.90559 -4.99754,-12.36757 -3.36357,-18.37672 1.66851,-6.1362 6.94768,-11.80312 12.46421,-14.44213 5.5165,-2.63901 12.189,-2.86082 17.6046,-0.59229 3.6256,1.51873 7.9846,8.67814 7.9846,8.67814 l -27.73744,11.52315 c -1.12713,4.64011 -5.34271,9.14616 5.70854,10.26096 l 38.9685,-14.43995 c 0,0 6.8547,-4.28666 5.9789,-7.3104 -4.3134,-14.89272 -13.0125,-26.68953 -38.4432,-27.61675 z"
       sodipodi:nodetypes="cscccaaazaccccscc" />
    <path
       id="path205"
       style="fill:none;fill-opacity:0.963197;stroke:#ffffff;stroke-width:1.87;stroke-linecap:round;stroke-linejoin:round;stroke-dasharray:none;stroke-dashoffset:0;stroke-opacity:1;paint-order:stroke fill markers"
       d="m 572.2911,581.08233 c -6.73172,0 -12.15079,2.91201 -12.15079,6.52948 v 20.9068 c 0,3.61748 5.41907,6.52948 12.15079,6.52948 h 58.77501 l 19.24307,23.50642 -1.05895,-23.50642 c -0.22585,-5.0134 14.25016,-5.32115 14.25016,-13.93901 0,-8.61786 -2.09937,-13.49727 -2.09937,-13.49727 0,-1.80871 -5.41907,-6.52948 -12.15079,-6.52948 z"
       sodipodi:nodetypes="ssssccszzss" />
    <path
       id="path206"
       style="fill:none;fill-opacity:0.963197;stroke:#ffffff;stroke-width:1.77;stroke-linecap:round;stroke-linejoin:round;stroke-dasharray:none;stroke-dashoffset:0;stroke-opacity:1;paint-order:stroke fill markers"
       d="m 352.97249,407.84117 c 6.73172,0 12.15079,2.91201 12.15079,6.52948 v 20.9068 c 0,3.61748 -5.41907,6.52948 -12.15079,6.52948 h -58.77501 l -19.24307,23.50642 1.05895,-23.50642 c 0.34582,-7.67669 -12.15079,-4.72076 -12.15079,-6.52948 0,-1.80874 0,-19.09806 0,-20.9068 0,-1.80871 5.41907,-6.52948 12.15079,-6.52948 z"
       sodipodi:nodetypes="ssssccszzss" />
  </g>
</svg>
